<?xml version="1.0" encoding="UTF-8" standalone="no"?><!-- Generator: Gravit.io --><svg xmlns="http://www.w3.org/2000/svg" xmlns:xlink="http://www.w3.org/1999/xlink" style="isolation:isolate" viewBox="0 0 340.157 340.157" width="340.157pt" height="340.157pt"><defs><clipPath id="_clipPath_InXgfcqlFnNqwtA74D23rxm32VJCtqdO"><rect width="340.157" height="340.157"/></clipPath></defs><g clip-path="url(#_clipPath_InXgfcqlFnNqwtA74D23rxm32VJCtqdO)"><g><path d=" M 170.079 16.12 C 85.094 16.12 16.12 85.094 16.12 170.079 C 16.12 255.064 85.094 324.037 170.079 324.037 C 255.064 324.037 324.037 255.064 324.037 170.079 C 324.037 85.094 255.064 16.12 170.079 16.12 Z  M 170.079 62.308 C 195.636 62.308 216.266 82.938 216.266 108.495 C 216.266 134.052 195.636 154.683 170.079 154.683 C 144.522 154.683 123.891 134.052 123.891 108.495 C 123.891 82.938 144.522 62.308 170.079 62.308 Z  M 170.079 280.929 C 132.925 280.929 98.242 262.316 77.704 231.354 C 78.166 200.716 139.287 183.935 170.079 183.935 C 200.716 183.935 261.992 200.716 262.454 231.354 C 241.916 262.316 207.233 280.929 170.079 280.929 Z " fill="rgb(6,129,248)"/><path d=" M -14.671 -14.671 L 354.829 -14.671 L 354.829 354.829 L -14.671 354.829 L -14.671 -14.671 Z " fill="none"/></g></g></svg>