<?xml version="1.0" encoding="UTF-8" standalone="no"?><!-- Generator: Gravit.io --><svg xmlns="http://www.w3.org/2000/svg" xmlns:xlink="http://www.w3.org/1999/xlink" style="isolation:isolate" viewBox="0 0 517.996 317" width="517.996pt" height="317pt"><defs><clipPath id="_clipPath_FRgXZwZIhBfE1teCsa0KP8uWWfjV7rCS"><rect width="517.996" height="317"/></clipPath></defs><g clip-path="url(#_clipPath_FRgXZwZIhBfE1teCsa0KP8uWWfjV7rCS)"><g style="isolation:isolate"><mask id="_mask_b8BgTxe3aJIFOVNwSX6sCJOpJfFCgjcZ" x="-200%" y="-200%" width="400%" height="400%"><rect x="-200%" y="-200%" width="400%" height="400%" style="fill:white;"/><path d=" M 492 33.682 C 492 26.406 482.37 20.5 470.49 20.5 L 63.492 20.5 C 51.63 20.5 42 26.406 42 33.682 L 42 283.318 C 42 290.594 51.63 296.5 63.492 296.5 L 470.49 296.5 C 482.37 296.5 492 290.594 492 283.318 L 492 33.682 Z " fill-rule="evenodd" fill="black" stroke="none"/></mask><path d=" M 492 33.682 C 492 26.406 482.37 20.5 470.49 20.5 L 63.492 20.5 C 51.63 20.5 42 26.406 42 33.682 L 42 283.318 C 42 290.594 51.63 296.5 63.492 296.5 L 470.49 296.5 C 482.37 296.5 492 290.594 492 283.318 L 492 33.682 Z " fill-rule="evenodd" fill="rgb(236,240,247)" mask="url(#_mask_b8BgTxe3aJIFOVNwSX6sCJOpJfFCgjcZ)" vector-effect="non-scaling-stroke" stroke-width="2.627" stroke="rgb(0,0,0)" stroke-linejoin="round" stroke-linecap="butt" stroke-miterlimit="1.414"/><path d=" M 492 33.682 C 492 26.406 482.37 20.5 470.49 20.5 L 63.492 20.5 C 51.63 20.5 42 26.406 42 33.682 L 42 283.318 C 42 290.594 51.63 296.5 63.492 296.5 L 470.49 296.5 C 482.37 296.5 492 290.594 492 283.318 L 492 33.682 Z " fill-rule="evenodd" fill="rgb(236,240,247)"/><clipPath id="_clipPath_SDh50iwzlh8zVa1IR0YDUc828sd9j0bC"><path d=" M 492 33.682 C 492 26.406 482.37 20.5 470.49 20.5 L 63.492 20.5 C 51.63 20.5 42 26.406 42 33.682 L 42 283.318 C 42 290.594 51.63 296.5 63.492 296.5 L 470.49 296.5 C 482.37 296.5 492 290.594 492 283.318 L 492 33.682 Z " fill-rule="evenodd" fill="rgb(236,240,247)" mask="url(#_mask_b8BgTxe3aJIFOVNwSX6sCJOpJfFCgjcZ)" vector-effect="non-scaling-stroke" stroke-width="2.627" stroke="rgb(0,0,0)" stroke-linejoin="round" stroke-linecap="butt" stroke-miterlimit="1.414"/><path d=" M 492 33.682 C 492 26.406 482.37 20.5 470.49 20.5 L 63.492 20.5 C 51.63 20.5 42 26.406 42 33.682 L 42 283.318 C 42 290.594 51.63 296.5 63.492 296.5 L 470.49 296.5 C 482.37 296.5 492 290.594 492 283.318 L 492 33.682 Z " fill-rule="evenodd" fill="rgb(236,240,247)"/></clipPath><g clip-path="url(#_clipPath_SDh50iwzlh8zVa1IR0YDUc828sd9j0bC)"><path d=" M 98 30.718 C 98 23.278 96.802 17.238 95.323 17.238 L 44.675 17.238 C 43.198 17.238 42 23.278 42 30.718 L 42 286.019 C 42 293.46 43.198 299.5 44.675 299.5 L 95.323 299.5 C 96.802 299.5 98 293.46 98 286.019 L 98 30.718 Z " fill-rule="evenodd" fill="rgb(6,129,248)"/><clipPath id="_clipPath_EBxeSyMbVnp2vF7hJ18LtvA53t41XNgA"><path d=" M 98 30.718 C 98 23.278 96.802 17.238 95.323 17.238 L 44.675 17.238 C 43.198 17.238 42 23.278 42 30.718 L 42 286.019 C 42 293.46 43.198 299.5 44.675 299.5 L 95.323 299.5 C 96.802 299.5 98 293.46 98 286.019 L 98 30.718 Z " fill-rule="evenodd" fill="rgb(6,129,248)"/></clipPath><g clip-path="url(#_clipPath_EBxeSyMbVnp2vF7hJ18LtvA53t41XNgA)"><path d=" M 95 87.169 C 95 86.8 93.951 86.5 92.658 86.5 L 48.34 86.5 C 47.049 86.5 46 86.8 46 87.169 L 46 99.831 C 46 100.2 47.049 100.5 48.34 100.5 L 92.658 100.5 C 93.951 100.5 95 100.2 95 99.831 L 95 87.169 Z " fill-rule="evenodd" fill="rgb(70,153,236)"/><path d=" M 95 189.169 C 95 188.8 93.951 188.5 92.658 188.5 L 48.34 188.5 C 47.049 188.5 46 188.8 46 189.169 L 46 201.831 C 46 202.2 47.049 202.5 48.34 202.5 L 92.658 202.5 C 93.951 202.5 95 202.2 95 201.831 L 95 189.169 Z " fill-rule="evenodd" fill="rgb(70,153,236)"/><path d=" M 95 168.169 C 95 167.8 93.951 167.5 92.658 167.5 L 48.34 167.5 C 47.049 167.5 46 167.8 46 168.169 L 46 180.831 C 46 181.2 47.049 181.5 48.34 181.5 L 92.658 181.5 C 93.951 181.5 95 181.2 95 180.831 L 95 168.169 Z " fill-rule="evenodd" fill="rgb(70,153,236)"/><path d=" M 95 149.169 C 95 148.8 93.951 148.5 92.658 148.5 L 48.34 148.5 C 47.049 148.5 46 148.8 46 149.169 L 46 161.831 C 46 162.2 47.049 162.5 48.34 162.5 L 92.658 162.5 C 93.951 162.5 95 162.2 95 161.831 L 95 149.169 Z " fill-rule="evenodd" fill="rgb(70,153,236)"/><path d=" M 95 129.169 C 95 128.8 93.951 128.5 92.658 128.5 L 48.34 128.5 C 47.049 128.5 46 128.8 46 129.169 L 46 141.831 C 46 142.2 47.049 142.5 48.34 142.5 L 92.658 142.5 C 93.951 142.5 95 142.2 95 141.831 L 95 129.169 Z " fill-rule="evenodd" fill="rgb(70,153,236)"/><path d=" M 95 108.169 C 95 107.8 93.951 107.5 92.658 107.5 L 48.34 107.5 C 47.049 107.5 46 107.8 46 108.169 L 46 120.831 C 46 121.2 47.049 121.5 48.34 121.5 L 92.658 121.5 C 93.951 121.5 95 121.2 95 120.831 L 95 108.169 Z " fill-rule="evenodd" fill="rgb(70,153,236)"/><path d=" M 290.609 80.801 C 290.609 77.875 286.701 75.5 281.88 75.5 L 116.721 75.5 C 111.908 75.5 108 77.875 108 80.801 L 108 181.199 C 108 184.125 111.908 186.5 116.721 186.5 L 281.88 186.5 C 286.701 186.5 290.609 184.125 290.609 181.199 L 290.609 80.801 Z " fill-rule="evenodd" fill="rgb(255,255,255)"/><clipPath id="_clipPath_dKy1UnhL5hJXRo6Ae15qBfbPgyknTZIT"><path d=" M 290.609 80.801 C 290.609 77.875 286.701 75.5 281.88 75.5 L 116.721 75.5 C 111.908 75.5 108 77.875 108 80.801 L 108 181.199 C 108 184.125 111.908 186.5 116.721 186.5 L 281.88 186.5 C 286.701 186.5 290.609 184.125 290.609 181.199 L 290.609 80.801 Z " fill-rule="evenodd" fill="rgb(255,255,255)"/></clipPath><g clip-path="url(#_clipPath_dKy1UnhL5hJXRo6Ae15qBfbPgyknTZIT)"><path d=" M 139 85.984 C 139 84.613 138.636 83.5 138.187 83.5 L 122.812 83.5 C 122.364 83.5 122 84.613 122 85.984 L 122 133.016 C 122 134.387 122.364 135.5 122.812 135.5 L 138.187 135.5 C 138.636 135.5 139 134.387 139 133.016 L 139 85.984 Z " fill-rule="evenodd" fill="rgb(21,142,39)"/><path d=" M 160 139.076 C 160 138.206 159.636 137.5 159.187 137.5 L 143.812 137.5 C 143.364 137.5 143 138.206 143 139.076 L 143 168.924 C 143 169.794 143.364 170.5 143.812 170.5 L 159.187 170.5 C 159.636 170.5 160 169.794 160 168.924 L 160 139.076 Z " fill-rule="evenodd" fill="rgb(240,17,17)"/><path d=" M 184 99.267 C 184 98.292 183.636 97.5 183.187 97.5 L 167.812 97.5 C 167.364 97.5 167 98.292 167 99.267 L 167 132.733 C 167 133.708 167.364 134.5 167.812 134.5 L 183.187 134.5 C 183.636 134.5 184 133.708 184 132.733 L 184 99.267 Z " fill-rule="evenodd" fill="rgb(21,142,39)"/><path d=" M 209 114.503 C 209 113.949 208.636 113.5 208.187 113.5 L 192.812 113.5 C 192.364 113.5 192 113.949 192 114.503 L 192 133.497 C 192 134.051 192.364 134.5 192.812 134.5 L 208.187 134.5 C 208.636 134.5 209 134.051 209 133.497 L 209 114.503 Z " fill-rule="evenodd" fill="rgb(21,142,39)"/><path d=" M 231 135.837 C 231 135.099 230.636 134.5 230.187 134.5 L 214.812 134.5 C 214.364 134.5 214 135.099 214 135.837 L 214 161.163 C 214 161.901 214.364 162.5 214.812 162.5 L 230.187 162.5 C 230.636 162.5 231 161.901 231 161.163 L 231 135.837 Z " fill-rule="evenodd" fill="rgb(240,17,17)"/><path d=" M 258 82.127 C 258 80.677 257.636 79.5 257.187 79.5 L 241.812 79.5 C 241.364 79.5 241 80.677 241 82.127 L 241 131.873 C 241 133.323 241.364 134.5 241.812 134.5 L 257.187 134.5 C 257.636 134.5 258 133.323 258 131.873 L 258 82.127 Z " fill-rule="evenodd" fill="rgb(21,142,39)"/><path d=" M 285 136.267 C 285 135.292 284.636 134.5 284.187 134.5 L 268.812 134.5 C 268.364 134.5 268 135.292 268 136.267 L 268 169.733 C 268 170.708 268.364 171.5 268.812 171.5 L 284.187 171.5 C 284.636 171.5 285 170.708 285 169.733 L 285 136.267 Z " fill-rule="evenodd" fill="rgb(240,17,17)"/></g></g><path d=" M 454 57.271 C 454 51.05 446.938 46 438.226 46 L 139.76 46 C 131.062 46 124 51.05 124 57.271 L 124 270.729 C 124 276.95 131.062 282 139.76 282 L 438.226 282 C 446.938 282 454 276.95 454 270.729 L 454 57.271 Z " fill-rule="evenodd" fill="rgb(255,255,255)"/><clipPath id="_clipPath_10ggEqRaNTpfZwS6y6TdQkPqQVHBFVEM"><path d=" M 454 57.271 C 454 51.05 446.938 46 438.226 46 L 139.76 46 C 131.062 46 124 51.05 124 57.271 L 124 270.729 C 124 276.95 131.062 282 139.76 282 L 438.226 282 C 446.938 282 454 276.95 454 270.729 L 454 57.271 Z " fill-rule="evenodd" fill="rgb(255,255,255)"/></clipPath><g clip-path="url(#_clipPath_10ggEqRaNTpfZwS6y6TdQkPqQVHBFVEM)"><path d=" M 456 79.096 C 456 79.043 448.853 79 440.035 79 L 137.952 79 C 129.147 79 122 79.043 122 79.096 L 122 80.904 C 122 80.957 129.147 81 137.952 81 L 440.035 81 C 448.853 81 456 80.957 456 80.904 L 456 79.096 Z " fill-rule="evenodd" fill="rgb(0,0,0)"/><path d=" M 456 121.048 C 456 121.021 448.853 121 440.035 121 L 137.952 121 C 129.147 121 122 121.021 122 121.048 L 122 121.952 C 122 121.979 129.147 122 137.952 122 L 440.035 122 C 448.853 122 456 121.979 456 121.952 L 456 121.048 Z " fill-rule="evenodd" fill="rgb(0,0,0)"/><path d=" M 456 158.548 C 456 158.521 448.853 158.5 440.035 158.5 L 137.952 158.5 C 129.147 158.5 122 158.521 122 158.548 L 122 159.452 C 122 159.479 129.147 159.5 137.952 159.5 L 440.035 159.5 C 448.853 159.5 456 159.479 456 159.452 L 456 158.548 Z " fill-rule="evenodd" fill="rgb(0,0,0)"/><path d=" M 456 199.048 C 456 199.021 448.853 199 440.035 199 L 137.952 199 C 129.147 199 122 199.021 122 199.048 L 122 199.952 C 122 199.979 129.147 200 137.952 200 L 440.035 200 C 448.853 200 456 199.979 456 199.952 L 456 199.048 Z " fill-rule="evenodd" fill="rgb(0,0,0)"/><path d=" M 456 240.048 C 456 240.021 448.853 240 440.035 240 L 137.952 240 C 129.147 240 122 240.021 122 240.048 L 122 240.952 C 122 240.979 129.147 241 137.952 241 L 440.035 241 C 448.853 241 456 240.979 456 240.952 L 456 240.048 Z " fill-rule="evenodd" fill="rgb(0,0,0)"/><path d=" M 174.057 79 C 174.03 79 173.987 86.147 173.959 94.965 L 173.021 397.047 C 172.994 405.851 172.993 412.998 173.019 412.998 L 173.924 413.001 C 173.95 413.001 173.994 405.854 174.021 397.05 L 174.959 94.968 C 174.987 86.15 174.987 79.003 174.961 79.003 L 174.057 79 Z " fill-rule="evenodd" fill="rgb(0,0,0)"/><path d=" M 224.076 79 C 224.05 79 224.006 86.147 223.979 94.965 L 223.041 397.047 C 223.013 405.851 223.013 412.998 223.039 412.998 L 223.943 413.001 C 223.97 413.001 224.013 405.854 224.041 397.05 L 224.979 94.968 C 225.006 86.15 225.007 79.003 224.981 79.003 L 224.076 79 Z " fill-rule="evenodd" fill="rgb(0,0,0)"/><path d=" M 272.057 80 C 272.03 80 271.987 87.147 271.959 95.965 L 271.021 398.047 C 270.994 406.851 270.993 413.998 271.019 413.998 L 271.924 414.001 C 271.95 414.001 271.994 406.854 272.021 398.05 L 272.959 95.968 C 272.987 87.15 272.987 80.003 272.961 80.003 L 272.057 80 Z " fill-rule="evenodd" fill="rgb(0,0,0)"/><path d=" M 319.057 79 C 319.03 79 318.987 86.147 318.959 94.965 L 318.021 397.047 C 317.994 405.851 317.993 412.998 318.019 412.998 L 318.924 413.001 C 318.95 413.001 318.994 405.854 319.021 397.05 L 319.959 94.968 C 319.987 86.15 319.987 79.003 319.961 79.003 L 319.057 79 Z " fill-rule="evenodd" fill="rgb(0,0,0)"/><path d=" M 368.076 79 C 368.05 79 368.006 86.147 367.979 94.965 L 367.041 397.047 C 367.013 405.851 367.013 412.998 367.039 412.998 L 367.943 413.001 C 367.97 413.001 368.013 405.854 368.041 397.05 L 368.979 94.968 C 369.006 86.15 369.007 79.003 368.981 79.003 L 368.076 79 Z " fill-rule="evenodd" fill="rgb(0,0,0)"/><path d=" M 413.057 80 C 413.03 80 412.987 87.147 412.959 95.965 L 412.021 398.047 C 411.994 406.851 411.993 413.998 412.019 413.998 L 412.924 414.001 C 412.95 414.001 412.994 406.854 413.021 398.05 L 413.959 95.968 C 413.987 87.15 413.987 80.003 413.961 80.003 L 413.057 80 Z " fill-rule="evenodd" fill="rgb(0,0,0)"/></g></g><path d=" M 492 33.682 C 492 26.406 482.37 20.5 470.49 20.5 L 63.492 20.5 C 51.63 20.5 42 26.406 42 33.682 L 42 283.318 C 42 290.594 51.63 296.5 63.492 296.5 L 470.49 296.5 C 482.37 296.5 492 290.594 492 283.318 L 492 33.682 Z " fill-rule="evenodd" fill="transparent" mask="url(#_mask_b8BgTxe3aJIFOVNwSX6sCJOpJfFCgjcZ)" vector-effect="non-scaling-stroke" stroke-width="2.627" stroke="rgb(0,0,0)" stroke-linejoin="round" stroke-linecap="butt" stroke-miterlimit="1.414"/><text transform="matrix(1,0,0,1,260.7,72.86)" style="font-family:'Old Standard TT';font-weight:400;font-size:30px;font-style:normal;fill:#000000;stroke:none;">2020</text></g></g></svg>