<?xml version="1.0" encoding="UTF-8" standalone="no"?><!-- Generator: Gravit.io --><svg xmlns="http://www.w3.org/2000/svg" xmlns:xlink="http://www.w3.org/1999/xlink" style="isolation:isolate" viewBox="0 0 517.996 317" width="517.996pt" height="317pt"><defs><clipPath id="_clipPath_Yya9ZDwF0WScNIGHWRFPaJkxcGHiHZyz"><rect width="517.996" height="317"/></clipPath></defs><g clip-path="url(#_clipPath_Yya9ZDwF0WScNIGHWRFPaJkxcGHiHZyz)"><g style="isolation:isolate"><mask id="_mask_lApzQIT99cvkJQzVyEBvJifcJTNmJVVu" x="-200%" y="-200%" width="400%" height="400%"><rect x="-200%" y="-200%" width="400%" height="400%" style="fill:white;"/><path d=" M 492 33.682 C 492 26.406 482.37 20.5 470.49 20.5 L 63.492 20.5 C 51.63 20.5 42 26.406 42 33.682 L 42 283.318 C 42 290.594 51.63 296.5 63.492 296.5 L 470.49 296.5 C 482.37 296.5 492 290.594 492 283.318 L 492 33.682 Z " fill-rule="evenodd" fill="black" stroke="none"/></mask><path d=" M 492 33.682 C 492 26.406 482.37 20.5 470.49 20.5 L 63.492 20.5 C 51.63 20.5 42 26.406 42 33.682 L 42 283.318 C 42 290.594 51.63 296.5 63.492 296.5 L 470.49 296.5 C 482.37 296.5 492 290.594 492 283.318 L 492 33.682 Z " fill-rule="evenodd" fill="rgb(236,240,247)" mask="url(#_mask_lApzQIT99cvkJQzVyEBvJifcJTNmJVVu)" vector-effect="non-scaling-stroke" stroke-width="2.627" stroke="rgb(0,0,0)" stroke-linejoin="round" stroke-linecap="butt" stroke-miterlimit="1.414"/><path d=" M 492 33.682 C 492 26.406 482.37 20.5 470.49 20.5 L 63.492 20.5 C 51.63 20.5 42 26.406 42 33.682 L 42 283.318 C 42 290.594 51.63 296.5 63.492 296.5 L 470.49 296.5 C 482.37 296.5 492 290.594 492 283.318 L 492 33.682 Z " fill-rule="evenodd" fill="rgb(236,240,247)"/><clipPath id="_clipPath_vQSIv46ztj5lH2QghukjSDtfzPXiwJk1"><path d=" M 492 33.682 C 492 26.406 482.37 20.5 470.49 20.5 L 63.492 20.5 C 51.63 20.5 42 26.406 42 33.682 L 42 283.318 C 42 290.594 51.63 296.5 63.492 296.5 L 470.49 296.5 C 482.37 296.5 492 290.594 492 283.318 L 492 33.682 Z " fill-rule="evenodd" fill="rgb(236,240,247)" mask="url(#_mask_lApzQIT99cvkJQzVyEBvJifcJTNmJVVu)" vector-effect="non-scaling-stroke" stroke-width="2.627" stroke="rgb(0,0,0)" stroke-linejoin="round" stroke-linecap="butt" stroke-miterlimit="1.414"/><path d=" M 492 33.682 C 492 26.406 482.37 20.5 470.49 20.5 L 63.492 20.5 C 51.63 20.5 42 26.406 42 33.682 L 42 283.318 C 42 290.594 51.63 296.5 63.492 296.5 L 470.49 296.5 C 482.37 296.5 492 290.594 492 283.318 L 492 33.682 Z " fill-rule="evenodd" fill="rgb(236,240,247)"/></clipPath><g clip-path="url(#_clipPath_vQSIv46ztj5lH2QghukjSDtfzPXiwJk1)"><path d=" M 98 30.718 C 98 23.278 96.802 17.238 95.323 17.238 L 44.675 17.238 C 43.198 17.238 42 23.278 42 30.718 L 42 286.019 C 42 293.46 43.198 299.5 44.675 299.5 L 95.323 299.5 C 96.802 299.5 98 293.46 98 286.019 L 98 30.718 Z " fill-rule="evenodd" fill="rgb(6,129,248)"/><clipPath id="_clipPath_pNCuIMsh20qZaLSHgbOiaQ2dTVikz6Pt"><path d=" M 98 30.718 C 98 23.278 96.802 17.238 95.323 17.238 L 44.675 17.238 C 43.198 17.238 42 23.278 42 30.718 L 42 286.019 C 42 293.46 43.198 299.5 44.675 299.5 L 95.323 299.5 C 96.802 299.5 98 293.46 98 286.019 L 98 30.718 Z " fill-rule="evenodd" fill="rgb(6,129,248)"/></clipPath><g clip-path="url(#_clipPath_pNCuIMsh20qZaLSHgbOiaQ2dTVikz6Pt)"><path d=" M 95 87.169 C 95 86.8 93.951 86.5 92.658 86.5 L 48.34 86.5 C 47.049 86.5 46 86.8 46 87.169 L 46 99.831 C 46 100.2 47.049 100.5 48.34 100.5 L 92.658 100.5 C 93.951 100.5 95 100.2 95 99.831 L 95 87.169 Z " fill-rule="evenodd" fill="rgb(70,153,236)"/><path d=" M 95 189.169 C 95 188.8 93.951 188.5 92.658 188.5 L 48.34 188.5 C 47.049 188.5 46 188.8 46 189.169 L 46 201.831 C 46 202.2 47.049 202.5 48.34 202.5 L 92.658 202.5 C 93.951 202.5 95 202.2 95 201.831 L 95 189.169 Z " fill-rule="evenodd" fill="rgb(70,153,236)"/><path d=" M 95 168.169 C 95 167.8 93.951 167.5 92.658 167.5 L 48.34 167.5 C 47.049 167.5 46 167.8 46 168.169 L 46 180.831 C 46 181.2 47.049 181.5 48.34 181.5 L 92.658 181.5 C 93.951 181.5 95 181.2 95 180.831 L 95 168.169 Z " fill-rule="evenodd" fill="rgb(70,153,236)"/><path d=" M 95 149.169 C 95 148.8 93.951 148.5 92.658 148.5 L 48.34 148.5 C 47.049 148.5 46 148.8 46 149.169 L 46 161.831 C 46 162.2 47.049 162.5 48.34 162.5 L 92.658 162.5 C 93.951 162.5 95 162.2 95 161.831 L 95 149.169 Z " fill-rule="evenodd" fill="rgb(70,153,236)"/><path d=" M 95 129.169 C 95 128.8 93.951 128.5 92.658 128.5 L 48.34 128.5 C 47.049 128.5 46 128.8 46 129.169 L 46 141.831 C 46 142.2 47.049 142.5 48.34 142.5 L 92.658 142.5 C 93.951 142.5 95 142.2 95 141.831 L 95 129.169 Z " fill-rule="evenodd" fill="rgb(70,153,236)"/><path d=" M 95 108.169 C 95 107.8 93.951 107.5 92.658 107.5 L 48.34 107.5 C 47.049 107.5 46 107.8 46 108.169 L 46 120.831 C 46 121.2 47.049 121.5 48.34 121.5 L 92.658 121.5 C 93.951 121.5 95 121.2 95 120.831 L 95 108.169 Z " fill-rule="evenodd" fill="rgb(70,153,236)"/><path d=" M 290.609 80.801 C 290.609 77.875 286.701 75.5 281.88 75.5 L 116.721 75.5 C 111.908 75.5 108 77.875 108 80.801 L 108 181.199 C 108 184.125 111.908 186.5 116.721 186.5 L 281.88 186.5 C 286.701 186.5 290.609 184.125 290.609 181.199 L 290.609 80.801 Z " fill-rule="evenodd" fill="rgb(255,255,255)"/><clipPath id="_clipPath_SIv5L7DSY5khPZyFwUfzu97F4DT0PIS5"><path d=" M 290.609 80.801 C 290.609 77.875 286.701 75.5 281.88 75.5 L 116.721 75.5 C 111.908 75.5 108 77.875 108 80.801 L 108 181.199 C 108 184.125 111.908 186.5 116.721 186.5 L 281.88 186.5 C 286.701 186.5 290.609 184.125 290.609 181.199 L 290.609 80.801 Z " fill-rule="evenodd" fill="rgb(255,255,255)"/></clipPath><g clip-path="url(#_clipPath_SIv5L7DSY5khPZyFwUfzu97F4DT0PIS5)"><path d=" M 139 85.984 C 139 84.613 138.636 83.5 138.187 83.5 L 122.812 83.5 C 122.364 83.5 122 84.613 122 85.984 L 122 133.016 C 122 134.387 122.364 135.5 122.812 135.5 L 138.187 135.5 C 138.636 135.5 139 134.387 139 133.016 L 139 85.984 Z " fill-rule="evenodd" fill="rgb(21,142,39)"/><path d=" M 160 139.076 C 160 138.206 159.636 137.5 159.187 137.5 L 143.812 137.5 C 143.364 137.5 143 138.206 143 139.076 L 143 168.924 C 143 169.794 143.364 170.5 143.812 170.5 L 159.187 170.5 C 159.636 170.5 160 169.794 160 168.924 L 160 139.076 Z " fill-rule="evenodd" fill="rgb(240,17,17)"/><path d=" M 184 99.267 C 184 98.292 183.636 97.5 183.187 97.5 L 167.812 97.5 C 167.364 97.5 167 98.292 167 99.267 L 167 132.733 C 167 133.708 167.364 134.5 167.812 134.5 L 183.187 134.5 C 183.636 134.5 184 133.708 184 132.733 L 184 99.267 Z " fill-rule="evenodd" fill="rgb(21,142,39)"/><path d=" M 209 114.503 C 209 113.949 208.636 113.5 208.187 113.5 L 192.812 113.5 C 192.364 113.5 192 113.949 192 114.503 L 192 133.497 C 192 134.051 192.364 134.5 192.812 134.5 L 208.187 134.5 C 208.636 134.5 209 134.051 209 133.497 L 209 114.503 Z " fill-rule="evenodd" fill="rgb(21,142,39)"/><path d=" M 231 135.837 C 231 135.099 230.636 134.5 230.187 134.5 L 214.812 134.5 C 214.364 134.5 214 135.099 214 135.837 L 214 161.163 C 214 161.901 214.364 162.5 214.812 162.5 L 230.187 162.5 C 230.636 162.5 231 161.901 231 161.163 L 231 135.837 Z " fill-rule="evenodd" fill="rgb(240,17,17)"/><path d=" M 258 82.127 C 258 80.677 257.636 79.5 257.187 79.5 L 241.812 79.5 C 241.364 79.5 241 80.677 241 82.127 L 241 131.873 C 241 133.323 241.364 134.5 241.812 134.5 L 257.187 134.5 C 257.636 134.5 258 133.323 258 131.873 L 258 82.127 Z " fill-rule="evenodd" fill="rgb(21,142,39)"/><path d=" M 285 136.267 C 285 135.292 284.636 134.5 284.187 134.5 L 268.812 134.5 C 268.364 134.5 268 135.292 268 136.267 L 268 169.733 C 268 170.708 268.364 171.5 268.812 171.5 L 284.187 171.5 C 284.636 171.5 285 170.708 285 169.733 L 285 136.267 Z " fill-rule="evenodd" fill="rgb(240,17,17)"/></g></g><path d=" M 220.098 91.767 C 220.098 90.792 217.913 90 215.218 90 L 122.876 90 C 120.185 90 118 90.792 118 91.767 L 118 125.233 C 118 126.208 120.185 127 122.876 127 L 215.218 127 C 217.913 127 220.098 126.208 220.098 125.233 L 220.098 91.767 Z " fill-rule="evenodd" fill="rgb(242,235,171)"/><path d=" M 342.098 91.767 C 342.098 90.792 339.913 90 337.218 90 L 244.876 90 C 242.185 90 240 90.792 240 91.767 L 240 125.233 C 240 126.208 242.185 127 244.876 127 L 337.218 127 C 339.913 127 342.098 126.208 342.098 125.233 L 342.098 91.767 Z " fill-rule="evenodd" fill="rgb(149,208,145)"/><path d=" M 464 91.767 C 464 90.792 461.815 90 459.12 90 L 366.778 90 C 364.087 90 361.902 90.792 361.902 91.767 L 361.902 125.233 C 361.902 126.208 364.087 127 366.778 127 L 459.12 127 C 461.815 127 464 126.208 464 125.233 L 464 91.767 Z " fill-rule="evenodd" fill="rgb(232,133,133)"/></g><path d=" M 492 33.682 C 492 26.406 482.37 20.5 470.49 20.5 L 63.492 20.5 C 51.63 20.5 42 26.406 42 33.682 L 42 283.318 C 42 290.594 51.63 296.5 63.492 296.5 L 470.49 296.5 C 482.37 296.5 492 290.594 492 283.318 L 492 33.682 Z " fill-rule="evenodd" fill="transparent" mask="url(#_mask_lApzQIT99cvkJQzVyEBvJifcJTNmJVVu)" vector-effect="non-scaling-stroke" stroke-width="2.627" stroke="rgb(0,0,0)" stroke-linejoin="round" stroke-linecap="butt" stroke-miterlimit="1.414"/><path d=" M 282.098 141.767 C 282.098 140.792 279.913 140 277.218 140 L 184.876 140 C 182.185 140 180 140.792 180 141.767 L 180 175.233 C 180 176.208 182.185 177 184.876 177 L 277.218 177 C 279.913 177 282.098 176.208 282.098 175.233 L 282.098 141.767 Z " fill-rule="evenodd" fill="rgb(171,192,242)"/><path d=" M 406.098 141.767 C 406.098 140.792 403.913 140 401.218 140 L 308.876 140 C 306.185 140 304 140.792 304 141.767 L 304 175.233 C 304 176.208 306.185 177 308.876 177 L 401.218 177 C 403.913 177 406.098 176.208 406.098 175.233 L 406.098 141.767 Z " fill-rule="evenodd" fill="rgb(242,171,217)"/></g></g></svg>