<?xml version="1.0" encoding="UTF-8" standalone="no"?><!-- Generator: Gravit.io --><svg xmlns="http://www.w3.org/2000/svg" xmlns:xlink="http://www.w3.org/1999/xlink" style="isolation:isolate" viewBox="0 0 517.996 317" width="517.996pt" height="317pt"><defs><clipPath id="_clipPath_g38QQOUqCOqkmUXdeFlp3rHGZXNhnZ3B"><rect width="517.996" height="317"/></clipPath></defs><g clip-path="url(#_clipPath_g38QQOUqCOqkmUXdeFlp3rHGZXNhnZ3B)"><g style="isolation:isolate"><mask id="_mask_vKQvKEaYbqDncLipnZn09c3gIS2puo8z" x="-200%" y="-200%" width="400%" height="400%"><rect x="-200%" y="-200%" width="400%" height="400%" style="fill:white;"/><path d=" M 492 33.682 C 492 26.406 482.37 20.5 470.49 20.5 L 63.492 20.5 C 51.63 20.5 42 26.406 42 33.682 L 42 283.318 C 42 290.594 51.63 296.5 63.492 296.5 L 470.49 296.5 C 482.37 296.5 492 290.594 492 283.318 L 492 33.682 Z " fill-rule="evenodd" fill="black" stroke="none"/></mask><path d=" M 492 33.682 C 492 26.406 482.37 20.5 470.49 20.5 L 63.492 20.5 C 51.63 20.5 42 26.406 42 33.682 L 42 283.318 C 42 290.594 51.63 296.5 63.492 296.5 L 470.49 296.5 C 482.37 296.5 492 290.594 492 283.318 L 492 33.682 Z " fill-rule="evenodd" fill="rgb(236,240,247)" mask="url(#_mask_vKQvKEaYbqDncLipnZn09c3gIS2puo8z)" vector-effect="non-scaling-stroke" stroke-width="2.627" stroke="rgb(0,0,0)" stroke-linejoin="round" stroke-linecap="butt" stroke-miterlimit="1.414"/><path d=" M 492 33.682 C 492 26.406 482.37 20.5 470.49 20.5 L 63.492 20.5 C 51.63 20.5 42 26.406 42 33.682 L 42 283.318 C 42 290.594 51.63 296.5 63.492 296.5 L 470.49 296.5 C 482.37 296.5 492 290.594 492 283.318 L 492 33.682 Z " fill-rule="evenodd" fill="rgb(236,240,247)"/><clipPath id="_clipPath_lDXOWycnqmkUKlSe34PnQ3gbToLAaexC"><path d=" M 492 33.682 C 492 26.406 482.37 20.5 470.49 20.5 L 63.492 20.5 C 51.63 20.5 42 26.406 42 33.682 L 42 283.318 C 42 290.594 51.63 296.5 63.492 296.5 L 470.49 296.5 C 482.37 296.5 492 290.594 492 283.318 L 492 33.682 Z " fill-rule="evenodd" fill="rgb(236,240,247)" mask="url(#_mask_vKQvKEaYbqDncLipnZn09c3gIS2puo8z)" vector-effect="non-scaling-stroke" stroke-width="2.627" stroke="rgb(0,0,0)" stroke-linejoin="round" stroke-linecap="butt" stroke-miterlimit="1.414"/><path d=" M 492 33.682 C 492 26.406 482.37 20.5 470.49 20.5 L 63.492 20.5 C 51.63 20.5 42 26.406 42 33.682 L 42 283.318 C 42 290.594 51.63 296.5 63.492 296.5 L 470.49 296.5 C 482.37 296.5 492 290.594 492 283.318 L 492 33.682 Z " fill-rule="evenodd" fill="rgb(236,240,247)"/></clipPath><g clip-path="url(#_clipPath_lDXOWycnqmkUKlSe34PnQ3gbToLAaexC)"><path d=" M 98 30.718 C 98 23.278 96.802 17.238 95.323 17.238 L 44.675 17.238 C 43.198 17.238 42 23.278 42 30.718 L 42 286.019 C 42 293.46 43.198 299.5 44.675 299.5 L 95.323 299.5 C 96.802 299.5 98 293.46 98 286.019 L 98 30.718 Z " fill-rule="evenodd" fill="rgb(6,129,248)"/><path d=" M 95 87.169 C 95 86.8 93.951 86.5 92.658 86.5 L 48.34 86.5 C 47.049 86.5 46 86.8 46 87.169 L 46 99.831 C 46 100.2 47.049 100.5 48.34 100.5 L 92.658 100.5 C 93.951 100.5 95 100.2 95 99.831 L 95 87.169 Z " fill-rule="evenodd" fill="rgb(70,153,236)"/><path d=" M 95 189.169 C 95 188.8 93.951 188.5 92.658 188.5 L 48.34 188.5 C 47.049 188.5 46 188.8 46 189.169 L 46 201.831 C 46 202.2 47.049 202.5 48.34 202.5 L 92.658 202.5 C 93.951 202.5 95 202.2 95 201.831 L 95 189.169 Z " fill-rule="evenodd" fill="rgb(70,153,236)"/><path d=" M 95 168.169 C 95 167.8 93.951 167.5 92.658 167.5 L 48.34 167.5 C 47.049 167.5 46 167.8 46 168.169 L 46 180.831 C 46 181.2 47.049 181.5 48.34 181.5 L 92.658 181.5 C 93.951 181.5 95 181.2 95 180.831 L 95 168.169 Z " fill-rule="evenodd" fill="rgb(70,153,236)"/><path d=" M 95 149.169 C 95 148.8 93.951 148.5 92.658 148.5 L 48.34 148.5 C 47.049 148.5 46 148.8 46 149.169 L 46 161.831 C 46 162.2 47.049 162.5 48.34 162.5 L 92.658 162.5 C 93.951 162.5 95 162.2 95 161.831 L 95 149.169 Z " fill-rule="evenodd" fill="rgb(70,153,236)"/><path d=" M 95 129.169 C 95 128.8 93.951 128.5 92.658 128.5 L 48.34 128.5 C 47.049 128.5 46 128.8 46 129.169 L 46 141.831 C 46 142.2 47.049 142.5 48.34 142.5 L 92.658 142.5 C 93.951 142.5 95 142.2 95 141.831 L 95 129.169 Z " fill-rule="evenodd" fill="rgb(70,153,236)"/><path d=" M 95 108.169 C 95 107.8 93.951 107.5 92.658 107.5 L 48.34 107.5 C 47.049 107.5 46 107.8 46 108.169 L 46 120.831 C 46 121.2 47.049 121.5 48.34 121.5 L 92.658 121.5 C 93.951 121.5 95 121.2 95 120.831 L 95 108.169 Z " fill-rule="evenodd" fill="rgb(70,153,236)"/><path d=" M 290.609 80.801 C 290.609 77.875 286.701 75.5 281.88 75.5 L 116.721 75.5 C 111.908 75.5 108 77.875 108 80.801 L 108 181.199 C 108 184.125 111.908 186.5 116.721 186.5 L 281.88 186.5 C 286.701 186.5 290.609 184.125 290.609 181.199 L 290.609 80.801 Z " fill-rule="evenodd" fill="rgb(255,255,255)"/><clipPath id="_clipPath_8bV2cx06QofFa1zmskdLDJIhGykWPfNg"><path d=" M 290.609 80.801 C 290.609 77.875 286.701 75.5 281.88 75.5 L 116.721 75.5 C 111.908 75.5 108 77.875 108 80.801 L 108 181.199 C 108 184.125 111.908 186.5 116.721 186.5 L 281.88 186.5 C 286.701 186.5 290.609 184.125 290.609 181.199 L 290.609 80.801 Z " fill-rule="evenodd" fill="rgb(255,255,255)"/></clipPath><g clip-path="url(#_clipPath_8bV2cx06QofFa1zmskdLDJIhGykWPfNg)"><path d=" M 139 85.984 C 139 84.613 138.636 83.5 138.187 83.5 L 122.812 83.5 C 122.364 83.5 122 84.613 122 85.984 L 122 133.016 C 122 134.387 122.364 135.5 122.812 135.5 L 138.187 135.5 C 138.636 135.5 139 134.387 139 133.016 L 139 85.984 Z " fill-rule="evenodd" fill="rgb(21,142,39)"/><path d=" M 160 139.076 C 160 138.206 159.636 137.5 159.187 137.5 L 143.812 137.5 C 143.364 137.5 143 138.206 143 139.076 L 143 168.924 C 143 169.794 143.364 170.5 143.812 170.5 L 159.187 170.5 C 159.636 170.5 160 169.794 160 168.924 L 160 139.076 Z " fill-rule="evenodd" fill="rgb(240,17,17)"/><path d=" M 184 99.267 C 184 98.292 183.636 97.5 183.187 97.5 L 167.812 97.5 C 167.364 97.5 167 98.292 167 99.267 L 167 132.733 C 167 133.708 167.364 134.5 167.812 134.5 L 183.187 134.5 C 183.636 134.5 184 133.708 184 132.733 L 184 99.267 Z " fill-rule="evenodd" fill="rgb(21,142,39)"/><path d=" M 209 114.503 C 209 113.949 208.636 113.5 208.187 113.5 L 192.812 113.5 C 192.364 113.5 192 113.949 192 114.503 L 192 133.497 C 192 134.051 192.364 134.5 192.812 134.5 L 208.187 134.5 C 208.636 134.5 209 134.051 209 133.497 L 209 114.503 Z " fill-rule="evenodd" fill="rgb(21,142,39)"/><path d=" M 231 135.837 C 231 135.099 230.636 134.5 230.187 134.5 L 214.812 134.5 C 214.364 134.5 214 135.099 214 135.837 L 214 161.163 C 214 161.901 214.364 162.5 214.812 162.5 L 230.187 162.5 C 230.636 162.5 231 161.901 231 161.163 L 231 135.837 Z " fill-rule="evenodd" fill="rgb(240,17,17)"/><path d=" M 258 82.127 C 258 80.677 257.636 79.5 257.187 79.5 L 241.812 79.5 C 241.364 79.5 241 80.677 241 82.127 L 241 131.873 C 241 133.323 241.364 134.5 241.812 134.5 L 257.187 134.5 C 257.636 134.5 258 133.323 258 131.873 L 258 82.127 Z " fill-rule="evenodd" fill="rgb(21,142,39)"/><path d=" M 285 136.267 C 285 135.292 284.636 134.5 284.187 134.5 L 268.812 134.5 C 268.364 134.5 268 135.292 268 136.267 L 268 169.733 C 268 170.708 268.364 171.5 268.812 171.5 L 284.187 171.5 C 284.636 171.5 285 170.708 285 169.733 L 285 136.267 Z " fill-rule="evenodd" fill="rgb(240,17,17)"/></g><path d=" M 485.609 81.801 C 485.609 78.875 481.701 76.5 476.88 76.5 L 311.721 76.5 C 306.908 76.5 303 78.875 303 81.801 L 303 182.199 C 303 185.125 306.908 187.5 311.721 187.5 L 476.88 187.5 C 481.701 187.5 485.609 185.125 485.609 182.199 L 485.609 81.801 Z " fill-rule="evenodd" fill="rgb(255,255,255)"/><clipPath id="_clipPath_O0z6etFudky1APfwzuDxnYlEHyiQKPKW"><path d=" M 485.609 81.801 C 485.609 78.875 481.701 76.5 476.88 76.5 L 311.721 76.5 C 306.908 76.5 303 78.875 303 81.801 L 303 182.199 C 303 185.125 306.908 187.5 311.721 187.5 L 476.88 187.5 C 481.701 187.5 485.609 185.125 485.609 182.199 L 485.609 81.801 Z " fill-rule="evenodd" fill="rgb(255,255,255)"/></clipPath><g clip-path="url(#_clipPath_O0z6etFudky1APfwzuDxnYlEHyiQKPKW)"><path d=" M 477 88.025 C 477 87.735 473.469 87.5 469.113 87.5 L 319.88 87.5 C 315.531 87.5 312 87.735 312 88.025 L 312 97.975 C 312 98.265 315.531 98.5 319.88 98.5 L 469.113 98.5 C 473.469 98.5 477 98.265 477 97.975 L 477 88.025 Z " fill-rule="evenodd" fill="rgb(237,240,229)"/><path d=" M 477 107.025 C 477 106.735 473.469 106.5 469.113 106.5 L 319.88 106.5 C 315.531 106.5 312 106.735 312 107.025 L 312 116.975 C 312 117.265 315.531 117.5 319.88 117.5 L 469.113 117.5 C 473.469 117.5 477 117.265 477 116.975 L 477 107.025 Z " fill-rule="evenodd" fill="rgb(237,240,229)"/><path d=" M 477 126.025 C 477 125.735 473.469 125.5 469.113 125.5 L 319.88 125.5 C 315.531 125.5 312 125.735 312 126.025 L 312 135.975 C 312 136.265 315.531 136.5 319.88 136.5 L 469.113 136.5 C 473.469 136.5 477 136.265 477 135.975 L 477 126.025 Z " fill-rule="evenodd" fill="rgb(237,240,229)"/><path d=" M 477 145.025 C 477 144.735 473.469 144.5 469.113 144.5 L 319.88 144.5 C 315.531 144.5 312 144.735 312 145.025 L 312 154.975 C 312 155.265 315.531 155.5 319.88 155.5 L 469.113 155.5 C 473.469 155.5 477 155.265 477 154.975 L 477 145.025 Z " fill-rule="evenodd" fill="rgb(237,240,229)"/><path d=" M 477 164.025 C 477 163.735 473.469 163.5 469.113 163.5 L 319.88 163.5 C 315.531 163.5 312 163.735 312 164.025 L 312 173.975 C 312 174.265 315.531 174.5 319.88 174.5 L 469.113 174.5 C 473.469 174.5 477 174.265 477 173.975 L 477 164.025 Z " fill-rule="evenodd" fill="rgb(237,240,229)"/></g><path d=" M 220 212.509 C 220 210.848 217.654 209.5 214.76 209.5 L 115.605 209.5 C 112.716 209.5 110.37 210.848 110.37 212.509 L 110.37 269.491 C 110.37 271.152 112.716 272.5 115.605 272.5 L 214.76 272.5 C 217.654 272.5 220 271.152 220 269.491 L 220 212.509 Z " fill-rule="evenodd" fill="rgb(255,255,255)"/><clipPath id="_clipPath_flDWLusZqCYgUDaWSrVZiAnhzQVteqoT"><path d=" M 220 212.509 C 220 210.848 217.654 209.5 214.76 209.5 L 115.605 209.5 C 112.716 209.5 110.37 210.848 110.37 212.509 L 110.37 269.491 C 110.37 271.152 112.716 272.5 115.605 272.5 L 214.76 272.5 C 217.654 272.5 220 271.152 220 269.491 L 220 212.509 Z " fill-rule="evenodd" fill="rgb(255,255,255)"/></clipPath><g clip-path="url(#_clipPath_flDWLusZqCYgUDaWSrVZiAnhzQVteqoT)"><g><mask id="_mask_o8JzNtrPueZEr24eKzxm5OoX3uPtr0AC" x="-200%" y="-200%" width="400%" height="400%"><rect x="-200%" y="-200%" width="400%" height="400%" style="fill:white;"/><path d=" M 210.789 231.941 C 210.788 232.455 210.514 232.93 210.068 233.187 C 209.623 233.445 209.074 233.444 208.628 233.187 C 208.183 232.93 207.908 232.454 207.908 231.94 C 207.909 231.144 208.554 230.5 209.349 230.5 C 210.144 230.5 210.789 231.145 210.789 231.941 L 210.789 231.941 Z " fill="black" stroke="none"/></mask><path d=" M 210.789 231.941 C 210.788 232.455 210.514 232.93 210.068 233.187 C 209.623 233.445 209.074 233.444 208.628 233.187 C 208.183 232.93 207.908 232.454 207.908 231.94 C 207.909 231.144 208.554 230.5 209.349 230.5 C 210.144 230.5 210.789 231.145 210.789 231.941 L 210.789 231.941 Z " fill="none" mask="url(#_mask_o8JzNtrPueZEr24eKzxm5OoX3uPtr0AC)" vector-effect="non-scaling-stroke" stroke-width="4" stroke="rgb(219,133,9)" stroke-linejoin="miter" stroke-linecap="butt" stroke-miterlimit="4"/><path d=" M 210.789 231.941 C 210.788 232.455 210.514 232.93 210.068 233.187 C 209.623 233.445 209.074 233.444 208.628 233.187 C 208.183 232.93 207.908 232.454 207.908 231.94 C 207.909 231.144 208.554 230.5 209.349 230.5 C 210.144 230.5 210.789 231.145 210.789 231.941 L 210.789 231.941 Z " fill="none"/><path d=" M 201.426 246.534 C 201.426 247.594 200.567 248.454 199.506 248.454 C 198.446 248.454 197.587 247.594 197.587 246.534 C 197.587 245.474 198.446 244.614 199.506 244.614 C 200.567 244.614 201.426 245.474 201.426 246.534 Z " fill="rgb(219,133,9)"/><path d=" M 194.33 236.778 C 195.095 236.012 199.506 235.674 200.524 234.655 C 201.542 233.639 207.652 239.745 206.632 240.765 C 205.615 241.783 205.275 246.195 204.512 246.958 C 203.833 247.638 193.651 237.456 194.33 236.778 L 194.33 236.778 Z " fill="rgb(255,193,7)"/><path d=" M 203.172 244.226 L 208.669 238.727 C 210.356 237.042 210.356 234.307 208.669 232.619 C 206.983 230.932 204.248 230.932 202.56 232.619 L 197.064 238.118 L 203.172 244.226 Z " fill="rgb(255,193,7)"/><path d=" M 204.596 246.873 C 203.471 247.998 200.448 246.796 197.47 243.819 C 194.493 240.842 193.291 237.818 194.416 236.691 C 195.541 235.566 198.565 236.77 201.542 239.745 C 204.52 242.724 205.721 245.748 204.596 246.873 Z " fill="rgb(255,193,7)"/><path d=" M 207.118 231.627 C 206.042 231.579 204.846 232.03 203.749 233.127 L 201.034 235.842 C 200.657 236.191 196.437 237.218 194.013 237.698 C 193.985 238.108 194.066 238.588 194.243 239.121 C 196.289 238.72 201.28 237.632 202.052 236.862 L 204.767 234.145 C 205.748 233.166 206.906 232.13 207.995 232.068 C 207.72 231.889 207.426 231.741 207.118 231.627 L 207.118 231.627 Z " fill="rgb(255,224,130)"/><path d=" M 201.408 246.736 C 200.537 246.326 199.576 245.696 198.591 244.856 C 198.434 244.942 198.282 245.043 198.149 245.177 C 198.046 245.28 197.96 245.393 197.887 245.51 C 198.983 246.459 200.067 247.177 201.072 247.636 C 201.258 247.37 201.374 247.06 201.408 246.736 Z " fill="rgb(188,111,10)"/></g><path d=" M 181 223.025 C 181 222.735 179.609 222.5 177.893 222.5 L 119.104 222.5 C 117.391 222.5 116 222.735 116 223.025 L 116 232.975 C 116 233.265 117.391 233.5 119.104 233.5 L 177.893 233.5 C 179.609 233.5 181 233.265 181 232.975 L 181 223.025 Z " fill-rule="evenodd" fill="rgb(237,240,229)"/><path d=" M 181 243.025 C 181 242.735 179.609 242.5 177.893 242.5 L 119.104 242.5 C 117.391 242.5 116 242.735 116 243.025 L 116 252.975 C 116 253.265 117.391 253.5 119.104 253.5 L 177.893 253.5 C 179.609 253.5 181 253.265 181 252.975 L 181 243.025 Z " fill-rule="evenodd" fill="rgb(237,240,229)"/></g><path d=" M 351 212.509 C 351 210.848 348.654 209.5 345.76 209.5 L 246.605 209.5 C 243.716 209.5 241.37 210.848 241.37 212.509 L 241.37 269.491 C 241.37 271.152 243.716 272.5 246.605 272.5 L 345.76 272.5 C 348.654 272.5 351 271.152 351 269.491 L 351 212.509 Z " fill-rule="evenodd" fill="rgb(255,255,255)"/><clipPath id="_clipPath_xOgIIo6DtD2eEI2EPS9R0Oddw7xntGUM"><path d=" M 351 212.509 C 351 210.848 348.654 209.5 345.76 209.5 L 246.605 209.5 C 243.716 209.5 241.37 210.848 241.37 212.509 L 241.37 269.491 C 241.37 271.152 243.716 272.5 246.605 272.5 L 345.76 272.5 C 348.654 272.5 351 271.152 351 269.491 L 351 212.509 Z " fill-rule="evenodd" fill="rgb(255,255,255)"/></clipPath><g clip-path="url(#_clipPath_xOgIIo6DtD2eEI2EPS9R0Oddw7xntGUM)"><path d=" M 314 223.025 C 314 222.735 312.609 222.5 310.893 222.5 L 252.104 222.5 C 250.391 222.5 249 222.735 249 223.025 L 249 232.975 C 249 233.265 250.391 233.5 252.104 233.5 L 310.893 233.5 C 312.609 233.5 314 233.265 314 232.975 L 314 223.025 Z " fill-rule="evenodd" fill="rgb(237,240,229)"/><path d=" M 314 245.025 C 314 244.735 312.609 244.5 310.893 244.5 L 252.104 244.5 C 250.391 244.5 249 244.735 249 245.025 L 249 254.975 C 249 255.265 250.391 255.5 252.104 255.5 L 310.893 255.5 C 312.609 255.5 314 255.265 314 254.975 L 314 245.025 Z " fill-rule="evenodd" fill="rgb(237,240,229)"/><g><path d=" M 343.534 250.556 L 341.671 250.091 L 339.809 250.556 L 337.946 250.091 L 336.083 250.556 L 334.22 250.091 L 332.357 250.556 L 330.494 250.091 L 328.631 251.022 L 326.769 250.091 L 324.906 250.556 L 323.974 250.091 L 323.974 229.133 L 325.837 229.599 L 327.7 228.668 L 329.563 229.599 L 331.426 228.668 L 333.289 229.599 L 335.151 228.668 L 337.014 229.599 L 338.877 228.668 L 340.74 229.599 L 342.603 228.668 L 343.534 229.133 L 343.534 250.556 Z " fill="rgb(250,239,222)"/><path d=" M 324.44 231.462 C 324.44 231.285 324.54 231.124 324.698 231.045 C 324.856 230.966 325.045 230.983 325.186 231.089 L 325.557 231.369 C 325.744 231.509 325.93 231.509 326.118 231.369 L 327.42 230.391 C 327.607 230.25 327.793 230.25 327.98 230.391 L 329.282 231.369 C 329.47 231.509 329.656 231.509 329.843 231.369 L 331.145 230.391 C 331.333 230.25 331.518 230.25 331.706 230.391 L 333.008 231.369 C 333.196 231.509 333.381 231.509 333.569 231.369 L 334.871 230.391 C 335.059 230.25 335.244 230.25 335.432 230.391 L 336.734 231.369 C 336.922 231.509 337.107 231.509 337.295 231.369 L 338.597 230.391 C 338.784 230.25 338.97 230.25 339.158 230.391 L 340.46 231.369 C 340.647 231.509 340.833 231.509 341.02 231.369 L 342.23 230.437 C 342.418 230.298 342.696 230.298 342.836 230.483 L 342.929 230.578 C 343.021 230.671 343.069 230.763 343.069 230.904 L 344 230.904 C 344 230.531 343.86 229.692 343.582 229.459 L 342.928 228.808 C 342.743 228.62 342.51 228.62 342.323 228.76 L 341.02 229.739 C 340.833 229.879 340.647 229.879 340.46 229.739 L 339.158 228.76 C 338.97 228.621 338.784 228.621 338.597 228.76 L 337.295 229.739 C 337.107 229.879 336.922 229.879 336.734 229.739 L 335.432 228.76 C 335.244 228.621 335.059 228.621 334.871 228.76 L 333.569 229.739 C 333.381 229.879 333.196 229.879 333.008 229.739 L 331.706 228.76 C 331.518 228.621 331.333 228.621 331.145 228.76 L 329.843 229.739 C 329.656 229.879 329.47 229.879 329.282 229.739 L 327.98 228.76 C 327.793 228.621 327.607 228.621 327.42 228.76 L 326.118 229.739 C 325.93 229.879 325.744 229.879 325.557 229.739 L 324.255 228.76 C 324.113 228.654 323.924 228.637 323.766 228.716 C 323.608 228.795 323.508 228.957 323.509 229.133 L 323.509 231.462 L 324.44 231.462 Z " fill="rgb(255,247,240)"/><path d=" M 343.534 250.556 L 341.671 250.091 L 339.809 250.556 L 337.946 250.091 L 336.083 250.556 L 334.22 250.091 L 332.357 250.556 L 330.494 250.091 L 328.631 251.022 L 326.769 250.091 L 324.906 250.556 L 323.974 250.091 L 323.974 247.762 C 323.974 246.97 324.58 246.365 325.371 246.365 L 342.137 246.365 C 342.929 246.365 343.534 246.97 343.534 247.762 L 343.534 250.556 Z " fill="rgb(239,216,190)"/><path d=" M 324.44 245.433 C 324.16 245.433 323.974 245.619 323.974 245.899 L 323.974 246.831 C 323.974 247.111 324.16 247.296 324.44 247.296 C 324.72 247.296 324.906 247.111 324.906 246.831 L 324.906 245.899 C 324.906 245.619 324.72 245.433 324.44 245.433 Z  M 343.069 245.433 C 342.788 245.433 342.603 245.619 342.603 245.899 L 342.603 246.831 C 342.603 247.111 342.788 247.296 343.069 247.296 C 343.349 247.296 343.534 247.111 343.534 246.831 L 343.534 245.899 C 343.534 245.619 343.349 245.433 343.069 245.433 Z " fill="rgb(141,108,159)"/><path d=" M 343.86 228.807 L 342.929 227.876 C 342.743 227.689 342.51 227.689 342.322 227.829 L 340.74 229.04 L 339.158 227.876 C 338.97 227.736 338.784 227.736 338.597 227.876 L 337.014 229.04 L 335.432 227.876 C 335.244 227.736 335.059 227.736 334.871 227.876 L 333.289 229.04 L 331.706 227.876 C 331.518 227.736 331.333 227.736 331.145 227.876 L 329.563 229.04 L 327.98 227.876 C 327.793 227.736 327.607 227.736 327.42 227.876 L 325.837 229.04 L 324.255 227.876 C 324.114 227.784 323.927 227.736 323.789 227.829 C 323.601 227.876 323.509 228.017 323.509 228.202 L 323.509 250.091 C 323.509 250.23 323.556 250.323 323.648 250.417 L 324.58 251.348 C 324.673 251.44 324.766 251.488 324.906 251.488 C 324.999 251.488 325.091 251.44 325.186 251.395 L 326.769 250.23 L 328.351 251.395 C 328.539 251.535 328.724 251.535 328.912 251.395 L 330.494 250.23 L 332.077 251.395 C 332.264 251.535 332.45 251.535 332.638 251.395 L 334.22 250.23 L 335.802 251.395 C 335.99 251.535 336.176 251.535 336.363 251.395 L 337.946 250.23 L 339.528 251.395 C 339.716 251.535 339.901 251.535 340.089 251.395 L 341.671 250.23 L 343.254 251.395 C 343.394 251.488 343.582 251.535 343.72 251.44 C 343.86 251.347 344 251.207 344 251.022 L 344 229.133 C 344 228.994 343.952 228.901 343.86 228.807 Z  M 343.069 250.091 L 341.952 249.252 C 341.764 249.112 341.579 249.112 341.391 249.252 L 339.809 250.463 L 338.226 249.299 C 338.131 249.207 338.038 249.159 337.946 249.159 C 337.853 249.159 337.76 249.207 337.665 249.252 L 336.083 250.463 L 334.5 249.299 C 334.313 249.159 334.127 249.159 333.94 249.299 L 332.357 250.463 L 330.775 249.299 C 330.587 249.159 330.402 249.159 330.214 249.299 L 328.631 250.463 L 327.049 249.299 C 326.861 249.159 326.676 249.159 326.488 249.299 L 324.953 250.463 L 324.44 249.906 L 324.44 229.133 L 325.557 229.972 C 325.744 230.112 325.93 230.112 326.118 229.972 L 327.7 228.761 L 329.282 229.925 C 329.47 230.065 329.656 230.065 329.843 229.925 L 331.426 228.761 L 333.008 229.925 C 333.196 230.065 333.381 230.065 333.569 229.925 L 335.151 228.761 L 336.734 229.925 C 336.922 230.065 337.107 230.065 337.295 229.925 L 338.877 228.761 L 340.46 229.925 C 340.647 230.065 340.833 230.065 341.02 229.925 L 342.555 228.761 L 343.069 229.318 L 343.069 250.091 Z " fill="rgb(141,108,159)"/><path d=" M 326.769 245.433 C 326.488 245.433 326.303 245.619 326.303 245.899 L 326.303 246.831 C 326.303 247.111 326.488 247.296 326.769 247.296 C 327.049 247.296 327.234 247.111 327.234 246.831 L 327.234 245.899 C 327.234 245.619 327.049 245.433 326.769 245.433 Z  M 329.097 245.433 C 328.817 245.433 328.631 245.619 328.631 245.899 L 328.631 246.831 C 328.631 247.111 328.817 247.296 329.097 247.296 C 329.378 247.296 329.563 247.111 329.563 246.831 L 329.563 245.899 C 329.563 245.619 329.378 245.433 329.097 245.433 Z  M 331.426 245.433 C 331.145 245.433 330.96 245.619 330.96 245.899 L 330.96 246.831 C 330.96 247.111 331.145 247.296 331.426 247.296 C 331.706 247.296 331.891 247.111 331.891 246.831 L 331.891 245.899 C 331.891 245.619 331.706 245.433 331.426 245.433 Z  M 333.754 245.433 C 333.474 245.433 333.289 245.619 333.289 245.899 L 333.289 246.831 C 333.289 247.111 333.474 247.296 333.754 247.296 C 334.035 247.296 334.22 247.111 334.22 246.831 L 334.22 245.899 C 334.22 245.619 334.035 245.433 333.754 245.433 Z  M 336.083 245.433 C 335.802 245.433 335.617 245.619 335.617 245.899 L 335.617 246.831 C 335.617 247.111 335.802 247.296 336.083 247.296 C 336.363 247.296 336.549 247.111 336.549 246.831 L 336.549 245.899 C 336.549 245.619 336.363 245.433 336.083 245.433 Z  M 338.411 245.433 C 338.131 245.433 337.946 245.619 337.946 245.899 L 337.946 246.831 C 337.946 247.111 338.131 247.296 338.411 247.296 C 338.692 247.296 338.877 247.111 338.877 246.831 L 338.877 245.899 C 338.877 245.619 338.692 245.433 338.411 245.433 Z  M 340.74 245.433 C 340.46 245.433 340.274 245.619 340.274 245.899 L 340.274 246.831 C 340.274 247.111 340.46 247.296 340.74 247.296 C 341.02 247.296 341.206 247.111 341.206 246.831 L 341.206 245.899 C 341.206 245.619 341.02 245.433 340.74 245.433 Z " fill="rgb(141,108,159)"/><path d=" M 337.014 233.325 L 339.809 233.325 C 340.089 233.325 340.274 233.139 340.274 232.859 C 340.274 232.579 340.089 232.393 339.809 232.393 L 337.014 232.393 C 336.734 232.393 336.549 232.579 336.549 232.859 C 336.549 233.139 336.734 233.325 337.014 233.325 Z  M 335.151 232.393 L 327.7 232.393 C 327.42 232.393 327.234 232.579 327.234 232.859 C 327.234 233.139 327.42 233.325 327.7 233.325 L 335.151 233.325 C 335.432 233.325 335.617 233.139 335.617 232.859 C 335.617 232.579 335.432 232.393 335.151 232.393 Z  M 327.7 235.188 L 332.823 235.188 C 333.103 235.188 333.289 235.002 333.289 234.722 C 333.289 234.442 333.103 234.256 332.823 234.256 L 327.7 234.256 C 327.42 234.256 327.234 234.442 327.234 234.722 C 327.234 235.002 327.42 235.188 327.7 235.188 Z  M 327.7 238.913 L 332.357 238.913 C 332.638 238.913 332.823 238.728 332.823 238.448 C 332.823 238.167 332.638 237.982 332.357 237.982 L 327.7 237.982 C 327.42 237.982 327.234 238.167 327.234 238.448 C 327.234 238.728 327.42 238.913 327.7 238.913 Z " fill="rgb(165,186,198)"/><path d=" M 332.357 241.708 L 331.426 241.708 C 331.145 241.708 330.96 241.893 330.96 242.173 C 330.96 242.454 331.145 242.639 331.426 242.639 L 332.357 242.639 C 332.638 242.639 332.823 242.454 332.823 242.173 C 332.823 241.893 332.638 241.708 332.357 241.708 Z  M 329.563 241.708 L 327.7 241.708 C 327.42 241.708 327.234 241.893 327.234 242.173 C 327.234 242.454 327.42 242.639 327.7 242.639 L 329.563 242.639 C 329.843 242.639 330.029 242.454 330.029 242.173 C 330.029 241.893 329.843 241.708 329.563 241.708 Z " fill="rgb(235,150,151)"/><path d=" M 333.754 239.845 L 327.7 239.845 C 327.42 239.845 327.234 240.03 327.234 240.311 C 327.234 240.591 327.42 240.776 327.7 240.776 L 333.754 240.776 C 334.035 240.776 334.22 240.591 334.22 240.311 C 334.22 240.03 334.035 239.845 333.754 239.845 Z " fill="rgb(165,186,198)"/><path d=" M 340.274 239.845 C 340.274 239.053 339.669 238.448 338.877 238.448 L 337.946 238.448 C 337.665 238.448 337.48 238.262 337.48 237.982 L 337.48 236.585 C 337.48 236.304 337.665 236.119 337.946 236.119 L 338.877 236.119 C 339.158 236.119 339.343 236.304 339.343 236.585 L 339.343 237.051 C 339.343 237.331 339.528 237.516 339.809 237.516 C 340.089 237.516 340.274 237.331 340.274 237.051 L 340.274 236.585 C 340.274 235.793 339.669 235.188 338.877 235.188 L 338.877 234.722 C 338.877 234.442 338.692 234.256 338.411 234.256 C 338.131 234.256 337.946 234.442 337.946 234.722 L 337.946 235.188 C 337.154 235.188 336.549 235.793 336.549 236.585 L 336.549 237.982 C 336.549 238.774 337.154 239.379 337.946 239.379 L 338.877 239.379 C 339.158 239.379 339.343 239.564 339.343 239.845 L 339.343 241.242 C 339.343 241.522 339.158 241.708 338.877 241.708 L 337.946 241.708 C 337.665 241.708 337.48 241.522 337.48 241.242 L 337.48 240.776 C 337.48 240.496 337.295 240.311 337.014 240.311 C 336.734 240.311 336.549 240.496 336.549 240.776 L 336.549 241.242 C 336.549 242.034 337.154 242.639 337.946 242.639 L 337.946 243.105 C 337.946 243.385 338.131 243.571 338.411 243.571 C 338.692 243.571 338.877 243.385 338.877 243.105 L 338.877 242.639 C 339.669 242.639 340.274 242.034 340.274 241.242 L 340.274 239.845 Z " fill="rgb(152,199,124)"/></g></g><path d=" M 482 212.509 C 482 210.848 479.654 209.5 476.76 209.5 L 377.605 209.5 C 374.716 209.5 372.37 210.848 372.37 212.509 L 372.37 269.491 C 372.37 271.152 374.716 272.5 377.605 272.5 L 476.76 272.5 C 479.654 272.5 482 271.152 482 269.491 L 482 212.509 Z " fill-rule="evenodd" fill="rgb(255,255,255)"/><clipPath id="_clipPath_i52zHMRpErQgd73uiw8IaJFFoOI7oYzm"><path d=" M 482 212.509 C 482 210.848 479.654 209.5 476.76 209.5 L 377.605 209.5 C 374.716 209.5 372.37 210.848 372.37 212.509 L 372.37 269.491 C 372.37 271.152 374.716 272.5 377.605 272.5 L 476.76 272.5 C 479.654 272.5 482 271.152 482 269.491 L 482 212.509 Z " fill-rule="evenodd" fill="rgb(255,255,255)"/></clipPath><g clip-path="url(#_clipPath_i52zHMRpErQgd73uiw8IaJFFoOI7oYzm)"><circle vector-effect="non-scaling-stroke" cx="393.5000030211818" cy="242.0000032796446" r="13.499999999998238" fill="rgb(6,129,248)"/><circle vector-effect="non-scaling-stroke" cx="428.5000030211818" cy="242.00000327965188" r="13.499999999998238" fill="rgb(6,129,248)"/><circle vector-effect="non-scaling-stroke" cx="464.50000302117814" cy="242.00000327965188" r="13.499999999998238" fill="rgb(6,129,248)"/></g><text transform="matrix(1,0,0,1,271.904,63.596)" style="font-family:'Oleo Script Swash Caps';font-weight:400;font-size:24px;font-style:normal;fill:#000000;stroke:none;">1200</text></g><path d=" M 492 33.682 C 492 26.406 482.37 20.5 470.49 20.5 L 63.492 20.5 C 51.63 20.5 42 26.406 42 33.682 L 42 283.318 C 42 290.594 51.63 296.5 63.492 296.5 L 470.49 296.5 C 482.37 296.5 492 290.594 492 283.318 L 492 33.682 Z " fill-rule="evenodd" fill="transparent" mask="url(#_mask_vKQvKEaYbqDncLipnZn09c3gIS2puo8z)" vector-effect="non-scaling-stroke" stroke-width="2.627" stroke="rgb(0,0,0)" stroke-linejoin="round" stroke-linecap="butt" stroke-miterlimit="1.414"/></g></g></svg>