<?xml version="1.0" encoding="UTF-8" standalone="no"?><!-- Generator: Gravit.io --><svg xmlns="http://www.w3.org/2000/svg" xmlns:xlink="http://www.w3.org/1999/xlink" style="isolation:isolate" viewBox="0 0 52.875 52.875" width="52.875pt" height="52.875pt"><defs><clipPath id="_clipPath_Gni2ToPgY8EtVOQeEU3DeYw8WTghkyjG"><rect width="52.875" height="52.875"/></clipPath></defs><g clip-path="url(#_clipPath_Gni2ToPgY8EtVOQeEU3DeYw8WTghkyjG)"><g style="isolation:isolate"><g><path d=" M 40.245 2.129 C 40.167 2.405 39.857 2.628 39.616 2.758 C 39.309 2.924 38.943 2.915 38.628 3.027 C 38.339 3.131 38.046 3.394 37.729 3.477 C 37.474 3.543 37.089 3.491 36.741 3.567 C 36.245 3.675 35.761 3.959 34.943 3.836 C 34.766 3.535 34.49 3.331 34.314 3.027 C 33.499 2.931 33.271 3.423 32.517 3.387 C 32.335 2.726 32.928 2.839 33.416 2.848 C 33.908 2.639 34.53 2.533 35.123 2.309 C 35.312 2.237 35.427 2.081 35.572 2.039 C 35.864 1.955 36.276 2.047 36.561 1.949 C 36.727 1.892 36.858 1.713 37.01 1.679 C 37.432 1.587 38.202 1.512 38.808 1.5 C 39.357 1.489 40.17 1.418 40.245 2.129 Z " fill-rule="evenodd" fill="rgb(255,255,255)"/><path d=" M 26.586 3.117 C 26.435 3.501 25.865 3.634 25.777 4.106 C 25.678 4.636 26.02 4.918 26.136 5.454 C 26.954 6.224 27.494 7.271 28.383 7.97 C 26.334 8.221 25.902 6.078 24.519 5.364 C 24.449 5.284 24.422 5.161 24.429 5.005 C 23.667 4.658 23.221 3.995 22.631 3.477 C 23.228 2.933 24.167 3.34 25.058 3.297 C 25.564 3.272 26.026 3.129 26.586 3.117 Z " fill-rule="evenodd" fill="rgb(255,255,255)"/><path d=" M 29.371 3.567 C 29.318 3.979 29.399 4.258 29.551 4.465 C 28.936 4.733 27.521 4.907 26.855 4.555 C 27.618 3.8 28.267 3.476 29.371 3.567 Z " fill-rule="evenodd" fill="rgb(255,255,255)"/><path d=" M 33.326 4.286 C 33.137 4.546 33.175 5.033 32.786 5.094 C 32.697 6.143 31.801 6.385 31.798 7.521 C 32.293 7.567 32.549 7.373 32.517 6.892 C 33.272 6.329 33.225 4.964 34.045 4.465 C 35.381 4.872 36.922 4.629 38.268 4.375 C 37.147 5.591 35.983 6.763 34.853 7.97 C 33.13 8.581 31.453 8.485 29.282 8.33 C 29.228 7.065 28.254 6.721 27.664 5.993 C 29.347 5.789 31.01 5.564 31.978 4.645 C 32.409 4.657 32.795 4.624 32.876 4.286 C 33.026 4.286 33.176 4.286 33.326 4.286 Z " fill-rule="evenodd" fill="rgb(255,255,255)"/><path d=" M 42.402 6.892 C 42.143 7.487 41.256 7.442 40.605 7.611 C 40.325 7.683 40.046 7.715 39.706 7.79 C 39.238 7.894 38.253 8.154 37.46 7.88 C 38.553 7.054 40.756 6.866 42.402 6.892 Z " fill-rule="evenodd" fill="rgb(255,255,255)"/><path d=" M 16.071 11.475 C 16.161 11.475 16.251 11.475 16.341 11.475 C 16.44 11.856 16.447 12.222 16.341 12.553 C 16.409 12.749 16.694 13.186 16.341 13.272 C 15.89 12.983 15.971 12.067 16.071 11.475 Z " fill-rule="evenodd" fill="rgb(0,0,0)"/><path d=" M 13.195 12.194 C 12.788 12.805 12.219 13.255 11.937 13.991 C 11.296 14.153 11.226 13.744 10.949 13.542 C 11.058 12.553 12.512 10.651 13.195 12.194 Z " fill-rule="evenodd" fill="rgb(0,0,0)"/><path d=" M 17.599 12.374 C 17.375 12.449 17.117 12.491 16.79 12.464 C 16.264 11.363 17.788 11.291 17.599 12.374 Z " fill-rule="evenodd" fill="rgb(0,0,0)"/><path d=" M 13.645 14.531 C 13.302 14.574 13.071 14.505 12.926 14.351 C 12.894 13.208 14.313 13.572 13.645 14.531 Z " fill-rule="evenodd" fill="rgb(0,0,0)"/><path d=" M 14.813 14.351 C 14.581 14.771 14.094 15.033 13.735 15.429 C 13.516 15.67 13.321 16.347 12.836 16.058 C 12.999 15.65 13.465 15.051 13.824 14.71 C 14.012 14.533 14.365 14.374 14.813 14.351 Z " fill-rule="evenodd" fill="rgb(0,0,0)"/><path d=" M 43.121 15.249 C 43.77 15.17 43.993 15.516 44.29 15.789 C 44.198 16.723 43.243 17.249 42.582 17.316 C 42.901 16.826 43.593 16.709 43.66 15.968 C 43.376 15.834 42.992 15.798 43.121 15.249 Z " fill-rule="evenodd" fill="rgb(255,255,255)"/><path d=" M 9.69 17.676 C 9.618 17.364 9.824 17.33 9.78 17.047 C 9.334 16.787 8.797 17.115 8.253 17.047 C 8.267 16.147 10.6 16.243 10.409 17.227 C 10.356 17.503 10.172 17.677 9.69 17.676 Z " fill-rule="evenodd" fill="rgb(0,0,0)"/><path d=" M 28.742 17.227 C 29.002 18.045 29.273 18.853 29.731 19.473 C 31.72 19.185 32.658 19.3 34.494 19.743 C 34.855 20.027 35.112 20.143 35.213 20.552 C 35.379 21.227 35.035 21.281 34.674 21.54 C 32.675 21.902 32.283 19.793 30.09 20.731 C 30.527 21.643 30.698 22.82 31.259 23.607 C 32.696 23.424 34.384 23.722 35.393 24.326 C 36.116 24.759 36.815 25.226 36.651 26.393 C 36.597 26.774 36.498 27.467 36.291 27.921 C 36.237 28.041 36.237 28.131 36.133 28.27 C 35.947 28.517 35.676 28.874 35.572 28.999 C 35.243 29.395 35.063 29.508 34.494 29.988 C 33.988 30.238 33.995 30.328 33.685 30.437 C 33.804 30.924 33.912 31.701 34.314 32.145 C 34.119 32.826 34.748 33.388 33.955 33.582 C 33.282 33.027 33.362 31.718 32.966 30.886 C 31.961 31.002 31.139 31.32 30.36 31.426 C 30.297 32.5 31.289 33.194 30.809 34.122 C 29.459 34.131 30.197 32.024 29.371 31.426 C 27.417 31.557 25.87 31.432 24.788 30.527 C 24.481 29.912 24.607 29.143 25.238 28.999 C 26.383 28.738 27.978 31.147 29.192 30.257 C 28.803 29.238 28.765 27.869 28.203 27.022 C 25.523 27.547 22.877 25.949 23.8 22.888 C 24.319 22.551 24.569 21.904 25.058 21.54 C 25.356 21.318 25.769 21.361 25.957 21.001 C 25.975 19.781 24.658 19.153 25.148 18.035 C 26.252 18.25 25.931 19.888 26.586 20.552 C 27.548 20.466 28.088 19.958 28.922 19.743 C 28.794 18.813 27.826 18.214 28.293 17.227 C 28.443 17.227 28.593 17.227 28.742 17.227 Z  M 27.035 21.81 C 27.298 22.775 27.653 23.648 28.203 24.326 C 29.036 24.022 29.731 24.076 30.54 23.697 C 30.344 22.664 29.678 22.102 29.551 21.001 C 28.403 20.961 27.804 21.471 27.035 21.81 Z  M 26.316 22.169 C 25.718 22.8 24.706 23.015 24.788 24.326 C 25.523 24.912 26.506 24.583 27.394 24.506 C 27.201 23.561 26.862 22.761 26.316 22.169 Z  M 32.247 26.663 C 32.793 27.315 32.905 28.402 33.326 29.179 C 34.441 28.768 35.943 27.708 35.123 26.213 C 34.272 26.062 32.464 25.682 32.247 26.663 Z  M 28.922 27.292 C 29.426 28.136 29.359 29.551 30.001 30.257 C 30.906 30.079 31.841 30.03 32.607 29.538 C 32.417 28.68 32.193 27.855 31.798 27.202 C 31.777 26.804 31.733 26.428 31.349 26.393 C 30.703 26.64 29.275 26.497 28.922 27.292 Z " fill-rule="evenodd" fill="rgb(34,189,91)"/><path d=" M 29.551 21.001 C 29.678 22.102 30.344 22.664 30.54 23.697 C 29.731 24.076 29.036 24.022 28.203 24.326 C 27.653 23.648 27.298 22.775 27.035 21.81 C 27.804 21.471 28.403 20.961 29.551 21.001 Z " fill-rule="evenodd" fill="rgb(255,255,255)"/><path d=" M 27.394 24.506 C 26.506 24.583 25.523 24.912 24.788 24.326 C 24.706 23.015 25.718 22.8 26.316 22.169 C 26.862 22.761 27.201 23.561 27.394 24.506 Z " fill-rule="evenodd" fill="rgb(255,255,255)"/><path d=" M 35.123 26.213 C 35.943 27.708 34.441 28.768 33.326 29.179 C 32.905 28.402 32.793 27.315 32.247 26.663 C 32.464 25.682 34.272 26.062 35.123 26.213 Z " fill-rule="evenodd" fill="rgb(255,255,255)"/><path d=" M 31.349 26.393 C 31.733 26.428 31.777 26.804 31.798 27.202 C 32.193 27.855 32.417 28.68 32.607 29.538 C 31.841 30.03 30.906 30.079 30.001 30.257 C 29.359 29.551 29.426 28.136 28.922 27.292 C 29.275 26.497 30.703 26.64 31.349 26.393 Z " fill-rule="evenodd" fill="rgb(255,255,255)"/><path d=" M 10.32 30.078 C 11.247 30.257 12.261 30.418 13.375 30.617 C 13.375 30.767 13.375 30.916 13.375 31.066 C 12.505 31.052 10.914 30.966 10.32 30.617 C 10.32 30.437 10.32 30.257 10.32 30.078 Z " fill-rule="evenodd" fill="rgb(0,0,0)"/><path d=" M 13.375 31.785 C 13 32.202 12.275 31.851 11.847 31.785 C 11.556 31.741 11.195 31.739 10.859 31.695 C 10.848 31.436 10.475 31.539 10.499 31.246 C 10.572 31.198 10.645 31.152 10.769 31.156 C 11.434 31.444 12.926 31.14 13.375 31.785 Z " fill-rule="evenodd" fill="rgb(0,0,0)"/><path d=" M 16.88 31.785 C 17.199 32.316 16.721 33.579 15.981 33.313 C 15.941 32.464 16.121 31.835 16.88 31.785 Z " fill-rule="evenodd" fill="rgb(0,0,0)"/><path d=" M 25.417 35.38 C 25.375 35.662 25.659 35.617 25.687 35.829 C 25.508 36.219 25.341 36.622 24.698 36.548 C 24.429 35.886 24.878 35.496 25.417 35.38 Z " fill-rule="evenodd" fill="rgb(0,0,0)"/><path d=" M 19.666 35.47 C 19.982 35.926 19.732 36.68 19.306 36.908 C 18.581 36.726 18.997 35.364 19.666 35.47 Z " fill-rule="evenodd" fill="rgb(0,0,0)"/><path d=" M 18.318 42.21 C 17.944 42.483 17.78 42.26 17.419 42.12 C 17.03 41.345 18.571 41.245 18.318 42.21 Z " fill-rule="evenodd" fill="rgb(255,255,255)"/><path d=" M 18.857 41.76 C 19.266 41.65 19.21 42.007 19.576 41.94 C 19.636 42.419 19.524 42.727 19.216 42.839 C 18.444 42.649 18.32 42.272 18.857 41.76 Z " fill-rule="evenodd" fill="rgb(255,255,255)"/><path d=" M 37.1 42.3 C 37.166 42.545 36.922 42.481 36.92 42.659 C 36.562 42.748 36.65 42.391 36.291 42.479 C 36.162 41.678 36.908 42.009 37.1 42.3 Z " fill-rule="evenodd" fill="rgb(255,255,255)"/><path d=" M 20.744 42.21 C 20.86 42.655 20.527 42.651 20.564 43.019 C 19.079 43.337 19.986 41.527 20.744 42.21 Z " fill-rule="evenodd" fill="rgb(255,255,255)"/><path d=" M 21.912 42.659 C 21.902 43.072 21.429 43.388 21.014 43.108 C 20.957 42.475 21.62 42.198 21.912 42.659 Z " fill-rule="evenodd" fill="rgb(255,255,255)"/><path d=" M 36.022 42.929 C 35.72 43.307 35.175 42.745 35.303 42.479 C 35.628 42.242 35.955 42.625 36.022 42.929 Z " fill-rule="evenodd" fill="rgb(255,255,255)"/><path d=" M 22.542 42.659 C 22.674 42.706 22.768 42.792 22.901 42.839 C 22.835 43.162 22.723 43.44 22.272 43.378 C 22.163 42.94 22.475 42.922 22.542 42.659 Z " fill-rule="evenodd" fill="rgb(255,255,255)"/><path d=" M 33.236 42.929 C 33.236 43.048 33.236 43.168 33.236 43.288 C 32.955 43.503 32.46 43.332 32.517 42.929 C 32.794 42.943 33.025 42.716 33.236 42.929 Z " fill-rule="evenodd" fill="rgb(255,255,255)"/><path d=" M 18.497 42.929 C 18.774 42.982 19.134 42.952 19.127 43.288 C 18.847 43.558 18.273 43.163 18.497 42.929 Z " fill-rule="evenodd" fill="rgb(255,255,255)"/><path d=" M 34.853 43.738 C 34.533 43.639 34.323 43.429 34.224 43.108 C 34.702 42.619 35.595 43.513 34.853 43.738 Z " fill-rule="evenodd" fill="rgb(255,255,255)"/><path d=" M 37.999 43.738 C 37.871 43.73 37.744 43.723 37.729 43.827 C 37.277 43.77 37.08 43.458 36.92 43.108 C 37.418 42.852 37.859 43.346 37.999 43.738 Z " fill-rule="evenodd" fill="rgb(255,255,255)"/><path d=" M 30.809 43.558 C 30.901 43.949 30.624 43.971 30.54 44.187 C 30.193 43.935 29.741 43.787 29.461 43.468 C 29.77 42.859 30.395 43.475 30.809 43.558 Z " fill-rule="evenodd" fill="rgb(255,255,255)"/><path d=" M 32.427 44.097 C 32.007 44.038 31.767 43.798 31.708 43.378 C 32.227 43.136 32.643 43.627 32.427 44.097 Z " fill-rule="evenodd" fill="rgb(255,255,255)"/><path d=" M 20.295 43.558 C 20.247 43.63 20.201 43.704 20.205 43.827 C 19.876 43.797 19.495 43.818 19.486 43.468 C 19.778 43.32 20.042 43.433 20.295 43.558 Z " fill-rule="evenodd" fill="rgb(255,255,255)"/><path d=" M 36.112 43.468 C 36.261 43.468 36.411 43.468 36.561 43.468 C 36.58 43.73 36.913 43.914 36.741 44.097 C 36.569 44.266 36.578 44.044 36.291 44.097 C 36.38 43.739 36.023 43.826 36.112 43.468 Z " fill-rule="evenodd" fill="rgb(255,255,255)"/><path d=" M 21.373 43.738 C 21.482 44.115 21.228 44.132 21.194 44.367 C 20.982 44.369 20.929 44.212 20.654 44.277 C 20.499 43.725 21.016 43.491 21.373 43.738 Z " fill-rule="evenodd" fill="rgb(255,255,255)"/><path d=" M 34.224 44.277 C 33.815 44.567 33.194 43.989 33.326 43.738 C 33.74 43.484 34.232 43.819 34.224 44.277 Z " fill-rule="evenodd" fill="rgb(255,255,255)"/><path d=" M 22.362 43.827 C 22.485 44.405 21.942 44.74 21.643 44.367 C 21.851 44.155 21.937 43.822 22.362 43.827 Z " fill-rule="evenodd" fill="rgb(255,255,255)"/><path d=" M 23.081 43.827 C 23.377 44.044 22.966 44.305 22.901 44.456 C 22.604 44.24 23.015 43.979 23.081 43.827 Z " fill-rule="evenodd" fill="rgb(255,255,255)"/><path d=" M 36.022 44.546 C 35.672 44.784 35.219 44.487 35.303 44.007 C 35.582 43.839 36.099 44.073 36.022 44.546 Z " fill-rule="evenodd" fill="rgb(255,255,255)"/><path d=" M 31.079 44.007 C 31.535 44.095 31.856 44.365 31.708 44.816 C 31.224 44.85 31.013 44.612 30.899 44.277 C 31.091 44.319 31.07 44.148 31.079 44.007 Z " fill-rule="evenodd" fill="rgb(255,255,255)"/><path d=" M 16.79 44.367 C 16.848 44.695 16.729 44.845 16.61 44.996 C 16.268 44.979 16.019 44.868 15.981 44.546 C 16.13 44.076 16.403 44.264 16.79 44.367 Z " fill-rule="evenodd" fill="rgb(255,255,255)"/><path d=" M 18.318 44.456 C 18.248 44.536 18.221 44.659 18.228 44.816 C 18.1 44.808 17.973 44.801 17.958 44.906 C 17.704 44.83 17.711 44.494 17.419 44.456 C 17.533 44.011 18.102 44.26 18.318 44.456 Z " fill-rule="evenodd" fill="rgb(255,255,255)"/><path d=" M 38.089 44.187 C 38.352 44.343 38.607 44.508 38.628 44.906 C 38.162 44.983 38.02 44.735 37.909 44.456 C 37.859 44.257 38.08 44.328 38.089 44.187 Z " fill-rule="evenodd" fill="rgb(255,255,255)"/><path d=" M 32.786 44.277 C 33.174 44.308 33.384 44.518 33.416 44.906 C 33.131 45.119 32.44 44.695 32.786 44.277 Z " fill-rule="evenodd" fill="rgb(255,255,255)"/><path d=" M 39.077 49.849 C 38.734 49.862 38.644 49.622 38.358 49.579 C 38.521 48.963 39.075 48.738 39.527 48.411 C 39.572 48.013 39.822 47.579 39.886 47.242 C 39.921 47.06 39.708 47.034 39.706 46.973 C 39.697 46.696 40.218 46.1 40.425 45.804 C 40.829 45.228 41.128 44.417 42.043 44.277 C 42.501 44.697 42.666 45.598 42.312 46.434 C 42.284 46.501 42.068 46.55 42.043 46.613 C 41.944 46.862 42.016 46.924 41.863 47.152 C 41.814 47.226 41.723 47.273 41.683 47.332 C 41.425 47.72 41.514 47.701 41.234 47.961 C 40.949 48.226 40.287 48.646 39.796 48.86 C 39.679 49.312 39.314 49.516 39.077 49.849 Z " fill-rule="evenodd" fill="rgb(255,255,255)"/><path d=" M 19.576 44.456 C 19.767 44.861 19.483 45.477 18.857 45.355 C 18.724 45.249 18.717 45.016 18.587 44.906 C 18.787 44.626 19.156 44.516 19.576 44.456 Z " fill-rule="evenodd" fill="rgb(255,255,255)"/><path d=" M 35.123 45.355 C 34.973 45.355 34.823 45.355 34.674 45.355 C 34.742 45.017 34.438 45.051 34.314 44.906 C 34.42 44.213 35.288 44.721 35.123 45.355 Z " fill-rule="evenodd" fill="rgb(255,255,255)"/><path d=" M 37.639 45.175 C 37.284 45.171 37.105 44.991 37.1 44.636 C 37.311 44.491 37.644 44.824 37.639 45.175 Z " fill-rule="evenodd" fill="rgb(255,255,255)"/><path d=" M 20.744 44.726 C 20.741 45.354 20.389 45.796 19.846 45.625 C 19.667 45.225 20.14 44.344 20.744 44.726 Z " fill-rule="evenodd" fill="rgb(255,255,255)"/><path d=" M 17.06 44.996 C 17.351 44.846 17.689 44.845 17.779 45.175 C 17.954 45.819 16.185 45.447 17.06 44.996 Z " fill-rule="evenodd" fill="rgb(255,255,255)"/><path d=" M 32.966 45.445 C 33.033 45.722 32.719 45.618 32.786 45.894 C 32.432 45.68 31.942 45.6 31.978 44.996 C 32.445 44.753 32.515 45.402 32.966 45.445 Z " fill-rule="evenodd" fill="rgb(255,255,255)"/><path d=" M 21.823 45.086 C 21.647 45.596 21.367 46.026 20.834 45.715 C 21.102 45.441 21.239 44.769 21.823 45.086 Z " fill-rule="evenodd" fill="rgb(255,255,255)"/><path d=" M 36.381 44.996 C 36.591 45.176 36.891 45.265 36.83 45.715 C 36.726 45.7 36.671 45.734 36.651 45.804 C 36.372 45.754 36.414 45.382 36.112 45.355 C 36.138 45.172 36.355 45.179 36.381 44.996 Z " fill-rule="evenodd" fill="rgb(255,255,255)"/><path d=" M 15.532 45.086 C 15.652 45.086 15.772 45.086 15.891 45.086 C 16.073 45.298 16.152 45.711 15.891 45.894 C 15.708 45.808 15.536 45.711 15.352 45.625 C 15.477 45.51 15.407 45.2 15.532 45.086 Z " fill-rule="evenodd" fill="rgb(255,255,255)"/><path d=" M 33.865 45.355 C 34.098 45.482 34.473 45.466 34.404 45.894 C 34.046 45.944 34.133 45.944 33.775 45.894 C 33.736 45.547 33.677 45.575 33.865 45.355 Z " fill-rule="evenodd" fill="rgb(255,255,255)"/><path d=" M 18.318 45.445 C 18.489 45.483 18.48 45.702 18.767 45.625 C 18.825 45.953 18.707 46.103 18.587 46.254 C 18.254 46.257 18.066 46.116 17.868 45.984 C 17.961 45.748 18.225 45.682 18.318 45.445 Z " fill-rule="evenodd" fill="rgb(255,255,255)"/><path d=" M 38.897 45.535 C 38.513 45.869 38.386 46.461 38.089 46.883 C 37.962 46.838 37.581 46.803 37.46 46.703 C 37.409 46.661 37.103 46.089 37.1 46.164 C 37.119 45.66 38.256 45.298 38.897 45.535 Z " fill-rule="evenodd" fill="rgb(255,255,255)"/><path d=" M 35.482 45.535 C 35.875 45.592 36.046 45.87 36.112 46.254 C 35.76 46.678 35.029 45.893 35.482 45.535 Z " fill-rule="evenodd" fill="rgb(255,255,255)"/><path d=" M 17.06 46.074 C 17.029 46.373 16.719 46.393 16.61 46.613 C 16.402 46.552 16.37 46.315 16.161 46.254 C 16.181 45.663 16.856 45.585 17.06 46.074 Z " fill-rule="evenodd" fill="rgb(255,255,255)"/><path d=" M 14.993 45.894 C 15.196 45.99 15.388 46.098 15.532 46.254 C 15.542 46.564 15.162 46.483 15.172 46.793 C 14.909 46.727 14.786 46.52 14.633 46.344 C 14.694 46.135 14.932 46.103 14.993 45.894 Z " fill-rule="evenodd" fill="rgb(255,255,255)"/><path d=" M 20.025 46.164 C 19.883 46.382 19.704 46.561 19.486 46.703 C 19.27 46.74 19.291 46.539 19.037 46.613 C 18.974 45.971 19.654 45.893 20.025 46.164 Z " fill-rule="evenodd" fill="rgb(255,255,255)"/><path d=" M 33.236 45.984 C 33.354 46.076 33.567 46.072 33.685 46.164 C 33.685 46.314 33.685 46.463 33.685 46.613 C 33.275 46.6 32.862 46.271 33.236 45.984 Z " fill-rule="evenodd" fill="rgb(255,255,255)"/><path d=" M 34.674 46.164 C 34.939 46.288 35.038 46.579 35.303 46.703 C 35.271 46.821 35.144 46.845 35.123 46.973 C 34.774 46.815 34.545 46.573 34.674 46.164 Z " fill-rule="evenodd" fill="rgb(255,255,255)"/><path d=" M 21.014 46.434 C 20.868 46.795 20.644 47.042 20.205 46.883 C 20.27 46.494 20.67 46.015 21.014 46.434 Z " fill-rule="evenodd" fill="rgb(255,255,255)"/><path d=" M 18.138 46.703 C 18.04 47.024 17.83 47.234 17.509 47.332 C 17.412 47.129 17.172 47.07 17.06 46.883 C 17.244 46.236 17.732 46.341 18.138 46.703 Z " fill-rule="evenodd" fill="rgb(255,255,255)"/><path d=" M 16.161 46.793 C 16.226 47.068 16.006 47.057 16.071 47.332 C 15.518 47.48 15.405 47.159 15.622 46.703 C 15.969 46.665 15.941 46.605 16.161 46.793 Z " fill-rule="evenodd" fill="rgb(255,255,255)"/><path d=" M 14.364 47.793 C 14.69 47.707 14.439 48.197 14.723 48.152 C 14.66 48.476 14.301 48.279 14.184 48.152 C 14.185 47.974 14.429 48.038 14.364 47.793 Z " fill-rule="evenodd" fill="rgb(255,255,255)"/><path d=" M 34.584 47.692 C 34.167 47.66 33.991 47.386 33.865 47.063 C 34.211 46.732 34.646 47.109 34.584 47.692 Z " fill-rule="evenodd" fill="rgb(255,255,255)"/><path d=" M 19.216 47.242 C 19.151 47.605 18.775 47.796 18.408 47.602 C 18.411 47.087 18.961 46.798 19.216 47.242 Z " fill-rule="evenodd" fill="rgb(255,255,255)"/><path d=" M 17.239 47.692 C 17.111 48.157 16.525 48.065 16.251 47.782 C 16.334 47.245 17.044 47.262 17.239 47.692 Z " fill-rule="evenodd" fill="rgb(255,255,255)"/><path d=" M 20.295 47.512 C 20.219 47.783 19.788 48.018 19.486 47.782 C 19.545 47.416 20.045 47.175 20.295 47.512 Z " fill-rule="evenodd" fill="rgb(255,255,255)"/><path d=" M 14.993 47.512 C 15.083 47.512 15.172 47.512 15.262 47.512 C 15.366 47.618 15.364 47.83 15.352 48.051 C 15.119 47.997 15.029 48.087 15.083 48.321 C 14.665 48.179 14.727 47.798 14.993 47.512 Z " fill-rule="evenodd" fill="rgb(255,255,255)"/><path d=" M 18.318 48.051 C 18.361 48.334 18.19 48.402 18.138 48.59 C 17.728 48.7 17.785 48.344 17.419 48.411 C 17.511 48.106 17.985 47.829 18.318 48.051 Z " fill-rule="evenodd" fill="rgb(255,255,255)"/><path d=" M 15.981 48.141 C 16.17 48.312 16.455 48.386 16.431 48.77 C 16.131 48.8 16.032 49.03 15.622 48.95 C 15.655 48.797 15.552 48.78 15.442 48.77 C 15.542 48.481 15.78 48.329 15.981 48.141 Z " fill-rule="evenodd" fill="rgb(255,255,255)"/><path d=" M 19.216 48.411 C 19.207 48.639 18.881 48.623 18.767 48.501 C 18.776 48.272 19.102 48.288 19.216 48.411 Z " fill-rule="evenodd" fill="rgb(255,255,255)"/><path d=" M 17.419 48.95 C 17.351 49.181 17.132 49.262 16.79 49.219 C 16.79 49.13 16.79 49.04 16.79 48.95 C 16.91 48.822 17.299 48.822 17.419 48.95 Z " fill-rule="evenodd" fill="rgb(255,255,255)"/><path d=" M 17.239 51.197 C 16.355 51.152 16.048 50.531 15.712 49.938 C 15.891 49.506 16.308 49.946 16.61 49.938 C 16.596 50.541 17.4 50.74 17.239 51.197 Z " fill-rule="evenodd" fill="rgb(255,255,255)"/><path d=" M 39.257 50.747 C 39.056 51.355 38.879 51.986 37.909 51.826 C 37.107 50.962 38.601 49.632 39.257 50.747 Z " fill-rule="evenodd" fill="rgb(255,255,255)"/><path d=" M 35.932 52.455 C 35.645 52.766 34.894 52.943 34.314 52.814 C 33.677 52.672 32.711 52.607 31.618 52.634 C 31.435 52.639 31.442 52.78 31.259 52.814 C 30.554 52.945 28.984 52.737 27.934 52.814 C 27.049 52.879 26.264 52.91 25.238 52.814 C 23.729 52.674 21.925 52.597 22.002 50.927 C 23.766 50.868 26.377 51.427 28.832 51.286 C 29.472 51.25 30.119 51.127 30.719 51.107 C 31.545 51.078 32.32 51.048 33.056 51.107 C 34.136 51.193 35.802 51.179 35.932 52.455 Z " fill-rule="evenodd" fill="rgb(0,0,0)"/><path d=" M 33.865 1.14 C 33.456 1.691 32.011 1.982 31.978 3.207 C 31.766 3.954 30.848 3.995 30.27 4.375 C 29.845 4.111 29.927 3.341 29.821 2.758 C 29.065 2.146 27.902 2.123 26.765 2.219 C 25.347 2.338 23.659 2.693 22.182 2.578 C 22.201 2.148 22.881 2.379 22.991 2.039 C 24.58 1.92 25.73 1.363 27.305 1.23 C 27.62 1.484 28.001 1.672 28.293 1.949 C 29.796 1.837 32.371 1.14 33.865 1.14 Z " fill-rule="evenodd" fill="rgb(255,255,255)"/><path d=" M 9.511 7.521 C 9.581 7.952 9.308 8.815 9.241 9.408 C 8.223 9.145 9.248 7.902 9.511 7.521 Z " fill-rule="evenodd" fill="rgb(255,255,255)"/><path d=" M 41.773 14.71 C 41.956 15.366 42.594 15.567 42.852 16.148 C 42.658 16.853 41.827 16.921 41.863 17.856 C 41.895 17.974 42.021 17.997 42.043 18.125 C 43.282 18.21 43.616 16.965 44.559 17.047 C 44.496 18.247 42.512 18.291 42.312 19.653 C 43.353 19.884 43.896 17.98 45.008 18.575 C 44.697 19.281 43.633 19.236 43.66 20.282 C 44.384 20.253 44.921 19.295 45.727 19.923 C 45.572 20.353 45.404 20.016 45.008 20.012 C 44.522 20.305 44.055 20.617 43.84 21.181 C 43.836 21.485 44.049 21.571 44.2 21.72 C 44.549 21.65 44.935 21.617 45.098 21.36 C 45.556 21.474 45.508 21.933 45.638 22.349 C 45.87 23.093 46.007 23.513 46.087 24.596 C 46.182 25.88 46.411 27.151 46.267 28.73 C 46.239 29.029 46.141 29.364 46.087 29.898 C 46.021 30.552 45.759 31.026 45.548 31.695 C 45.437 32.044 45.374 32.437 45.278 32.684 C 45.242 32.776 45.03 32.815 45.008 32.864 C 44.955 32.984 45.074 33.2 45.008 33.313 C 44.864 33.562 44.425 33.899 44.469 34.481 C 44.213 34.645 44.141 34.992 43.84 35.11 C 43.761 35.433 43.558 35.866 43.391 36.189 C 43.358 36.252 43.206 36.145 43.211 36.278 C 43.231 36.79 41.879 37.729 41.324 38.256 C 41.208 38.366 41.16 38.621 41.054 38.705 C 40.923 38.808 40.348 39.033 40.156 39.154 C 39.883 39.326 39.639 39.456 39.437 39.693 C 38.824 39.8 38.326 40.021 37.999 40.412 C 36.914 40.541 35.889 41.261 34.674 41.401 C 34.467 41.425 34.174 41.362 33.955 41.401 C 33.585 41.467 33.242 41.7 32.876 41.76 C 32.581 41.809 32.272 41.739 31.978 41.76 C 31.139 41.82 30.476 42.012 29.641 41.94 C 29.604 41.937 29.206 41.945 29.192 41.94 C 29.095 41.909 29.13 41.772 29.012 41.76 C 28.218 41.684 27.255 41.982 26.586 41.401 C 24.951 41.294 23.671 41.132 22.272 40.502 C 22.163 40.453 22.104 40.266 22.002 40.233 C 21.728 40.142 21.443 40.245 21.194 40.143 C 21.095 40.102 20.97 39.938 20.834 39.873 C 20.476 39.704 19.892 39.546 19.486 39.334 C 19.298 39.236 19.124 38.981 18.947 38.885 C 18.469 38.626 17.885 38.45 17.419 38.076 C 16.932 37.685 16.057 37.217 15.442 36.818 C 15.392 36.448 15.184 36.236 15.172 35.829 C 14.964 35.708 14.662 35.68 14.453 35.56 C 14.382 35.392 14.303 35.23 14.274 35.02 C 13.391 34.855 13.429 33.768 12.836 33.313 C 12.74 32.797 12.961 32.599 13.016 32.234 C 12.252 32.233 11.494 32.126 10.589 32.055 C 10.017 31.361 9.133 31.098 8.792 30.347 C 8.736 30.225 8.826 30.029 8.792 29.898 C 8.499 28.79 8.641 27.513 9.241 26.663 C 9.958 25.646 11.273 24.849 12.027 24.506 C 11.74 25.498 10.161 25.73 9.96 26.663 C 9.636 28.163 11.573 27.631 12.476 28.19 C 11.658 28.583 10.985 28.221 10.14 28.46 C 9.996 29.593 11.146 29.526 12.117 29.808 C 12.483 29.914 13.037 30.443 13.645 30.347 C 13.516 29.3 12.303 29.791 11.757 29.089 C 11.956 28.559 12.766 28.956 13.285 28.909 C 13.772 27.732 12.314 27.725 11.847 27.202 C 12.06 26.815 12.087 26.244 12.386 25.944 C 12.139 25.219 12.425 25.042 12.386 24.146 C 12.426 23.886 12.576 23.737 12.836 23.697 C 12.836 23.487 12.836 23.278 12.836 23.068 C 13.222 22.615 13.619 22.173 13.824 21.54 C 13.84 21.315 13.686 21.259 13.555 21.181 C 13.827 20.618 14.148 20.226 14.543 19.743 C 15.106 19.055 15.794 18.138 16.341 17.316 C 16.693 16.786 17.087 16.109 17.689 15.699 C 17.78 15.581 17.777 15.368 17.868 15.249 C 18.98 14.294 19.87 13.117 20.924 12.104 C 21.388 12.119 21.339 11.621 21.823 11.655 C 22.339 10.824 23.212 10.348 23.8 9.588 C 24.197 9.446 24.483 9.193 24.788 8.959 C 26.007 9.549 27.321 9.936 29.282 10.037 C 31.028 10.128 32.944 10.45 34.224 10.037 C 34.57 9.926 34.883 9.487 35.213 9.498 C 35.651 9.513 35.944 10.164 36.381 10.486 C 36.485 10.563 36.716 10.596 36.83 10.666 C 36.976 10.756 37.061 10.862 37.19 10.936 C 37.504 11.116 37.864 11.198 37.999 11.295 C 38.227 11.461 38.328 11.753 38.538 11.924 C 38.835 12.166 39.188 12.245 39.437 12.464 C 39.533 12.548 39.484 12.708 39.616 12.823 C 39.676 12.875 39.924 12.854 39.976 12.913 C 40.057 13.004 39.98 13.19 40.066 13.272 C 40.606 13.794 41.274 14.182 41.773 14.71 Z  M 28.293 17.227 C 27.826 18.214 28.794 18.813 28.922 19.743 C 28.088 19.958 27.548 20.466 26.586 20.552 C 25.931 19.888 26.252 18.25 25.148 18.035 C 24.658 19.153 25.975 19.781 25.957 21.001 C 25.769 21.361 25.356 21.318 25.058 21.54 C 24.569 21.904 24.319 22.551 23.8 22.888 C 22.877 25.949 25.523 27.547 28.203 27.022 C 28.765 27.869 28.803 29.238 29.192 30.257 C 27.978 31.147 26.383 28.738 25.238 28.999 C 24.607 29.143 24.481 29.912 24.788 30.527 C 25.87 31.432 27.417 31.557 29.371 31.426 C 30.197 32.024 29.459 34.131 30.809 34.122 C 31.289 33.194 30.297 32.5 30.36 31.426 C 31.139 31.32 31.961 31.002 32.966 30.886 C 33.362 31.718 33.282 33.027 33.955 33.582 C 34.748 33.388 34.119 32.826 34.314 32.145 C 33.912 31.701 33.804 30.924 33.685 30.437 C 33.995 30.328 34.049 30.208 34.494 29.988 C 35.024 29.558 35.243 29.395 35.572 28.999 C 35.676 28.874 35.926 28.548 36.112 28.301 C 36.216 28.162 36.237 28.041 36.291 27.921 C 36.498 27.467 36.597 26.774 36.651 26.393 C 36.815 25.226 36.116 24.759 35.393 24.326 C 34.384 23.722 32.696 23.424 31.259 23.607 C 30.698 22.82 30.527 21.643 30.09 20.731 C 32.283 19.793 32.675 21.902 34.674 21.54 C 35.012 21.324 35.379 21.227 35.213 20.552 C 35.112 20.143 34.888 20.039 34.494 19.743 C 32.658 19.3 31.72 19.185 29.731 19.473 C 29.273 18.853 29.002 18.045 28.742 17.227 C 28.593 17.227 28.443 17.227 28.293 17.227 Z  M 10.32 30.617 C 10.914 30.966 12.505 31.052 13.375 31.066 C 13.375 30.916 13.375 30.767 13.375 30.617 C 12.261 30.418 11.247 30.257 10.32 30.078 C 10.32 30.257 10.32 30.437 10.32 30.617 Z  M 10.769 31.156 C 10.645 31.152 10.572 31.198 10.499 31.246 C 10.475 31.539 10.848 31.436 10.859 31.695 C 11.195 31.739 11.556 31.741 11.847 31.785 C 12.275 31.851 13 32.202 13.375 31.785 C 12.926 31.14 11.434 31.444 10.769 31.156 Z  M 15.981 33.313 C 16.721 33.579 17.199 32.316 16.88 31.785 C 16.121 31.835 15.941 32.464 15.981 33.313 Z  M 24.698 36.548 C 25.341 36.622 25.508 36.219 25.687 35.829 C 25.659 35.617 25.375 35.662 25.417 35.38 C 24.878 35.496 24.429 35.886 24.698 36.548 Z  M 19.306 36.908 C 19.732 36.68 19.982 35.926 19.666 35.47 C 18.997 35.364 18.581 36.726 19.306 36.908 Z " fill-rule="evenodd" fill="rgb(255,255,255)"/><path d=" M 35.123 1.05 C 34.712 1.508 34.15 1.815 33.505 2.039 C 33.709 2.38 34.122 2.126 34.404 2.039 C 35.326 1.753 36.447 0.987 37.639 0.781 C 38.185 0.686 38.635 0.688 39.347 0.691 C 39.501 0.692 39.776 0.659 39.886 0.691 C 40.699 0.928 41.299 2.002 40.695 2.938 C 40.329 3.081 40.086 3.348 39.976 3.746 C 39.531 3.841 39.317 4.166 39.167 4.555 C 38.913 4.481 38.934 4.682 38.718 4.645 C 38.072 5.737 36.934 6.336 36.291 7.431 C 36.789 7.519 37.147 7.06 37.639 6.892 C 37.85 6.82 38.118 6.865 38.358 6.802 C 38.554 6.751 38.699 6.596 38.897 6.532 C 39.945 6.195 41.396 6.035 42.312 6.083 C 43.048 6.121 44.023 6.338 43.93 7.161 C 43.874 7.661 43.205 7.79 42.762 8.06 C 42.595 8.162 42.546 8.361 42.402 8.42 C 42.146 8.524 41.812 8.511 41.504 8.599 C 41.388 8.632 41.248 8.759 41.144 8.779 C 39.46 9.111 37.936 8.669 36.381 8.959 C 36.023 8.987 35.717 8.964 35.572 8.779 C 35.408 8.988 35.622 9.145 36.022 9.316 C 36.514 9.563 36.541 9.62 36.92 9.875 C 37.07 9.875 37.129 9.91 37.28 9.947 C 39.127 11.246 40.944 12.574 42.312 14.351 C 43.149 14.532 43.84 14.86 44.559 15.16 C 44.878 15.953 44.698 16.694 45.278 17.227 C 45.374 17.562 45.055 17.483 45.098 17.766 C 45.255 18.028 45.524 18.179 45.727 18.395 C 45.796 18.734 45.618 18.824 45.638 19.114 C 45.915 19.375 46.41 19.42 46.536 19.833 C 46.527 20.363 46.11 20.485 45.907 20.821 C 45.789 21.342 46.202 21.726 46.356 22.169 C 46.403 22.302 46.324 22.481 46.356 22.619 C 46.414 22.86 46.661 23.116 46.716 23.338 C 46.951 24.282 46.782 25.424 46.896 26.483 C 46.99 27.365 47.1 28.7 46.896 29.898 C 46.793 30.503 46.717 31.185 46.536 31.785 C 46.451 32.069 46.185 32.304 46.087 32.594 C 45.927 33.065 45.973 33.626 45.817 34.032 C 45.398 35.125 44.46 35.684 44.2 36.609 C 44.039 36.832 44.027 36.848 43.75 37.087 C 42.814 38.168 42.018 38.742 41.186 39.779 C 40.852 40.014 40.683 40.135 40.515 40.233 C 40.297 40.36 40.277 40.389 39.886 40.592 C 38.918 40.822 38.228 41.331 37.37 41.671 C 38.214 42.773 39.123 43.811 39.527 45.355 C 39.947 45.296 40.186 45.056 40.245 44.636 C 40.915 44.42 41.26 43.427 42.043 43.468 C 42.478 43.49 42.72 43.904 43.121 44.187 C 43.159 44.598 43.005 45.201 43.301 45.355 C 42.968 45.575 43.183 45.98 43.121 46.254 C 42.972 46.92 42.517 47.424 42.402 48.051 C 41.987 48.175 41.771 48.498 41.593 48.86 C 40.611 48.986 40.191 49.675 39.527 50.118 C 40.12 51.184 39.225 52.013 38.808 52.634 C 37.309 52.777 36.409 51.645 35.662 50.747 C 35.614 50.04 35.697 49.464 36.022 49.13 C 35.733 48.85 35.567 48.446 35.033 48.411 C 34.703 48.649 34.728 49.244 34.494 49.579 C 33.725 49.689 33.806 48.949 33.146 48.95 C 31.432 47.009 29.411 45.376 27.664 43.468 C 26.691 43.296 25.352 43.032 24.429 43.108 C 24.183 43.372 24.033 43.732 24.069 44.277 C 23.939 44.746 23.426 44.831 23.44 45.445 C 21.635 47.205 19.983 49.117 17.239 49.938 C 17.521 50.671 18.441 50.792 18.677 51.646 C 18.726 51.822 18.475 51.827 18.408 52.275 C 16.368 52.875 14.899 51.676 14.184 50.388 C 14.048 49.635 14.495 48.827 14.004 48.501 C 13.657 48.572 13.577 48.912 13.375 49.13 C 13.255 49.13 13.135 49.13 13.016 49.13 C 11.887 48.121 12.749 46.492 13.555 45.715 C 13.651 43.924 14.821 43.206 15.801 42.3 C 16.785 42.334 16.256 43.882 17.06 44.097 C 17.456 43.663 16.811 43.215 16.61 42.839 C 16.711 41.953 15.742 41.233 16.431 40.592 C 17.006 40.541 17.009 41.071 17.509 40.862 C 16.954 40.071 15.882 39.933 15.172 39.334 C 14.689 38.927 14.424 38.325 13.824 38.076 C 12.695 36.51 11.192 35.316 10.679 33.133 C 9.844 32.458 8.793 31.828 8.253 30.617 C 8.156 30.399 7.946 30.137 7.893 29.988 C 7.828 29.804 8.012 29.737 7.983 29.628 C 7.964 29.559 7.816 29.567 7.803 29.449 C 7.646 27.965 8.304 27.453 8.702 26.213 C 9.234 26.087 9.412 25.605 9.87 25.405 C 9.87 25.165 9.87 24.925 9.87 24.686 C 10.164 24.008 10.406 23.313 10.589 22.439 C 10.859 21.953 10.922 21.719 11.128 21.091 C 11.477 20.641 11.597 20.421 11.757 20.012 C 11.599 19.631 11.209 19.482 10.949 19.204 C 10.199 19.111 9.633 19.432 9.061 19.294 C 8.512 19.161 8.427 18.563 7.893 18.485 C 7.825 17.825 7.206 17.517 7.264 16.867 C 7.303 16.428 7.763 16.085 7.983 15.699 C 7.388 15.185 7.027 14.438 6.365 13.991 C 5.726 12.903 5.7 11.601 6.275 10.486 C 6.601 10.453 6.726 10.218 6.815 9.947 C 7.45 9.954 7.56 9.435 7.983 9.228 C 7.97 8.574 8.435 7.652 8.702 6.982 C 10.158 6.235 11.163 4.612 13.465 5.005 C 14.386 5.731 15.928 5.837 17.06 6.353 C 17.186 6.586 17.364 6.767 17.509 6.982 C 17.765 6.814 18.292 6.996 18.497 7.161 C 18.507 7.44 18.388 7.591 18.318 7.79 C 17.222 7.356 16.642 7.806 15.712 8.15 C 15.536 7.982 15.684 7.821 15.712 7.611 C 15.327 7.745 14.306 8.425 13.555 7.97 C 12.974 8.043 12.596 8.668 12.027 8.24 C 11.582 8.603 11.464 9.294 10.499 9.138 C 10.108 9.676 10.111 10.607 9.421 10.846 C 7.848 10.58 6.274 11.72 6.905 13.093 C 7.298 12.648 7.297 11.808 8.342 12.014 C 8.393 12.593 8.628 12.987 9.151 13.093 C 9.097 13.984 9.968 14.126 9.69 14.98 C 9.59 15.239 9.033 15.041 8.972 15.339 C 9.321 15.679 10.161 15.528 10.23 16.148 C 9.599 16.386 9.303 15.691 8.522 15.968 C 8.121 16.111 7.878 16.677 7.893 17.047 C 7.945 18.294 11.168 19.498 11.218 17.586 C 11.829 17.485 11.49 18.332 11.578 18.754 C 11.675 19.046 12.017 19.093 12.207 19.294 C 12.454 19.002 12.758 18.766 12.836 18.305 C 13.301 18.169 13.373 17.654 13.645 17.316 C 13.784 17.144 14.048 17.045 14.184 16.867 C 14.446 16.524 14.597 16.067 14.903 15.699 C 15.244 15.288 15.862 14.673 16.161 14.081 C 16.585 13.997 16.601 13.818 17.06 13.362 C 17.251 13.171 17.556 12.992 17.689 12.823 C 17.776 12.712 17.777 12.474 17.868 12.374 C 18.155 12.062 18.552 11.98 18.587 11.655 C 18.633 11.24 18.275 10.952 17.958 10.576 C 17.472 10.719 16.918 10.794 16.251 10.756 C 16.166 10.421 15.911 10.257 15.981 9.768 C 16.351 9.402 17.285 9.705 17.509 9.408 C 17.359 8.959 16.657 9.062 16.79 8.33 C 17.539 8.18 17.419 8.899 17.958 8.959 C 18.082 9.434 18.409 9.707 18.677 10.037 C 18.629 10.595 19.002 10.731 19.037 11.205 C 21.097 10.3 22.618 8.856 24.878 8.15 C 26.154 8.908 27.933 9.034 29.821 9.228 C 30.775 9.326 31.817 9.489 32.786 9.408 C 32.94 9.395 33.139 9.247 33.326 9.228 C 33.873 9.175 34.887 9.203 35.213 8.599 C 34.628 8.513 34.114 8.928 33.505 9.049 C 33.341 9.081 33.175 8.958 33.146 8.959 C 32.98 8.965 32.824 9.129 32.697 9.138 C 29.836 9.359 27.326 8.664 25.327 8.06 C 24.615 7.482 24.17 6.645 23.53 5.993 C 23.378 5.838 23.174 5.612 22.901 5.634 C 22.436 4.361 21.298 3.762 20.564 2.758 C 20.442 2.216 20.742 2.097 20.744 1.679 C 22.955 1.376 25.184 0.388 27.844 0.242 C 28.01 0.555 28.213 0.831 28.473 1.05 C 29.832 0.926 31.058 0.238 32.427 0.062 C 33.561 -0.084 34.694 -0.051 35.123 1.05 Z  M 28.293 1.949 C 28.001 1.672 27.62 1.484 27.305 1.23 C 25.73 1.363 24.58 1.92 22.991 2.039 C 22.881 2.379 22.201 2.148 22.182 2.578 C 23.659 2.693 25.347 2.338 26.765 2.219 C 27.902 2.123 29.065 2.146 29.821 2.758 C 29.927 3.341 29.845 4.111 30.27 4.375 C 30.848 3.995 31.766 3.954 31.978 3.207 C 32.011 1.982 33.456 1.691 33.865 1.14 C 32.371 1.14 29.796 1.837 28.293 1.949 Z  M 38.808 1.5 C 38.202 1.512 37.432 1.587 37.01 1.679 C 36.858 1.713 36.727 1.892 36.561 1.949 C 36.276 2.047 35.864 1.955 35.572 2.039 C 35.427 2.081 35.312 2.237 35.123 2.309 C 34.53 2.533 33.908 2.639 33.416 2.848 C 32.928 2.839 32.335 2.726 32.517 3.387 C 33.271 3.423 33.499 2.931 34.314 3.027 C 34.49 3.331 34.766 3.535 34.943 3.836 C 35.761 3.959 36.245 3.675 36.741 3.567 C 37.089 3.491 37.474 3.543 37.729 3.477 C 38.046 3.394 38.339 3.131 38.628 3.027 C 38.943 2.915 39.309 2.924 39.616 2.758 C 39.857 2.628 40.167 2.405 40.245 2.129 C 40.17 1.418 39.357 1.489 38.808 1.5 Z  M 25.058 3.297 C 24.167 3.34 23.228 2.933 22.631 3.477 C 23.221 3.995 23.667 4.658 24.429 5.005 C 24.422 5.161 24.449 5.284 24.519 5.364 C 25.902 6.078 26.334 8.221 28.383 7.97 C 27.494 7.271 26.954 6.224 26.136 5.454 C 26.02 4.918 25.678 4.636 25.777 4.106 C 25.865 3.634 26.435 3.501 26.586 3.117 C 26.026 3.129 25.564 3.272 25.058 3.297 Z  M 26.855 4.555 C 27.521 4.907 28.936 4.733 29.551 4.465 C 29.399 4.258 29.318 3.979 29.371 3.567 C 28.267 3.476 27.618 3.8 26.855 4.555 Z  M 32.876 4.286 C 32.795 4.624 32.409 4.657 31.978 4.645 C 31.01 5.564 29.347 5.789 27.664 5.993 C 28.254 6.721 29.228 7.065 29.282 8.33 C 31.453 8.485 33.13 8.581 34.853 7.97 C 35.983 6.763 37.147 5.591 38.268 4.375 C 36.922 4.629 35.381 4.872 34.045 4.465 C 33.225 4.964 33.272 6.329 32.517 6.892 C 32.549 7.373 32.293 7.567 31.798 7.521 C 31.801 6.385 32.697 6.143 32.786 5.094 C 33.175 5.033 33.137 4.546 33.326 4.286 C 33.176 4.286 33.026 4.286 32.876 4.286 Z  M 37.46 7.88 C 38.253 8.154 39.238 7.894 39.706 7.79 C 40.046 7.715 40.325 7.683 40.605 7.611 C 41.256 7.442 42.143 7.487 42.402 6.892 C 40.756 6.866 38.553 7.054 37.46 7.88 Z  M 9.241 9.408 C 9.308 8.815 9.581 7.952 9.511 7.521 C 9.248 7.902 8.223 9.145 9.241 9.408 Z  M 40.066 13.272 C 39.98 13.19 39.936 13.068 39.855 12.977 C 39.804 12.918 39.727 12.879 39.616 12.823 C 39.484 12.708 39.389 12.548 39.293 12.464 C 39.045 12.245 38.835 12.166 38.538 11.924 C 38.328 11.753 38.227 11.461 37.999 11.295 C 37.864 11.198 37.504 11.116 37.19 10.936 C 37.061 10.862 36.976 10.756 36.83 10.666 C 36.716 10.596 36.485 10.563 36.381 10.486 C 35.944 10.164 35.651 9.513 35.213 9.498 C 34.883 9.487 34.57 9.926 34.224 10.037 C 32.944 10.45 31.028 10.128 29.282 10.037 C 27.321 9.936 26.007 9.549 24.788 8.959 C 24.483 9.193 24.197 9.446 23.8 9.588 C 23.137 10.288 22.487 10.833 21.762 11.553 C 21.367 11.811 21.516 11.698 20.924 12.104 C 19.87 13.117 18.98 14.294 17.868 15.249 C 17.777 15.368 17.69 15.507 17.599 15.625 C 17.117 16.117 16.693 16.786 16.341 17.316 C 15.794 18.138 15.106 19.055 14.543 19.743 C 14.148 20.226 14.097 20.367 13.824 20.93 C 13.734 21.094 13.609 21.267 13.594 21.492 C 13.388 22.125 13.222 22.615 12.836 23.068 C 12.785 23.279 12.789 23.336 12.695 23.516 C 12.547 23.727 12.426 23.886 12.386 24.146 C 12.425 25.042 12.359 25.133 12.25 25.883 C 12.109 26.406 12.06 26.815 11.847 27.202 C 12.314 27.725 13.772 27.732 13.285 28.909 C 12.766 28.956 11.956 28.559 11.757 29.089 C 12.303 29.791 13.516 29.3 13.645 30.347 C 13.037 30.443 12.483 29.914 12.117 29.808 C 11.146 29.526 9.996 29.593 10.14 28.46 C 10.985 28.221 11.658 28.583 12.476 28.19 C 11.573 27.631 9.636 28.163 9.96 26.663 C 10.161 25.73 11.74 25.498 12.027 24.506 C 11.273 24.849 9.958 25.646 9.241 26.663 C 8.641 27.513 8.499 28.79 8.792 29.898 C 8.826 30.029 8.736 30.225 8.792 30.347 C 9.133 31.098 10.017 31.361 10.589 32.055 C 11.494 32.126 12.252 32.233 13.016 32.234 C 12.973 32.602 12.961 32.695 13.016 33.199 C 13.359 33.926 13.395 34.055 13.824 34.875 C 13.854 35.085 14.382 35.392 14.453 35.56 C 14.648 35.754 14.73 35.871 14.903 36.07 C 15.211 36.352 15.234 36.422 15.532 36.75 C 16.147 37.149 16.932 37.685 17.419 38.076 C 17.885 38.45 18.379 38.626 18.857 38.885 C 19.023 39.012 19.298 39.236 19.486 39.334 C 19.892 39.546 20.476 39.704 20.834 39.873 C 20.97 39.938 21.182 40.003 21.281 40.043 C 21.53 40.145 21.728 40.142 22.002 40.233 C 22.104 40.266 23.961 40.813 24.069 40.862 C 25.699 41.25 24.984 41.121 26.586 41.401 C 27.953 41.633 28.218 41.684 29.012 41.76 C 29.13 41.772 29.275 41.813 29.371 41.844 C 29.386 41.848 29.783 41.937 29.821 41.94 C 30.75 41.93 31.139 41.82 31.978 41.76 C 32.272 41.739 32.581 41.809 32.876 41.76 C 33.242 41.7 33.585 41.467 33.955 41.401 C 34.174 41.362 34.467 41.425 34.674 41.401 C 35.889 41.261 36.934 40.687 37.999 40.352 C 38.445 40.082 38.848 39.832 39.437 39.625 C 39.723 39.449 39.883 39.326 40.156 39.154 C 40.348 39.033 40.842 38.72 40.973 38.617 C 41.09 38.512 41.208 38.366 41.324 38.256 C 41.879 37.729 42.498 37.23 42.979 36.785 C 42.973 36.652 43.358 36.252 43.391 36.189 C 43.558 35.866 43.907 35.502 43.986 35.18 C 44.273 34.77 44.297 34.764 44.469 34.481 C 44.736 33.926 44.864 33.562 45.008 33.313 C 45.074 33.2 45.122 33.073 45.176 32.953 C 45.198 32.904 45.242 32.776 45.278 32.684 C 45.374 32.437 45.437 32.044 45.548 31.695 C 45.759 31.026 46.021 30.552 46.087 29.898 C 46.141 29.364 46.239 29.029 46.267 28.73 C 46.411 27.151 46.182 25.88 46.087 24.596 C 46.007 23.513 45.87 23.093 45.638 22.349 C 45.508 21.933 45.556 21.474 45.098 21.36 C 44.935 21.617 44.549 21.65 44.2 21.72 C 44.049 21.571 43.836 21.485 43.84 21.181 C 44.055 20.617 44.522 20.305 45.008 20.012 C 45.404 20.016 45.572 20.353 45.727 19.923 C 44.921 19.295 44.384 20.253 43.66 20.282 C 43.633 19.236 44.697 19.281 45.008 18.575 C 43.896 17.98 43.353 19.884 42.312 19.653 C 42.512 18.291 44.496 18.247 44.559 17.047 C 43.616 16.965 43.282 18.21 42.043 18.125 C 42.021 17.997 41.895 17.974 41.863 17.856 C 41.827 16.921 42.658 16.853 42.852 16.148 C 42.594 15.567 41.956 15.366 41.773 14.71 C 41.274 14.182 40.606 13.794 40.066 13.272 Z  M 43.66 15.968 C 43.593 16.709 42.901 16.826 42.582 17.316 C 43.243 17.249 44.198 16.723 44.29 15.789 C 43.993 15.516 43.77 15.17 43.121 15.249 C 42.992 15.798 43.376 15.834 43.66 15.968 Z  M 17.419 42.12 C 17.78 42.26 17.944 42.483 18.318 42.21 C 18.571 41.245 17.03 41.345 17.419 42.12 Z  M 19.216 42.839 C 19.524 42.727 19.636 42.419 19.576 41.94 C 19.21 42.007 19.266 41.65 18.857 41.76 C 18.32 42.272 18.444 42.649 19.216 42.839 Z  M 36.291 42.479 C 36.65 42.391 36.562 42.748 36.92 42.659 C 36.922 42.481 37.166 42.545 37.1 42.3 C 36.908 42.009 36.162 41.678 36.291 42.479 Z  M 20.564 43.019 C 20.527 42.651 20.86 42.655 20.744 42.21 C 19.986 41.527 19.079 43.337 20.564 43.019 Z  M 21.014 43.108 C 21.429 43.388 21.902 43.072 21.912 42.659 C 21.62 42.198 20.957 42.475 21.014 43.108 Z  M 35.303 42.479 C 35.175 42.745 35.72 43.307 36.022 42.929 C 35.955 42.625 35.628 42.242 35.303 42.479 Z  M 22.272 43.378 C 22.723 43.44 22.835 43.162 22.901 42.839 C 22.768 42.792 22.674 42.706 22.542 42.659 C 22.475 42.922 22.163 42.94 22.272 43.378 Z  M 32.517 42.929 C 32.46 43.332 32.955 43.503 33.236 43.288 C 33.236 43.168 33.236 43.048 33.236 42.929 C 33.025 42.716 32.794 42.943 32.517 42.929 Z  M 19.127 43.288 C 19.134 42.952 18.774 42.982 18.497 42.929 C 18.273 43.163 18.847 43.558 19.127 43.288 Z  M 34.224 43.108 C 34.323 43.429 34.533 43.639 34.853 43.738 C 35.595 43.513 34.702 42.619 34.224 43.108 Z  M 36.92 43.108 C 37.08 43.458 37.277 43.77 37.729 43.827 C 37.744 43.723 37.871 43.73 37.999 43.738 C 37.859 43.346 37.418 42.852 36.92 43.108 Z  M 29.461 43.468 C 29.741 43.787 30.193 43.935 30.54 44.187 C 30.624 43.971 30.901 43.949 30.809 43.558 C 30.395 43.475 29.77 42.859 29.461 43.468 Z  M 31.708 43.378 C 31.767 43.798 32.007 44.038 32.427 44.097 C 32.643 43.627 32.227 43.136 31.708 43.378 Z  M 19.486 43.468 C 19.495 43.818 19.876 43.797 20.205 43.827 C 20.201 43.704 20.247 43.63 20.295 43.558 C 20.042 43.433 19.778 43.32 19.486 43.468 Z  M 36.291 44.097 C 36.578 44.044 36.569 44.266 36.741 44.097 C 36.913 43.914 36.58 43.73 36.561 43.468 C 36.411 43.468 36.261 43.468 36.112 43.468 C 36.023 43.826 36.38 43.739 36.291 44.097 Z  M 20.654 44.277 C 20.929 44.212 20.982 44.369 21.194 44.367 C 21.228 44.132 21.482 44.115 21.373 43.738 C 21.016 43.491 20.499 43.725 20.654 44.277 Z  M 33.326 43.738 C 33.194 43.989 33.815 44.567 34.224 44.277 C 34.232 43.819 33.74 43.484 33.326 43.738 Z  M 21.643 44.367 C 21.942 44.74 22.485 44.405 22.362 43.827 C 21.937 43.822 21.851 44.155 21.643 44.367 Z  M 22.901 44.456 C 22.966 44.305 23.377 44.044 23.081 43.827 C 23.015 43.979 22.604 44.24 22.901 44.456 Z  M 35.303 44.007 C 35.219 44.487 35.672 44.784 36.022 44.546 C 36.099 44.073 35.582 43.839 35.303 44.007 Z  M 30.899 44.277 C 31.013 44.612 31.224 44.85 31.708 44.816 C 31.856 44.365 31.535 44.095 31.079 44.007 C 31.07 44.148 31.091 44.319 30.899 44.277 Z  M 15.981 44.546 C 16.019 44.868 16.268 44.979 16.61 44.996 C 16.729 44.845 16.848 44.695 16.79 44.367 C 16.403 44.264 16.13 44.076 15.981 44.546 Z  M 17.419 44.456 C 17.711 44.494 17.704 44.83 17.958 44.906 C 17.973 44.801 18.1 44.808 18.228 44.816 C 18.221 44.659 18.248 44.536 18.318 44.456 C 18.102 44.26 17.533 44.011 17.419 44.456 Z  M 37.909 44.456 C 38.02 44.735 38.162 44.983 38.628 44.906 C 38.607 44.508 38.352 44.343 38.089 44.187 C 38.08 44.328 37.859 44.257 37.909 44.456 Z  M 33.416 44.906 C 33.384 44.518 33.174 44.308 32.786 44.277 C 32.44 44.695 33.131 45.119 33.416 44.906 Z  M 39.796 48.86 C 40.287 48.646 40.949 48.226 41.234 47.961 C 41.514 47.701 41.425 47.72 41.683 47.332 C 41.723 47.273 41.814 47.226 41.863 47.152 C 42.016 46.924 41.944 46.862 42.043 46.613 C 42.068 46.55 42.284 46.501 42.312 46.434 C 42.666 45.598 42.501 44.697 42.043 44.277 C 41.128 44.417 40.829 45.228 40.425 45.804 C 40.218 46.1 39.697 46.696 39.706 46.973 C 39.708 47.034 39.921 47.06 39.886 47.242 C 39.822 47.579 39.572 48.013 39.527 48.411 C 39.075 48.738 38.521 48.963 38.358 49.579 C 38.644 49.622 38.734 49.862 39.077 49.849 C 39.314 49.516 39.679 49.312 39.796 48.86 Z  M 18.587 44.906 C 18.717 45.016 18.724 45.249 18.857 45.355 C 19.483 45.477 19.767 44.861 19.576 44.456 C 19.156 44.516 18.787 44.626 18.587 44.906 Z  M 34.314 44.906 C 34.438 45.051 34.742 45.017 34.674 45.355 C 34.823 45.355 34.973 45.355 35.123 45.355 C 35.288 44.721 34.42 44.213 34.314 44.906 Z  M 37.1 44.636 C 37.105 44.991 37.284 45.171 37.639 45.175 C 37.644 44.824 37.311 44.491 37.1 44.636 Z  M 19.846 45.625 C 20.389 45.796 20.741 45.354 20.744 44.726 C 20.14 44.344 19.667 45.225 19.846 45.625 Z  M 17.779 45.175 C 17.689 44.845 17.351 44.846 17.06 44.996 C 16.185 45.447 17.954 45.819 17.779 45.175 Z  M 31.978 44.996 C 31.942 45.6 32.432 45.68 32.786 45.894 C 32.719 45.618 33.033 45.722 32.966 45.445 C 32.515 45.402 32.445 44.753 31.978 44.996 Z  M 20.834 45.715 C 21.367 46.026 21.647 45.596 21.823 45.086 C 21.239 44.769 21.102 45.441 20.834 45.715 Z  M 36.112 45.355 C 36.414 45.382 36.372 45.754 36.651 45.804 C 36.671 45.734 36.726 45.7 36.83 45.715 C 36.891 45.265 36.591 45.176 36.381 44.996 C 36.355 45.179 36.138 45.172 36.112 45.355 Z  M 15.352 45.625 C 15.536 45.711 15.708 45.808 15.891 45.894 C 16.152 45.711 16.073 45.298 15.891 45.086 C 15.772 45.086 15.652 45.086 15.532 45.086 C 15.407 45.2 15.477 45.51 15.352 45.625 Z  M 33.775 45.894 C 34.133 45.944 34.046 45.944 34.404 45.894 C 34.473 45.466 34.098 45.482 33.865 45.355 C 33.677 45.575 33.736 45.547 33.775 45.894 Z  M 17.868 45.984 C 18.066 46.116 18.254 46.257 18.587 46.254 C 18.707 46.103 18.825 45.953 18.767 45.625 C 18.48 45.702 18.489 45.483 18.318 45.445 C 18.225 45.682 17.961 45.748 17.868 45.984 Z  M 37.1 46.164 C 37.103 46.089 37.409 46.661 37.46 46.703 C 37.581 46.803 37.962 46.838 38.089 46.883 C 38.386 46.461 38.513 45.869 38.897 45.535 C 38.256 45.298 37.119 45.66 37.1 46.164 Z  M 36.112 46.254 C 36.046 45.87 35.875 45.592 35.482 45.535 C 35.029 45.893 35.76 46.678 36.112 46.254 Z  M 16.161 46.254 C 16.37 46.315 16.402 46.552 16.61 46.613 C 16.719 46.393 17.029 46.373 17.06 46.074 C 16.856 45.585 16.181 45.663 16.161 46.254 Z  M 14.633 46.344 C 14.786 46.52 14.909 46.727 15.172 46.793 C 15.162 46.483 15.542 46.564 15.532 46.254 C 15.388 46.098 15.196 45.99 14.993 45.894 C 14.932 46.103 14.694 46.135 14.633 46.344 Z  M 19.037 46.613 C 19.291 46.539 19.27 46.74 19.486 46.703 C 19.704 46.561 19.883 46.382 20.025 46.164 C 19.654 45.893 18.974 45.971 19.037 46.613 Z  M 33.685 46.613 C 33.685 46.463 33.685 46.314 33.685 46.164 C 33.567 46.072 33.354 46.076 33.236 45.984 C 32.862 46.271 33.275 46.6 33.685 46.613 Z  M 35.123 46.973 C 35.144 46.845 35.271 46.821 35.303 46.703 C 35.038 46.579 34.939 46.288 34.674 46.164 C 34.545 46.573 34.774 46.815 35.123 46.973 Z  M 20.205 46.883 C 20.644 47.042 20.868 46.795 21.014 46.434 C 20.67 46.015 20.27 46.494 20.205 46.883 Z  M 17.06 46.883 C 17.172 47.07 17.412 47.129 17.509 47.332 C 17.83 47.234 18.04 47.024 18.138 46.703 C 17.732 46.341 17.244 46.236 17.06 46.883 Z  M 15.622 46.703 C 15.405 47.159 15.518 47.48 16.071 47.332 C 16.006 47.057 16.226 47.068 16.161 46.793 C 15.941 46.605 15.969 46.665 15.622 46.703 Z  M 14.184 47.152 C 14.301 47.279 14.66 47.476 14.723 47.152 C 14.439 47.197 14.69 46.707 14.364 46.793 C 14.429 47.038 14.185 46.974 14.184 47.152 Z  M 33.865 47.063 C 33.991 47.386 34.167 47.66 34.584 47.692 C 34.646 47.109 34.211 46.732 33.865 47.063 Z  M 18.408 47.602 C 18.775 47.796 19.151 47.605 19.216 47.242 C 18.961 46.798 18.411 47.087 18.408 47.602 Z  M 16.251 47.782 C 16.525 48.065 17.111 48.157 17.239 47.692 C 17.044 47.262 16.334 47.245 16.251 47.782 Z  M 19.486 47.782 C 19.788 48.018 20.219 47.783 20.295 47.512 C 20.045 47.175 19.545 47.416 19.486 47.782 Z  M 15.083 48.321 C 15.029 48.087 15.119 47.997 15.352 48.051 C 15.364 47.83 15.366 47.618 15.262 47.512 C 15.172 47.512 15.083 47.512 14.993 47.512 C 14.727 47.798 14.665 48.179 15.083 48.321 Z  M 17.419 48.411 C 17.785 48.344 17.728 48.7 18.138 48.59 C 18.19 48.402 18.361 48.334 18.318 48.051 C 17.985 47.829 17.511 48.106 17.419 48.411 Z  M 15.442 48.77 C 15.552 48.78 15.655 48.797 15.622 48.95 C 16.032 49.03 16.131 48.8 16.431 48.77 C 16.455 48.386 16.17 48.312 15.981 48.141 C 15.78 48.329 15.542 48.481 15.442 48.77 Z  M 18.767 48.501 C 18.881 48.623 19.207 48.639 19.216 48.411 C 19.102 48.288 18.776 48.272 18.767 48.501 Z  M 16.79 48.95 C 16.79 49.04 16.79 49.13 16.79 49.219 C 17.132 49.262 17.351 49.181 17.419 48.95 C 17.299 48.822 16.91 48.822 16.79 48.95 Z  M 16.61 49.938 C 16.308 49.946 15.891 49.506 15.712 49.938 C 16.048 50.531 16.355 51.152 17.239 51.197 C 17.4 50.74 16.596 50.541 16.61 49.938 Z  M 37.909 51.826 C 38.879 51.986 39.056 51.355 39.257 50.747 C 38.601 49.632 37.107 50.962 37.909 51.826 Z " fill-rule="evenodd" fill="rgb(0,0,0)"/></g></g></g></svg>