<?xml version="1.0" encoding="UTF-8" standalone="no"?><!-- Generator: Gravit.io --><svg xmlns="http://www.w3.org/2000/svg" xmlns:xlink="http://www.w3.org/1999/xlink" style="isolation:isolate" viewBox="0 0 517.996 317" width="517.996pt" height="317pt"><defs><clipPath id="_clipPath_gv0vLX6PrqlN5bGZhK7PdDOX1OBTtBRP"><rect width="517.996" height="317"/></clipPath></defs><g clip-path="url(#_clipPath_gv0vLX6PrqlN5bGZhK7PdDOX1OBTtBRP)"><g style="isolation:isolate"><mask id="_mask_ZLPWCwO5QEj5F451vLtEnJAezDgPxDBZ" x="-200%" y="-200%" width="400%" height="400%"><rect x="-200%" y="-200%" width="400%" height="400%" style="fill:white;"/><path d=" M 492 33.682 C 492 26.406 482.37 20.5 470.49 20.5 L 63.492 20.5 C 51.63 20.5 42 26.406 42 33.682 L 42 283.318 C 42 290.594 51.63 296.5 63.492 296.5 L 470.49 296.5 C 482.37 296.5 492 290.594 492 283.318 L 492 33.682 Z " fill-rule="evenodd" fill="black" stroke="none"/></mask><path d=" M 492 33.682 C 492 26.406 482.37 20.5 470.49 20.5 L 63.492 20.5 C 51.63 20.5 42 26.406 42 33.682 L 42 283.318 C 42 290.594 51.63 296.5 63.492 296.5 L 470.49 296.5 C 482.37 296.5 492 290.594 492 283.318 L 492 33.682 Z " fill-rule="evenodd" fill="rgb(236,240,247)" mask="url(#_mask_ZLPWCwO5QEj5F451vLtEnJAezDgPxDBZ)" vector-effect="non-scaling-stroke" stroke-width="2.627" stroke="rgb(0,0,0)" stroke-linejoin="round" stroke-linecap="butt" stroke-miterlimit="1.414"/><path d=" M 492 33.682 C 492 26.406 482.37 20.5 470.49 20.5 L 63.492 20.5 C 51.63 20.5 42 26.406 42 33.682 L 42 283.318 C 42 290.594 51.63 296.5 63.492 296.5 L 470.49 296.5 C 482.37 296.5 492 290.594 492 283.318 L 492 33.682 Z " fill-rule="evenodd" fill="rgb(236,240,247)"/><clipPath id="_clipPath_NVOBijATv26H9JSgBOwaoJ4qoqo5md7A"><path d=" M 492 33.682 C 492 26.406 482.37 20.5 470.49 20.5 L 63.492 20.5 C 51.63 20.5 42 26.406 42 33.682 L 42 283.318 C 42 290.594 51.63 296.5 63.492 296.5 L 470.49 296.5 C 482.37 296.5 492 290.594 492 283.318 L 492 33.682 Z " fill-rule="evenodd" fill="rgb(236,240,247)" mask="url(#_mask_ZLPWCwO5QEj5F451vLtEnJAezDgPxDBZ)" vector-effect="non-scaling-stroke" stroke-width="2.627" stroke="rgb(0,0,0)" stroke-linejoin="round" stroke-linecap="butt" stroke-miterlimit="1.414"/><path d=" M 492 33.682 C 492 26.406 482.37 20.5 470.49 20.5 L 63.492 20.5 C 51.63 20.5 42 26.406 42 33.682 L 42 283.318 C 42 290.594 51.63 296.5 63.492 296.5 L 470.49 296.5 C 482.37 296.5 492 290.594 492 283.318 L 492 33.682 Z " fill-rule="evenodd" fill="rgb(236,240,247)"/></clipPath><g clip-path="url(#_clipPath_NVOBijATv26H9JSgBOwaoJ4qoqo5md7A)"><path d=" M 98 30.718 C 98 23.278 96.802 17.238 95.323 17.238 L 44.675 17.238 C 43.198 17.238 42 23.278 42 30.718 L 42 286.019 C 42 293.46 43.198 299.5 44.675 299.5 L 95.323 299.5 C 96.802 299.5 98 293.46 98 286.019 L 98 30.718 Z " fill-rule="evenodd" fill="rgb(6,129,248)"/><clipPath id="_clipPath_so5ESWt6SAOuAHA1nhxVi7P7VKYRqgXM"><path d=" M 98 30.718 C 98 23.278 96.802 17.238 95.323 17.238 L 44.675 17.238 C 43.198 17.238 42 23.278 42 30.718 L 42 286.019 C 42 293.46 43.198 299.5 44.675 299.5 L 95.323 299.5 C 96.802 299.5 98 293.46 98 286.019 L 98 30.718 Z " fill-rule="evenodd" fill="rgb(6,129,248)"/></clipPath><g clip-path="url(#_clipPath_so5ESWt6SAOuAHA1nhxVi7P7VKYRqgXM)"><path d=" M 95 87.169 C 95 86.8 93.951 86.5 92.658 86.5 L 48.34 86.5 C 47.049 86.5 46 86.8 46 87.169 L 46 99.831 C 46 100.2 47.049 100.5 48.34 100.5 L 92.658 100.5 C 93.951 100.5 95 100.2 95 99.831 L 95 87.169 Z " fill-rule="evenodd" fill="rgb(70,153,236)"/><path d=" M 95 189.169 C 95 188.8 93.951 188.5 92.658 188.5 L 48.34 188.5 C 47.049 188.5 46 188.8 46 189.169 L 46 201.831 C 46 202.2 47.049 202.5 48.34 202.5 L 92.658 202.5 C 93.951 202.5 95 202.2 95 201.831 L 95 189.169 Z " fill-rule="evenodd" fill="rgb(70,153,236)"/><path d=" M 95 168.169 C 95 167.8 93.951 167.5 92.658 167.5 L 48.34 167.5 C 47.049 167.5 46 167.8 46 168.169 L 46 180.831 C 46 181.2 47.049 181.5 48.34 181.5 L 92.658 181.5 C 93.951 181.5 95 181.2 95 180.831 L 95 168.169 Z " fill-rule="evenodd" fill="rgb(70,153,236)"/><path d=" M 95 149.169 C 95 148.8 93.951 148.5 92.658 148.5 L 48.34 148.5 C 47.049 148.5 46 148.8 46 149.169 L 46 161.831 C 46 162.2 47.049 162.5 48.34 162.5 L 92.658 162.5 C 93.951 162.5 95 162.2 95 161.831 L 95 149.169 Z " fill-rule="evenodd" fill="rgb(70,153,236)"/><path d=" M 95 129.169 C 95 128.8 93.951 128.5 92.658 128.5 L 48.34 128.5 C 47.049 128.5 46 128.8 46 129.169 L 46 141.831 C 46 142.2 47.049 142.5 48.34 142.5 L 92.658 142.5 C 93.951 142.5 95 142.2 95 141.831 L 95 129.169 Z " fill-rule="evenodd" fill="rgb(70,153,236)"/><path d=" M 95 108.169 C 95 107.8 93.951 107.5 92.658 107.5 L 48.34 107.5 C 47.049 107.5 46 107.8 46 108.169 L 46 120.831 C 46 121.2 47.049 121.5 48.34 121.5 L 92.658 121.5 C 93.951 121.5 95 121.2 95 120.831 L 95 108.169 Z " fill-rule="evenodd" fill="rgb(70,153,236)"/><path d=" M 290.609 80.801 C 290.609 77.875 286.701 75.5 281.88 75.5 L 116.721 75.5 C 111.908 75.5 108 77.875 108 80.801 L 108 181.199 C 108 184.125 111.908 186.5 116.721 186.5 L 281.88 186.5 C 286.701 186.5 290.609 184.125 290.609 181.199 L 290.609 80.801 Z " fill-rule="evenodd" fill="rgb(255,255,255)"/><clipPath id="_clipPath_nswQypzQH8459HR2nepJfDJOHqxB5gAj"><path d=" M 290.609 80.801 C 290.609 77.875 286.701 75.5 281.88 75.5 L 116.721 75.5 C 111.908 75.5 108 77.875 108 80.801 L 108 181.199 C 108 184.125 111.908 186.5 116.721 186.5 L 281.88 186.5 C 286.701 186.5 290.609 184.125 290.609 181.199 L 290.609 80.801 Z " fill-rule="evenodd" fill="rgb(255,255,255)"/></clipPath><g clip-path="url(#_clipPath_nswQypzQH8459HR2nepJfDJOHqxB5gAj)"><path d=" M 139 85.984 C 139 84.613 138.636 83.5 138.187 83.5 L 122.812 83.5 C 122.364 83.5 122 84.613 122 85.984 L 122 133.016 C 122 134.387 122.364 135.5 122.812 135.5 L 138.187 135.5 C 138.636 135.5 139 134.387 139 133.016 L 139 85.984 Z " fill-rule="evenodd" fill="rgb(21,142,39)"/><path d=" M 160 139.076 C 160 138.206 159.636 137.5 159.187 137.5 L 143.812 137.5 C 143.364 137.5 143 138.206 143 139.076 L 143 168.924 C 143 169.794 143.364 170.5 143.812 170.5 L 159.187 170.5 C 159.636 170.5 160 169.794 160 168.924 L 160 139.076 Z " fill-rule="evenodd" fill="rgb(240,17,17)"/><path d=" M 184 99.267 C 184 98.292 183.636 97.5 183.187 97.5 L 167.812 97.5 C 167.364 97.5 167 98.292 167 99.267 L 167 132.733 C 167 133.708 167.364 134.5 167.812 134.5 L 183.187 134.5 C 183.636 134.5 184 133.708 184 132.733 L 184 99.267 Z " fill-rule="evenodd" fill="rgb(21,142,39)"/><path d=" M 209 114.503 C 209 113.949 208.636 113.5 208.187 113.5 L 192.812 113.5 C 192.364 113.5 192 113.949 192 114.503 L 192 133.497 C 192 134.051 192.364 134.5 192.812 134.5 L 208.187 134.5 C 208.636 134.5 209 134.051 209 133.497 L 209 114.503 Z " fill-rule="evenodd" fill="rgb(21,142,39)"/><path d=" M 231 135.837 C 231 135.099 230.636 134.5 230.187 134.5 L 214.812 134.5 C 214.364 134.5 214 135.099 214 135.837 L 214 161.163 C 214 161.901 214.364 162.5 214.812 162.5 L 230.187 162.5 C 230.636 162.5 231 161.901 231 161.163 L 231 135.837 Z " fill-rule="evenodd" fill="rgb(240,17,17)"/><path d=" M 258 82.127 C 258 80.677 257.636 79.5 257.187 79.5 L 241.812 79.5 C 241.364 79.5 241 80.677 241 82.127 L 241 131.873 C 241 133.323 241.364 134.5 241.812 134.5 L 257.187 134.5 C 257.636 134.5 258 133.323 258 131.873 L 258 82.127 Z " fill-rule="evenodd" fill="rgb(21,142,39)"/><path d=" M 285 136.267 C 285 135.292 284.636 134.5 284.187 134.5 L 268.812 134.5 C 268.364 134.5 268 135.292 268 136.267 L 268 169.733 C 268 170.708 268.364 171.5 268.812 171.5 L 284.187 171.5 C 284.636 171.5 285 170.708 285 169.733 L 285 136.267 Z " fill-rule="evenodd" fill="rgb(240,17,17)"/></g></g><path d=" M 389.946 61.988 C 389.946 56.37 385.175 51.809 379.289 51.809 L 177.648 51.809 C 171.771 51.809 167 56.37 167 61.988 L 167 254.75 C 167 260.367 171.771 264.928 177.648 264.928 L 379.289 264.928 C 385.175 264.928 389.946 260.367 389.946 254.75 L 389.946 61.988 Z " fill-rule="evenodd" fill="rgb(255,255,255)"/><clipPath id="_clipPath_1bJnwUFJWe9lCPgiDiLw2DPcznUuPRPK"><path d=" M 389.946 61.988 C 389.946 56.37 385.175 51.809 379.289 51.809 L 177.648 51.809 C 171.771 51.809 167 56.37 167 61.988 L 167 254.75 C 167 260.367 171.771 264.928 177.648 264.928 L 379.289 264.928 C 385.175 264.928 389.946 260.367 389.946 254.75 L 389.946 61.988 Z " fill-rule="evenodd" fill="rgb(255,255,255)"/></clipPath><g clip-path="url(#_clipPath_1bJnwUFJWe9lCPgiDiLw2DPcznUuPRPK)"><path d=" M 239 80.498 C 239 80.263 237.652 80.072 235.989 80.072 L 179.009 80.072 C 177.348 80.072 176 80.263 176 80.498 L 176 88.574 C 176 88.809 177.348 89 179.009 89 L 235.989 89 C 237.652 89 239 88.809 239 88.574 L 239 80.498 Z " fill-rule="evenodd" fill="rgb(236,240,247)"/><path d=" M 239 207.498 C 239 207.263 237.652 207.072 235.989 207.072 L 179.009 207.072 C 177.348 207.072 176 207.263 176 207.498 L 176 215.574 C 176 215.809 177.348 216 179.009 216 L 235.989 216 C 237.652 216 239 215.809 239 215.574 L 239 207.498 Z " fill-rule="evenodd" fill="rgb(236,240,247)"/><path d=" M 287 207.498 C 287 207.263 286.315 207.072 285.47 207.072 L 256.528 207.072 C 255.685 207.072 255 207.263 255 207.498 L 255 215.574 C 255 215.809 255.685 216 256.528 216 L 285.47 216 C 286.315 216 287 215.809 287 215.574 L 287 207.498 Z " fill-rule="evenodd" fill="rgb(236,240,247)"/><path d=" M 287 180.498 C 287 180.263 284.625 180.072 281.694 180.072 L 181.301 180.072 C 178.375 180.072 176 180.263 176 180.498 L 176 188.574 C 176 188.809 178.375 189 181.301 189 L 281.694 189 C 284.625 189 287 188.809 287 188.574 L 287 180.498 Z " fill-rule="evenodd" fill="rgb(236,240,247)"/><path d=" M 287 80.498 C 287 80.263 286.155 80.072 285.112 80.072 L 249.388 80.072 C 248.347 80.072 247.502 80.263 247.502 80.498 L 247.502 88.574 C 247.502 88.809 248.347 89 249.388 89 L 285.112 89 C 286.155 89 287 88.809 287 88.574 L 287 80.498 Z " fill-rule="evenodd" fill="rgb(236,240,247)"/><path d=" M 287 103.057 C 287 101.37 284.625 100 281.694 100 L 181.301 100 C 178.375 100 176 101.37 176 103.057 L 176 160.943 C 176 162.63 178.375 164 181.301 164 L 281.694 164 C 284.625 164 287 162.63 287 160.943 L 287 103.057 Z " fill-rule="evenodd" fill="rgb(236,240,247)"/><path d=" M 378.251 86.564 C 378.251 82.981 376.662 80.072 374.702 80.072 L 307.546 80.072 C 305.589 80.072 304 82.981 304 86.564 L 304 209.508 C 304 213.091 305.589 216 307.546 216 L 374.702 216 C 376.662 216 378.251 213.091 378.251 209.508 L 378.251 86.564 Z " fill-rule="evenodd" fill="rgb(236,240,247)"/></g><g><path d=" M 289.848 243.375 C 289.848 249.656 284.754 254.75 278.473 254.75 C 272.192 254.75 267.098 249.656 267.098 243.375 C 267.098 237.094 272.192 232 278.473 232 C 284.754 232 289.848 237.094 289.848 243.375 Z " fill="rgb(43,148,251)"/><path d=" M 276.848 237.957 L 280.098 237.957 L 280.098 248.793 L 276.848 248.793 L 276.848 237.957 Z " fill="rgb(255,255,255)"/><path d=" M 273.055 241.75 L 283.891 241.75 L 283.891 245 L 273.055 245 L 273.055 241.75 Z " fill="rgb(255,255,255)"/></g></g><path d=" M 492 33.682 C 492 26.406 482.37 20.5 470.49 20.5 L 63.492 20.5 C 51.63 20.5 42 26.406 42 33.682 L 42 283.318 C 42 290.594 51.63 296.5 63.492 296.5 L 470.49 296.5 C 482.37 296.5 492 290.594 492 283.318 L 492 33.682 Z " fill-rule="evenodd" fill="transparent" mask="url(#_mask_ZLPWCwO5QEj5F451vLtEnJAezDgPxDBZ)" vector-effect="non-scaling-stroke" stroke-width="2.627" stroke="rgb(0,0,0)" stroke-linejoin="round" stroke-linecap="butt" stroke-miterlimit="1.414"/></g></g></svg>