<?xml version="1.0" encoding="UTF-8" standalone="no"?><!-- Generator: Gravit.io --><svg xmlns="http://www.w3.org/2000/svg" xmlns:xlink="http://www.w3.org/1999/xlink" style="isolation:isolate" viewBox="0 0 200 200" width="200pt" height="200pt"><defs><clipPath id="_clipPath_kPXBsNy4LwGjGOFOR3X18IpqwzovUu6I"><rect width="200" height="200"/></clipPath></defs><g clip-path="url(#_clipPath_kPXBsNy4LwGjGOFOR3X18IpqwzovUu6I)"><g style="isolation:isolate"><circle vector-effect="non-scaling-stroke" cx="100.00000000000001" cy="99.99999999999999" r="99" fill="rgb(6,129,248)" stroke-width="1.3" stroke="rgb(5,39,151)" stroke-linejoin="round" stroke-linecap="butt" stroke-miterlimit="1.414"/><path d=" M 100 7.472 C 151.067 7.472 192.528 48.933 192.528 100 C 192.528 151.067 151.067 192.528 100 192.528 C 48.933 192.528 7.472 151.067 7.472 100 C 7.472 48.933 48.933 7.472 100 7.472 Z  M 100 14.982 C 146.312 14.982 183.914 53.078 183.914 100 C 183.914 146.926 146.312 185.018 100 185.022 C 53.688 185.022 16.086 146.926 16.086 100 C 16.086 53.078 53.688 14.982 100 14.982 Z  M 100 20.606 C 143.818 20.606 179.394 56.182 179.394 100 C 179.394 143.818 143.818 179.394 100 179.394 C 56.182 179.394 20.606 143.818 20.606 100 C 20.606 56.182 56.182 20.606 100 20.606 Z " fill-rule="evenodd" fill="rgb(122,183,234)"/></g><g><g><g><path d=" M 47.119 133.995 L 47.119 149.104 C 47.119 153.276 50.501 156.658 54.673 156.658 L 145.327 156.658 C 149.499 156.658 152.881 153.276 152.881 149.104 L 152.881 133.995 L 47.119 133.995 Z " fill="rgb(181,219,255)"/><path d=" M 147.637 133.995 L 147.637 149.104 C 147.637 153.276 144.255 156.658 140.083 156.658 L 145.327 156.658 C 149.499 156.658 152.881 153.276 152.881 149.104 L 152.881 133.995 L 147.637 133.995 Z " fill="rgb(151,208,255)"/><path d=" M 47.119 73.559 L 47.119 141.549 C 47.119 145.721 50.501 149.103 54.673 149.103 L 145.327 149.103 C 149.499 149.103 152.881 145.721 152.881 141.549 L 152.881 73.559 L 47.119 73.559 Z " fill="rgb(237,245,255)"/><path d=" M 147.637 73.559 L 147.637 141.549 C 147.637 145.721 144.255 149.103 140.083 149.103 L 145.327 149.103 C 149.499 149.103 152.881 145.721 152.881 141.549 L 152.881 73.559 L 147.637 73.559 Z " fill="rgb(213,232,254)"/><path d=" M 152.881 77.337 L 152.881 58.451 C 152.881 54.278 149.499 50.896 145.327 50.896 L 54.673 50.896 C 50.501 50.896 47.119 54.279 47.119 58.451 L 47.119 77.337 L 152.881 77.337 Z " fill="rgb(255,67,91)"/><path d=" M 69.782 58.451 C 69.782 60.537 71.473 62.228 73.56 62.228 C 75.646 62.228 77.337 60.537 77.337 58.451 L 77.337 47.119 C 77.337 45.033 75.646 43.342 73.56 43.342 C 71.473 43.342 69.782 45.033 69.782 47.119 L 69.782 58.451 Z " fill="rgb(89,108,118)"/><path d=" M 122.663 58.451 C 122.663 60.537 124.354 62.228 126.441 62.228 C 128.527 62.228 130.218 60.537 130.218 58.451 L 130.218 47.119 C 130.218 45.033 128.527 43.342 126.441 43.342 C 124.354 43.342 122.663 45.033 122.663 47.119 L 122.663 58.451 Z " fill="rgb(89,108,118)"/><path d=" M 145.327 50.896 L 140.083 50.896 C 144.255 50.896 147.637 54.278 147.637 58.45 L 147.637 77.337 L 152.881 77.337 L 152.881 58.451 C 152.881 54.278 149.499 50.896 145.327 50.896 L 145.327 50.896 Z " fill="rgb(227,55,78)"/></g></g><g><path d=" M 145.327 49.186 L 131.928 49.186 L 131.928 47.119 C 131.928 44.093 129.466 41.632 126.441 41.632 C 123.415 41.632 120.954 44.093 120.954 47.119 L 120.954 49.186 L 79.047 49.186 L 79.047 47.119 C 79.047 44.093 76.585 41.632 73.559 41.632 C 70.534 41.632 68.072 44.093 68.072 47.119 L 68.072 49.186 L 54.673 49.186 C 49.565 49.186 45.409 53.342 45.409 58.45 L 45.409 149.104 C 45.409 154.212 49.565 158.368 54.673 158.368 L 66.363 158.368 C 67.307 158.368 68.073 157.603 68.073 156.658 C 68.073 155.714 67.307 154.948 66.363 154.948 L 54.673 154.948 C 51.451 154.948 48.829 152.327 48.829 149.104 L 48.829 148.731 C 50.425 150.032 52.459 150.814 54.673 150.814 L 145.327 150.814 C 147.541 150.814 149.575 150.032 151.171 148.731 L 151.171 149.104 C 151.171 152.327 148.549 154.948 145.327 154.948 L 73.202 154.948 C 72.258 154.948 71.492 155.714 71.492 156.658 C 71.492 157.603 72.258 158.368 73.202 158.368 L 145.327 158.368 C 150.435 158.368 154.591 154.212 154.591 149.104 L 154.591 58.451 C 154.591 53.342 150.435 49.186 145.327 49.186 L 145.327 49.186 Z  M 124.374 47.119 C 124.374 45.979 125.301 45.052 126.441 45.052 C 127.58 45.052 128.508 45.979 128.508 47.119 L 128.508 58.451 C 128.508 59.591 127.58 60.518 126.441 60.518 C 125.301 60.518 124.374 59.591 124.374 58.451 L 124.374 47.119 Z  M 71.492 47.119 C 71.492 45.979 72.42 45.052 73.559 45.052 C 74.699 45.052 75.627 45.979 75.627 47.119 L 75.627 58.451 C 75.627 59.591 74.699 60.518 73.559 60.518 C 72.42 60.518 71.492 59.591 71.492 58.451 L 71.492 47.119 Z  M 151.171 141.549 C 151.171 144.772 148.549 147.394 145.327 147.394 L 54.673 147.394 C 51.451 147.394 48.829 144.772 48.829 141.549 L 48.829 79.047 L 151.171 79.047 L 151.171 141.549 Z  M 151.171 68.072 L 129.861 68.072 C 128.916 68.072 128.151 68.838 128.151 69.782 C 128.151 70.727 128.916 71.492 129.861 71.492 L 151.171 71.492 L 151.171 75.627 L 48.829 75.627 L 48.829 71.492 L 123.021 71.492 C 123.965 71.492 124.731 70.727 124.731 69.782 C 124.731 68.838 123.965 68.072 123.021 68.072 L 48.829 68.072 L 48.829 58.451 C 48.829 55.228 51.451 52.606 54.673 52.606 L 68.072 52.606 L 68.072 56.741 L 66.005 56.741 C 65.061 56.741 64.295 57.506 64.295 58.451 C 64.295 59.395 65.061 60.161 66.005 60.161 L 68.347 60.161 C 69.067 62.351 71.131 63.938 73.56 63.938 C 75.988 63.938 78.052 62.351 78.773 60.161 L 81.114 60.161 C 82.058 60.161 82.824 59.395 82.824 58.451 C 82.824 57.506 82.058 56.741 81.114 56.741 L 79.047 56.741 L 79.047 52.606 L 120.953 52.606 L 120.953 56.74 L 118.886 56.74 C 117.941 56.74 117.176 57.506 117.176 58.451 C 117.176 59.395 117.941 60.161 118.886 60.161 L 121.228 60.161 C 121.948 62.351 124.012 63.938 126.441 63.938 C 128.869 63.938 130.933 62.351 131.653 60.161 L 133.995 60.161 C 134.94 60.161 135.705 59.395 135.705 58.451 C 135.705 57.506 134.94 56.74 133.995 56.74 L 131.928 56.74 L 131.928 52.606 L 145.327 52.606 C 148.55 52.606 151.171 55.228 151.171 58.45 L 151.171 68.072 L 151.171 68.072 Z " fill="rgb(0,0,0)"/></g></g><g><g><mask id="_mask_qQvhwn6cxGDCdb3eZQiOA6jQQR1Jrwrm" x="-200%" y="-200%" width="400%" height="400%"><rect x="-200%" y="-200%" width="400%" height="400%" style="fill:white;"/><path d=" M 73.902 94.589 C 73.354 93.888 72.627 93.537 71.72 93.537 C 70.916 93.537 70.368 93.691 70.078 93.999 C 69.786 94.307 69.162 95.128 68.204 96.463 C 67.245 97.798 66.146 99.004 64.906 100.082 C 63.665 101.16 62.009 102.187 59.939 103.162 C 58.553 103.813 57.586 104.343 57.039 104.753 C 56.491 105.164 56.217 105.806 56.217 106.678 C 56.217 107.431 56.495 108.094 57.052 108.667 C 57.607 109.241 58.245 109.527 58.964 109.527 C 60.469 109.527 63.395 107.859 67.742 104.522 L 67.742 127.879 C 67.742 129.248 68.058 130.283 68.692 130.985 C 69.325 131.686 70.163 132.037 71.207 132.037 C 73.551 132.037 74.723 130.317 74.723 126.878 L 74.723 97.49 C 74.723 96.258 74.449 95.291 73.902 94.589 Z " fill="black" stroke="none"/></mask><path d=" M 73.902 94.589 C 73.354 93.888 72.627 93.537 71.72 93.537 C 70.916 93.537 70.368 93.691 70.078 93.999 C 69.786 94.307 69.162 95.128 68.204 96.463 C 67.245 97.798 66.146 99.004 64.906 100.082 C 63.665 101.16 62.009 102.187 59.939 103.162 C 58.553 103.813 57.586 104.343 57.039 104.753 C 56.491 105.164 56.217 105.806 56.217 106.678 C 56.217 107.431 56.495 108.094 57.052 108.667 C 57.607 109.241 58.245 109.527 58.964 109.527 C 60.469 109.527 63.395 107.859 67.742 104.522 L 67.742 127.879 C 67.742 129.248 68.058 130.283 68.692 130.985 C 69.325 131.686 70.163 132.037 71.207 132.037 C 73.551 132.037 74.723 130.317 74.723 126.878 L 74.723 97.49 C 74.723 96.258 74.449 95.291 73.902 94.589 Z " fill="rgb(247,3,3)" mask="url(#_mask_qQvhwn6cxGDCdb3eZQiOA6jQQR1Jrwrm)" vector-effect="non-scaling-stroke" stroke-width="4" stroke="rgb(0,0,0)" stroke-linejoin="miter" stroke-linecap="butt" stroke-miterlimit="4"/><path d=" M 73.902 94.589 C 73.354 93.888 72.627 93.537 71.72 93.537 C 70.916 93.537 70.368 93.691 70.078 93.999 C 69.786 94.307 69.162 95.128 68.204 96.463 C 67.245 97.798 66.146 99.004 64.906 100.082 C 63.665 101.16 62.009 102.187 59.939 103.162 C 58.553 103.813 57.586 104.343 57.039 104.753 C 56.491 105.164 56.217 105.806 56.217 106.678 C 56.217 107.431 56.495 108.094 57.052 108.667 C 57.607 109.241 58.245 109.527 58.964 109.527 C 60.469 109.527 63.395 107.859 67.742 104.522 L 67.742 127.879 C 67.742 129.248 68.058 130.283 68.692 130.985 C 69.325 131.686 70.163 132.037 71.207 132.037 C 73.551 132.037 74.723 130.317 74.723 126.878 L 74.723 97.49 C 74.723 96.258 74.449 95.291 73.902 94.589 Z " fill="rgb(247,3,3)"/><path d=" M 141.682 100.044 C 140.871 98.293 139.88 96.824 138.71 95.635 C 137.54 94.446 136.181 93.544 134.633 92.926 C 133.085 92.309 131.362 92 129.464 92 C 126.589 92 124.115 92.696 122.042 94.087 C 119.969 95.479 118.388 97.501 117.301 100.154 C 116.674 101.758 116.213 103.675 115.919 105.904 C 115.624 108.134 115.476 110.641 115.476 113.423 C 115.476 115.579 115.61 117.583 115.877 119.435 C 116.144 121.287 116.564 122.978 117.135 124.508 C 118.259 127.309 119.931 129.502 122.152 131.087 C 124.373 132.672 126.884 133.464 129.685 133.464 C 132.117 133.464 134.329 132.874 136.319 131.695 C 138.309 130.516 139.931 128.839 141.184 126.664 C 142.18 124.895 142.861 122.923 143.23 120.748 C 143.598 118.574 143.783 115.976 143.783 112.953 C 143.783 107.388 143.082 103.084 141.682 100.044 Z  M 135.628 121.025 C 135.241 123.218 134.568 124.904 133.61 126.083 C 132.652 127.263 131.325 127.853 129.629 127.853 C 127.989 127.853 126.69 127.286 125.732 126.153 C 124.774 125.019 124.092 123.347 123.686 121.136 C 123.281 118.924 123.078 116.086 123.078 112.621 C 123.078 107.517 123.552 103.739 124.502 101.288 C 125.451 98.837 127.141 97.611 129.574 97.611 C 131.269 97.611 132.596 98.16 133.554 99.256 C 134.512 100.353 135.194 101.975 135.6 104.121 C 136.005 106.268 136.208 109.028 136.208 112.4 C 136.208 115.957 136.015 118.832 135.628 121.025 Z " fill="rgb(247,3,3)" vector-effect="non-scaling-stroke" stroke-width="2" stroke="rgb(0,0,0)" stroke-linejoin="miter" stroke-linecap="butt" stroke-miterlimit="4"/><path d=" M 109.819 116.84 C 109.302 115.54 108.535 114.396 107.519 113.409 C 106.503 112.423 105.224 111.625 103.682 111.016 C 105.496 110.113 106.861 108.951 107.778 107.53 C 108.694 106.11 109.152 104.496 109.152 102.689 C 109.152 101.268 108.889 99.927 108.363 98.663 C 107.836 97.4 107.029 96.266 105.941 95.26 C 104.853 94.255 103.492 93.467 101.859 92.895 C 100.227 92.323 98.331 92.037 96.172 92.037 C 93.614 92.037 91.378 92.526 89.465 93.503 C 87.55 94.481 86.099 95.786 85.111 97.418 C 84.122 99.051 83.628 100.789 83.628 102.633 C 83.628 106.451 85.487 109.246 89.206 111.016 C 84.598 112.861 82.294 116.264 82.294 121.225 C 82.294 123.549 82.839 125.648 83.927 127.52 C 85.015 129.392 86.63 130.863 88.771 131.932 C 90.911 133.002 93.487 133.537 96.499 133.537 C 99.401 133.537 101.923 133.002 104.063 131.932 C 106.204 130.863 107.828 129.383 108.934 127.492 C 110.041 125.601 110.594 123.494 110.594 121.17 C 110.594 119.584 110.336 118.14 109.819 116.84 Z  M 92.213 98.94 C 93.256 97.861 94.63 97.321 96.335 97.321 C 97.46 97.321 98.458 97.57 99.328 98.068 C 100.199 98.566 100.875 99.249 101.356 100.116 C 101.836 100.983 102.077 101.96 102.077 103.048 C 102.077 103.86 101.941 104.602 101.669 105.275 C 101.396 105.949 101.011 106.53 100.512 107.018 C 100.013 107.507 99.414 107.89 98.716 108.167 C 98.017 108.443 97.242 108.581 96.39 108.581 C 94.703 108.581 93.324 108.061 92.253 107.018 C 91.183 105.977 90.648 104.671 90.648 103.103 C 90.648 101.407 91.169 100.019 92.213 98.94 Z  M 102.267 124.767 C 101.687 125.873 100.888 126.731 99.873 127.34 C 98.857 127.948 97.714 128.253 96.444 128.253 C 95.192 128.253 94.058 127.953 93.043 127.353 C 92.026 126.754 91.224 125.906 90.634 124.808 C 90.045 123.711 89.75 122.443 89.75 121.004 C 89.75 118.754 90.376 117.002 91.627 115.747 C 92.879 114.493 94.43 113.866 96.281 113.866 C 97.587 113.866 98.766 114.152 99.818 114.723 C 100.87 115.295 101.686 116.116 102.267 117.186 C 102.847 118.256 103.138 119.51 103.138 120.948 C 103.138 122.387 102.848 123.66 102.267 124.767 Z " fill="rgb(247,3,3)" vector-effect="non-scaling-stroke" stroke-width="2" stroke="rgb(0,0,0)" stroke-linejoin="miter" stroke-linecap="butt" stroke-miterlimit="4"/></g></g></g></svg>