<?xml version="1.0" encoding="UTF-8" standalone="no"?><!-- Generator: Gravit.io --><svg xmlns="http://www.w3.org/2000/svg" xmlns:xlink="http://www.w3.org/1999/xlink" style="isolation:isolate" viewBox="0 0 200 200" width="200pt" height="200pt"><defs><clipPath id="_clipPath_Nxmxrnp3n97Y8w0n8bJugkea6vLc1nXa"><rect width="200" height="200"/></clipPath></defs><g clip-path="url(#_clipPath_Nxmxrnp3n97Y8w0n8bJugkea6vLc1nXa)"><g style="isolation:isolate"><circle vector-effect="non-scaling-stroke" cx="100.00000000000001" cy="99.99999999999999" r="99" fill="rgb(6,129,248)" stroke-width="1.3" stroke="rgb(5,39,151)" stroke-linejoin="round" stroke-linecap="butt" stroke-miterlimit="1.414"/><path d=" M 100 7.472 C 151.067 7.472 192.528 48.933 192.528 100 C 192.528 151.067 151.067 192.528 100 192.528 C 48.933 192.528 7.472 151.067 7.472 100 C 7.472 48.933 48.933 7.472 100 7.472 Z  M 100 14.982 C 146.312 14.982 183.914 53.078 183.914 100 C 183.914 146.926 146.312 185.018 100 185.022 C 53.688 185.022 16.086 146.926 16.086 100 C 16.086 53.078 53.688 14.982 100 14.982 Z  M 100 20.606 C 143.818 20.606 179.394 56.182 179.394 100 C 179.394 143.818 143.818 179.394 100 179.394 C 56.182 179.394 20.606 143.818 20.606 100 C 20.606 56.182 56.182 20.606 100 20.606 Z " fill-rule="evenodd" fill="rgb(122,183,234)"/></g><g><g><g><path d=" M 47.119 133.995 L 47.119 149.104 C 47.119 153.276 50.501 156.658 54.673 156.658 L 145.327 156.658 C 149.499 156.658 152.881 153.276 152.881 149.104 L 152.881 133.995 L 47.119 133.995 Z " fill="rgb(181,219,255)"/><path d=" M 147.637 133.995 L 147.637 149.104 C 147.637 153.276 144.255 156.658 140.083 156.658 L 145.327 156.658 C 149.499 156.658 152.881 153.276 152.881 149.104 L 152.881 133.995 L 147.637 133.995 Z " fill="rgb(151,208,255)"/><path d=" M 47.119 73.559 L 47.119 141.549 C 47.119 145.721 50.501 149.103 54.673 149.103 L 145.327 149.103 C 149.499 149.103 152.881 145.721 152.881 141.549 L 152.881 73.559 L 47.119 73.559 Z " fill="rgb(237,245,255)"/><path d=" M 147.637 73.559 L 147.637 141.549 C 147.637 145.721 144.255 149.103 140.083 149.103 L 145.327 149.103 C 149.499 149.103 152.881 145.721 152.881 141.549 L 152.881 73.559 L 147.637 73.559 Z " fill="rgb(213,232,254)"/><path d=" M 152.881 77.337 L 152.881 58.451 C 152.881 54.278 149.499 50.896 145.327 50.896 L 54.673 50.896 C 50.501 50.896 47.119 54.279 47.119 58.451 L 47.119 77.337 L 152.881 77.337 Z " fill="rgb(255,67,91)"/><path d=" M 69.782 58.451 C 69.782 60.537 71.473 62.228 73.56 62.228 C 75.646 62.228 77.337 60.537 77.337 58.451 L 77.337 47.119 C 77.337 45.033 75.646 43.342 73.56 43.342 C 71.473 43.342 69.782 45.033 69.782 47.119 L 69.782 58.451 Z " fill="rgb(89,108,118)"/><path d=" M 122.663 58.451 C 122.663 60.537 124.354 62.228 126.441 62.228 C 128.527 62.228 130.218 60.537 130.218 58.451 L 130.218 47.119 C 130.218 45.033 128.527 43.342 126.441 43.342 C 124.354 43.342 122.663 45.033 122.663 47.119 L 122.663 58.451 Z " fill="rgb(89,108,118)"/><path d=" M 145.327 50.896 L 140.083 50.896 C 144.255 50.896 147.637 54.278 147.637 58.45 L 147.637 77.337 L 152.881 77.337 L 152.881 58.451 C 152.881 54.278 149.499 50.896 145.327 50.896 L 145.327 50.896 Z " fill="rgb(227,55,78)"/></g></g><g><path d=" M 145.327 49.186 L 131.928 49.186 L 131.928 47.119 C 131.928 44.093 129.466 41.632 126.441 41.632 C 123.415 41.632 120.954 44.093 120.954 47.119 L 120.954 49.186 L 79.047 49.186 L 79.047 47.119 C 79.047 44.093 76.585 41.632 73.559 41.632 C 70.534 41.632 68.072 44.093 68.072 47.119 L 68.072 49.186 L 54.673 49.186 C 49.565 49.186 45.409 53.342 45.409 58.45 L 45.409 149.104 C 45.409 154.212 49.565 158.368 54.673 158.368 L 66.363 158.368 C 67.307 158.368 68.073 157.603 68.073 156.658 C 68.073 155.714 67.307 154.948 66.363 154.948 L 54.673 154.948 C 51.451 154.948 48.829 152.327 48.829 149.104 L 48.829 148.731 C 50.425 150.032 52.459 150.814 54.673 150.814 L 145.327 150.814 C 147.541 150.814 149.575 150.032 151.171 148.731 L 151.171 149.104 C 151.171 152.327 148.549 154.948 145.327 154.948 L 73.202 154.948 C 72.258 154.948 71.492 155.714 71.492 156.658 C 71.492 157.603 72.258 158.368 73.202 158.368 L 145.327 158.368 C 150.435 158.368 154.591 154.212 154.591 149.104 L 154.591 58.451 C 154.591 53.342 150.435 49.186 145.327 49.186 L 145.327 49.186 Z  M 124.374 47.119 C 124.374 45.979 125.301 45.052 126.441 45.052 C 127.58 45.052 128.508 45.979 128.508 47.119 L 128.508 58.451 C 128.508 59.591 127.58 60.518 126.441 60.518 C 125.301 60.518 124.374 59.591 124.374 58.451 L 124.374 47.119 Z  M 71.492 47.119 C 71.492 45.979 72.42 45.052 73.559 45.052 C 74.699 45.052 75.627 45.979 75.627 47.119 L 75.627 58.451 C 75.627 59.591 74.699 60.518 73.559 60.518 C 72.42 60.518 71.492 59.591 71.492 58.451 L 71.492 47.119 Z  M 151.171 141.549 C 151.171 144.772 148.549 147.394 145.327 147.394 L 54.673 147.394 C 51.451 147.394 48.829 144.772 48.829 141.549 L 48.829 79.047 L 151.171 79.047 L 151.171 141.549 Z  M 151.171 68.072 L 129.861 68.072 C 128.916 68.072 128.151 68.838 128.151 69.782 C 128.151 70.727 128.916 71.492 129.861 71.492 L 151.171 71.492 L 151.171 75.627 L 48.829 75.627 L 48.829 71.492 L 123.021 71.492 C 123.965 71.492 124.731 70.727 124.731 69.782 C 124.731 68.838 123.965 68.072 123.021 68.072 L 48.829 68.072 L 48.829 58.451 C 48.829 55.228 51.451 52.606 54.673 52.606 L 68.072 52.606 L 68.072 56.741 L 66.005 56.741 C 65.061 56.741 64.295 57.506 64.295 58.451 C 64.295 59.395 65.061 60.161 66.005 60.161 L 68.347 60.161 C 69.067 62.351 71.131 63.938 73.56 63.938 C 75.988 63.938 78.052 62.351 78.773 60.161 L 81.114 60.161 C 82.058 60.161 82.824 59.395 82.824 58.451 C 82.824 57.506 82.058 56.741 81.114 56.741 L 79.047 56.741 L 79.047 52.606 L 120.953 52.606 L 120.953 56.74 L 118.886 56.74 C 117.941 56.74 117.176 57.506 117.176 58.451 C 117.176 59.395 117.941 60.161 118.886 60.161 L 121.228 60.161 C 121.948 62.351 124.012 63.938 126.441 63.938 C 128.869 63.938 130.933 62.351 131.653 60.161 L 133.995 60.161 C 134.94 60.161 135.705 59.395 135.705 58.451 C 135.705 57.506 134.94 56.74 133.995 56.74 L 131.928 56.74 L 131.928 52.606 L 145.327 52.606 C 148.55 52.606 151.171 55.228 151.171 58.45 L 151.171 68.072 L 151.171 68.072 Z " fill="rgb(0,0,0)"/></g></g><g><g><path d=" M 144.682 100.044 C 143.871 98.293 142.88 96.824 141.71 95.635 C 140.54 94.446 139.181 93.544 137.633 92.926 C 136.085 92.309 134.362 92 132.464 92 C 129.589 92 127.115 92.696 125.042 94.087 C 122.969 95.479 121.388 97.501 120.301 100.154 C 119.674 101.758 119.213 103.675 118.919 105.904 C 118.624 108.134 118.476 110.641 118.476 113.423 C 118.476 115.579 118.61 117.583 118.877 119.435 C 119.144 121.287 119.564 122.978 120.135 124.508 C 121.259 127.309 122.931 129.502 125.152 131.087 C 127.373 132.672 129.884 133.464 132.685 133.464 C 135.117 133.464 137.329 132.874 139.319 131.695 C 141.309 130.516 142.931 128.839 144.184 126.664 C 145.18 124.895 145.861 122.923 146.23 120.748 C 146.598 118.574 146.783 115.976 146.783 112.953 C 146.783 107.388 146.082 103.084 144.682 100.044 Z  M 138.628 121.025 C 138.241 123.218 137.568 124.904 136.61 126.083 C 135.652 127.263 134.325 127.853 132.629 127.853 C 130.989 127.853 129.69 127.286 128.732 126.153 C 127.774 125.019 127.092 123.347 126.686 121.136 C 126.281 118.924 126.078 116.086 126.078 112.621 C 126.078 107.517 126.552 103.739 127.502 101.288 C 128.451 98.837 130.141 97.611 132.574 97.611 C 134.269 97.611 135.596 98.16 136.554 99.256 C 137.512 100.353 138.194 101.975 138.6 104.121 C 139.005 106.268 139.208 109.028 139.208 112.4 C 139.208 115.957 139.015 118.832 138.628 121.025 Z " fill="rgb(255,200,0)" vector-effect="non-scaling-stroke" stroke-width="2" stroke="rgb(0,0,0)" stroke-linejoin="miter" stroke-linecap="butt" stroke-miterlimit="4"/><mask id="_mask_jMdSLZhqwfau3xdhhvSSoiEnjWVkKVea" x="-200%" y="-200%" width="400%" height="400%"><rect x="-200%" y="-200%" width="400%" height="400%" style="fill:white;"/><path d=" M 79.322 116.844 C 78.842 115.678 78.125 114.614 77.173 113.653 C 76.22 112.692 75.05 111.837 73.661 111.089 C 75.103 109.879 76.211 108.637 76.986 107.364 C 77.76 106.092 78.147 104.565 78.147 102.785 C 78.147 101.432 77.88 100.168 77.346 98.993 C 76.812 97.818 76.02 96.786 74.97 95.896 C 73.919 95.006 72.682 94.325 71.258 93.853 C 69.834 93.382 68.258 93.145 66.532 93.145 C 64.556 93.145 62.767 93.426 61.165 93.986 C 59.562 94.547 58.223 95.291 57.146 96.216 C 56.069 97.142 55.25 98.116 54.689 99.14 C 54.128 100.164 53.848 101.138 53.848 102.064 C 53.848 103.025 54.146 103.795 54.743 104.374 C 55.339 104.952 55.993 105.241 56.705 105.241 C 57.31 105.241 57.844 105.135 58.307 104.921 C 58.77 104.707 59.09 104.414 59.269 104.04 C 59.571 103.345 59.905 102.607 60.27 101.824 C 60.634 101.04 61.022 100.399 61.431 99.901 C 61.841 99.403 62.397 99.002 63.1 98.699 C 63.803 98.397 64.698 98.245 65.784 98.245 C 67.386 98.245 68.659 98.739 69.602 99.727 C 70.546 100.715 71.018 101.895 71.018 103.265 C 71.018 105.064 70.426 106.443 69.242 107.404 C 68.058 108.365 66.647 108.846 65.01 108.846 L 63.915 108.846 C 62.651 108.846 61.699 109.109 61.058 109.634 C 60.417 110.159 60.096 110.849 60.096 111.703 C 60.096 112.576 60.363 113.257 60.898 113.746 C 61.432 114.236 62.188 114.48 63.167 114.48 C 63.381 114.48 63.862 114.445 64.609 114.374 C 65.357 114.303 65.908 114.267 66.265 114.267 C 68.294 114.267 69.878 114.859 71.018 116.042 C 72.157 117.227 72.727 118.859 72.727 120.942 C 72.727 122.349 72.393 123.586 71.725 124.654 C 71.058 125.722 70.212 126.528 69.189 127.071 C 68.165 127.614 67.101 127.885 65.998 127.885 C 64.075 127.885 62.584 127.284 61.525 126.083 C 60.466 124.881 59.473 123.043 58.548 120.568 C 58.405 120.159 58.102 119.807 57.64 119.514 C 57.177 119.22 56.696 119.073 56.198 119.073 C 55.201 119.073 54.369 119.389 53.701 120.021 C 53.034 120.653 52.7 121.486 52.7 122.518 C 52.7 123.319 52.98 124.333 53.541 125.562 C 54.102 126.79 54.93 127.978 56.024 129.127 C 57.119 130.275 58.512 131.232 60.203 131.997 C 61.894 132.762 63.808 133.145 65.944 133.145 C 68.045 133.145 69.963 132.812 71.699 132.144 C 73.434 131.476 74.934 130.551 76.198 129.367 C 77.462 128.183 78.419 126.835 79.069 125.322 C 79.718 123.809 80.043 122.242 80.043 120.622 C 80.043 119.27 79.803 118.01 79.322 116.844 Z " fill="black" stroke="none"/></mask><path d=" M 79.322 116.844 C 78.842 115.678 78.125 114.614 77.173 113.653 C 76.22 112.692 75.05 111.837 73.661 111.089 C 75.103 109.879 76.211 108.637 76.986 107.364 C 77.76 106.092 78.147 104.565 78.147 102.785 C 78.147 101.432 77.88 100.168 77.346 98.993 C 76.812 97.818 76.02 96.786 74.97 95.896 C 73.919 95.006 72.682 94.325 71.258 93.853 C 69.834 93.382 68.258 93.145 66.532 93.145 C 64.556 93.145 62.767 93.426 61.165 93.986 C 59.562 94.547 58.223 95.291 57.146 96.216 C 56.069 97.142 55.25 98.116 54.689 99.14 C 54.128 100.164 53.848 101.138 53.848 102.064 C 53.848 103.025 54.146 103.795 54.743 104.374 C 55.339 104.952 55.993 105.241 56.705 105.241 C 57.31 105.241 57.844 105.135 58.307 104.921 C 58.77 104.707 59.09 104.414 59.269 104.04 C 59.571 103.345 59.905 102.607 60.27 101.824 C 60.634 101.04 61.022 100.399 61.431 99.901 C 61.841 99.403 62.397 99.002 63.1 98.699 C 63.803 98.397 64.698 98.245 65.784 98.245 C 67.386 98.245 68.659 98.739 69.602 99.727 C 70.546 100.715 71.018 101.895 71.018 103.265 C 71.018 105.064 70.426 106.443 69.242 107.404 C 68.058 108.365 66.647 108.846 65.01 108.846 L 63.915 108.846 C 62.651 108.846 61.699 109.109 61.058 109.634 C 60.417 110.159 60.096 110.849 60.096 111.703 C 60.096 112.576 60.363 113.257 60.898 113.746 C 61.432 114.236 62.188 114.48 63.167 114.48 C 63.381 114.48 63.862 114.445 64.609 114.374 C 65.357 114.303 65.908 114.267 66.265 114.267 C 68.294 114.267 69.878 114.859 71.018 116.042 C 72.157 117.227 72.727 118.859 72.727 120.942 C 72.727 122.349 72.393 123.586 71.725 124.654 C 71.058 125.722 70.212 126.528 69.189 127.071 C 68.165 127.614 67.101 127.885 65.998 127.885 C 64.075 127.885 62.584 127.284 61.525 126.083 C 60.466 124.881 59.473 123.043 58.548 120.568 C 58.405 120.159 58.102 119.807 57.64 119.514 C 57.177 119.22 56.696 119.073 56.198 119.073 C 55.201 119.073 54.369 119.389 53.701 120.021 C 53.034 120.653 52.7 121.486 52.7 122.518 C 52.7 123.319 52.98 124.333 53.541 125.562 C 54.102 126.79 54.93 127.978 56.024 129.127 C 57.119 130.275 58.512 131.232 60.203 131.997 C 61.894 132.762 63.808 133.145 65.944 133.145 C 68.045 133.145 69.963 132.812 71.699 132.144 C 73.434 131.476 74.934 130.551 76.198 129.367 C 77.462 128.183 78.419 126.835 79.069 125.322 C 79.718 123.809 80.043 122.242 80.043 120.622 C 80.043 119.27 79.803 118.01 79.322 116.844 Z " fill="rgb(255,200,0)" mask="url(#_mask_jMdSLZhqwfau3xdhhvSSoiEnjWVkKVea)" vector-effect="non-scaling-stroke" stroke-width="4" stroke="rgb(0,0,0)" stroke-linejoin="miter" stroke-linecap="butt" stroke-miterlimit="4"/><path d=" M 79.322 116.844 C 78.842 115.678 78.125 114.614 77.173 113.653 C 76.22 112.692 75.05 111.837 73.661 111.089 C 75.103 109.879 76.211 108.637 76.986 107.364 C 77.76 106.092 78.147 104.565 78.147 102.785 C 78.147 101.432 77.88 100.168 77.346 98.993 C 76.812 97.818 76.02 96.786 74.97 95.896 C 73.919 95.006 72.682 94.325 71.258 93.853 C 69.834 93.382 68.258 93.145 66.532 93.145 C 64.556 93.145 62.767 93.426 61.165 93.986 C 59.562 94.547 58.223 95.291 57.146 96.216 C 56.069 97.142 55.25 98.116 54.689 99.14 C 54.128 100.164 53.848 101.138 53.848 102.064 C 53.848 103.025 54.146 103.795 54.743 104.374 C 55.339 104.952 55.993 105.241 56.705 105.241 C 57.31 105.241 57.844 105.135 58.307 104.921 C 58.77 104.707 59.09 104.414 59.269 104.04 C 59.571 103.345 59.905 102.607 60.27 101.824 C 60.634 101.04 61.022 100.399 61.431 99.901 C 61.841 99.403 62.397 99.002 63.1 98.699 C 63.803 98.397 64.698 98.245 65.784 98.245 C 67.386 98.245 68.659 98.739 69.602 99.727 C 70.546 100.715 71.018 101.895 71.018 103.265 C 71.018 105.064 70.426 106.443 69.242 107.404 C 68.058 108.365 66.647 108.846 65.01 108.846 L 63.915 108.846 C 62.651 108.846 61.699 109.109 61.058 109.634 C 60.417 110.159 60.096 110.849 60.096 111.703 C 60.096 112.576 60.363 113.257 60.898 113.746 C 61.432 114.236 62.188 114.48 63.167 114.48 C 63.381 114.48 63.862 114.445 64.609 114.374 C 65.357 114.303 65.908 114.267 66.265 114.267 C 68.294 114.267 69.878 114.859 71.018 116.042 C 72.157 117.227 72.727 118.859 72.727 120.942 C 72.727 122.349 72.393 123.586 71.725 124.654 C 71.058 125.722 70.212 126.528 69.189 127.071 C 68.165 127.614 67.101 127.885 65.998 127.885 C 64.075 127.885 62.584 127.284 61.525 126.083 C 60.466 124.881 59.473 123.043 58.548 120.568 C 58.405 120.159 58.102 119.807 57.64 119.514 C 57.177 119.22 56.696 119.073 56.198 119.073 C 55.201 119.073 54.369 119.389 53.701 120.021 C 53.034 120.653 52.7 121.486 52.7 122.518 C 52.7 123.319 52.98 124.333 53.541 125.562 C 54.102 126.79 54.93 127.978 56.024 129.127 C 57.119 130.275 58.512 131.232 60.203 131.997 C 61.894 132.762 63.808 133.145 65.944 133.145 C 68.045 133.145 69.963 132.812 71.699 132.144 C 73.434 131.476 74.934 130.551 76.198 129.367 C 77.462 128.183 78.419 126.835 79.069 125.322 C 79.718 123.809 80.043 122.242 80.043 120.622 C 80.043 119.27 79.803 118.01 79.322 116.844 Z " fill="rgb(255,200,0)"/><path d=" M 113.131 114.792 C 112.515 113.131 111.642 111.689 110.513 110.466 C 109.383 109.243 108.067 108.301 106.565 107.638 C 105.062 106.975 103.424 106.644 101.651 106.644 C 99.803 106.644 98.132 107.008 96.639 107.736 C 95.145 108.464 93.764 109.584 92.495 111.096 C 92.737 106.018 93.54 102.49 94.903 100.512 C 95.575 99.541 96.401 98.771 97.381 98.202 C 98.361 97.633 99.345 97.348 100.335 97.348 C 101.567 97.348 102.649 97.689 103.583 98.37 C 104.516 99.051 105.197 99.952 105.627 101.072 C 105.944 101.949 106.439 102.635 107.111 103.13 C 107.783 103.625 108.511 103.872 109.295 103.872 C 110.191 103.872 110.928 103.56 111.507 102.934 C 112.085 102.309 112.375 101.614 112.375 100.848 C 112.375 99.579 111.913 98.254 110.989 96.872 C 110.065 95.491 108.693 94.334 106.873 93.4 C 105.053 92.467 102.948 92 100.559 92 C 98.076 92 95.864 92.467 93.923 93.4 C 91.981 94.334 90.329 95.715 88.967 97.544 C 87.604 99.374 86.559 101.679 85.831 104.46 C 85.103 107.242 84.739 110.396 84.739 113.924 C 84.739 118.255 85.341 121.918 86.545 124.914 C 87.749 127.91 89.489 130.174 91.767 131.704 C 94.044 133.235 96.75 134 99.886 134 C 102.612 134 105.052 133.398 107.208 132.194 C 109.365 130.99 111.044 129.315 112.248 127.168 C 113.452 125.022 114.054 122.632 114.054 120 C 114.055 118.189 113.747 116.453 113.131 114.792 Z  M 104.731 126.174 C 103.499 127.714 101.94 128.484 100.055 128.484 C 98.076 128.484 96.433 127.644 95.127 125.964 C 93.82 124.284 93.167 122.184 93.167 119.664 C 93.167 118.096 93.489 116.729 94.133 115.562 C 94.777 114.395 95.626 113.504 96.681 112.888 C 97.735 112.272 98.841 111.964 99.999 111.964 C 101.212 111.964 102.323 112.286 103.331 112.93 C 104.339 113.574 105.132 114.507 105.711 115.73 C 106.289 116.952 106.579 118.413 106.579 120.112 C 106.579 122.613 105.963 124.634 104.731 126.174 Z " fill="rgb(255,200,0)" vector-effect="non-scaling-stroke" stroke-width="2" stroke="rgb(0,0,0)" stroke-linejoin="miter" stroke-linecap="butt" stroke-miterlimit="4"/></g></g></g></svg>