<?xml version="1.0" encoding="UTF-8" standalone="no"?><!-- Generator: Gravit.io --><svg xmlns="http://www.w3.org/2000/svg" xmlns:xlink="http://www.w3.org/1999/xlink" style="isolation:isolate" viewBox="0 0 200 200" width="200pt" height="200pt"><defs><clipPath id="_clipPath_nD5pb5pCxSEfIyXJFIFxgBFbKjONqgNQ"><rect width="200" height="200"/></clipPath></defs><g clip-path="url(#_clipPath_nD5pb5pCxSEfIyXJFIFxgBFbKjONqgNQ)"><g style="isolation:isolate"><circle vector-effect="non-scaling-stroke" cx="100.00000000000001" cy="99.99999999999999" r="99" fill="rgb(6,129,248)" stroke-width="1.3" stroke="rgb(5,39,151)" stroke-linejoin="round" stroke-linecap="butt" stroke-miterlimit="1.414"/><path d=" M 100 7.472 C 151.067 7.472 192.528 48.933 192.528 100 C 192.528 151.067 151.067 192.528 100 192.528 C 48.933 192.528 7.472 151.067 7.472 100 C 7.472 48.933 48.933 7.472 100 7.472 Z  M 100 14.982 C 146.312 14.982 183.914 53.078 183.914 100 C 183.914 146.926 146.312 185.018 100 185.022 C 53.688 185.022 16.086 146.926 16.086 100 C 16.086 53.078 53.688 14.982 100 14.982 Z  M 100 20.606 C 143.818 20.606 179.394 56.182 179.394 100 C 179.394 143.818 143.818 179.394 100 179.394 C 56.182 179.394 20.606 143.818 20.606 100 C 20.606 56.182 56.182 20.606 100 20.606 Z " fill-rule="evenodd" fill="rgb(122,183,234)"/></g><g><path d=" M 165.329 106.75 L 165.329 120.696 C 165.329 125.292 162.269 131.251 156.843 137.061 C 150.799 143.531 141.821 149.812 130.864 153.813 C 130.275 156.492 128.947 160.596 126.008 163.958 C 124.373 165.83 121.397 165.628 119.975 163.59 C 118.76 161.85 117.454 159.602 116.815 157.291 C 102.774 158.429 88.732 158.406 74.691 157.212 C 74.06 159.549 72.738 161.829 71.508 163.59 C 70.085 165.628 67.109 165.83 65.474 163.958 C 61.928 159.899 60.726 154.762 60.34 152.354 C 52.695 147.364 47.432 139.036 46.564 129.414 C 45.549 118.136 45.549 106.857 46.564 95.579 C 47.897 80.807 59.58 69.085 74.357 67.807 C 74.544 67.791 74.733 67.776 74.92 67.76 C 89.321 66.548 103.72 66.564 118.121 67.807 C 132.901 69.085 144.584 80.807 145.915 95.579 C 145.959 96.074 145.999 96.568 146.041 97.062 C 150.31 98.348 154.503 98.831 157.881 98.965 C 162.048 99.131 165.329 102.58 165.329 106.75 L 165.329 106.75 Z " fill="rgb(218,74,84)"/><path d=" M 156.843 137.061 C 150.799 143.531 141.821 149.812 130.864 153.813 C 130.275 156.492 128.947 160.596 126.008 163.958 C 124.373 165.83 121.397 165.628 119.975 163.59 C 118.76 161.85 117.454 159.602 116.815 157.291 C 102.774 158.429 88.732 158.406 74.691 157.212 C 74.06 159.549 72.738 161.829 71.508 163.59 C 70.085 165.628 67.109 165.83 65.474 163.958 C 61.928 159.899 60.726 154.762 60.34 152.354 C 52.695 147.364 47.432 139.036 46.564 129.414 C 45.549 118.136 45.549 106.857 46.564 95.579 C 47.897 80.807 59.58 69.085 74.357 67.807 C 74.544 67.791 74.733 67.776 74.92 67.76 C 68.069 89.044 66.967 125.089 79.024 137.143 C 90.086 148.206 134.003 144.701 156.843 137.061 L 156.843 137.061 Z " fill="rgb(216,46,61)"/><path d=" M 136.104 82.85 C 136.104 82.85 144.452 69.006 144.452 61.809 C 144.452 61.809 129.739 54.834 119.851 72.329" fill="rgb(218,74,84)"/><path d=" M 114.252 62.039 C 114.252 69.766 111.042 76.743 105.878 81.707 C 92.463 79.661 76.705 81.023 68.392 82.035 C 63.029 77.053 59.672 69.939 59.672 62.039 C 59.672 46.968 71.891 34.751 86.96 34.751 C 102.032 34.751 114.252 46.968 114.252 62.039 L 114.252 62.039 Z " fill="rgb(244,221,69)"/><circle vector-effect="non-scaling-stroke" cx="86.96148748146578" cy="62.03922626078679" r="18.42679690799875" fill="rgb(255,194,80)"/><path d=" M 157.96 96.996 C 154.399 96.855 151.018 96.365 147.89 95.537 C 147.886 95.493 147.882 95.448 147.878 95.404 C 147.304 89.022 144.923 83.058 140.975 78.071 C 143.437 73.229 146.423 66.409 146.423 61.808 C 146.423 61.047 145.985 60.353 145.296 60.027 C 145.126 59.946 141.071 58.058 135.682 58.544 C 129.431 59.108 124.856 62.485 121.624 66.307 C 120.527 66.097 119.411 65.941 118.29 65.844 C 117.499 65.775 116.74 65.713 116.004 65.657 C 116.149 64.467 116.223 63.26 116.223 62.04 C 116.223 56.085 114.444 50.353 111.078 45.466 C 110.46 44.569 109.232 44.343 108.335 44.961 C 107.439 45.579 107.212 46.807 107.83 47.703 C 110.741 51.93 112.28 56.887 112.28 62.041 C 112.28 68.673 109.766 74.876 105.183 79.615 C 102.957 79.305 100.677 79.081 98.384 78.932 C 103.796 75.26 107.36 69.058 107.36 62.039 C 107.36 50.792 98.209 41.641 86.961 41.641 C 75.714 41.641 66.563 50.792 66.563 62.039 C 66.563 69.285 70.364 75.656 76.073 79.276 C 73.45 79.489 71.084 79.734 69.088 79.967 C 64.347 75.235 61.644 68.754 61.644 62.041 C 61.644 48.081 73.001 36.724 86.96 36.724 C 92.733 36.724 98.378 38.717 102.857 42.335 C 103.704 43.019 104.945 42.888 105.63 42.04 C 106.314 41.193 106.182 39.952 105.335 39.268 C 100.157 35.084 93.632 32.78 86.96 32.78 C 70.826 32.78 57.7 45.906 57.7 62.04 C 57.7 65.13 58.197 68.177 59.139 71.071 C 51.359 76.201 46.118 84.482 44.798 93.729 C 37.188 94.748 32.699 102.29 32.699 109.602 C 32.699 110.691 33.582 111.574 34.671 111.574 C 35.76 111.574 36.642 110.691 36.642 109.602 C 36.642 104.403 39.502 99.049 44.4 97.816 C 43.586 108.374 43.652 119.051 44.6 129.589 C 45.032 134.388 46.473 138.925 48.884 143.072 C 49.25 143.702 49.911 144.053 50.591 144.053 C 50.927 144.053 51.268 143.967 51.58 143.785 C 52.521 143.238 52.841 142.031 52.293 141.09 C 50.174 137.445 48.907 133.456 48.528 129.235 C 47.528 118.128 47.528 106.864 48.528 95.758 C 49.29 87.306 53.772 79.629 60.648 74.812 C 61.644 76.866 62.88 78.806 64.335 80.585 C 63.04 80.772 62.3 80.897 62.248 80.906 C 61.174 81.088 60.451 82.105 60.633 83.179 C 60.815 84.252 61.831 84.975 62.906 84.794 C 62.928 84.791 65.118 84.422 68.63 83.992 C 76.762 83.002 92.375 81.642 105.581 83.656 C 107.578 83.96 109.457 84.332 111.168 84.763 C 111.329 84.803 111.491 84.823 111.65 84.823 C 112.532 84.823 113.336 84.226 113.561 83.331 C 113.826 82.275 113.185 81.204 112.129 80.938 C 111.367 80.747 110.573 80.567 109.755 80.398 C 112.357 77.187 114.218 73.506 115.257 69.556 C 116.12 69.621 117.01 69.692 117.951 69.773 C 118.306 69.804 118.661 69.842 119.014 69.886 C 118.701 70.384 118.407 70.877 118.134 71.36 C 117.598 72.308 117.932 73.511 118.88 74.046 C 119.828 74.582 121.031 74.248 121.567 73.3 C 128.909 60.311 138.919 62.042 142.384 63.134 C 141.619 68.86 136.488 78.392 134.415 81.833 C 133.853 82.765 134.153 83.977 135.086 84.539 C 135.404 84.731 135.755 84.822 136.102 84.822 C 136.77 84.822 137.422 84.483 137.792 83.869 C 137.866 83.746 138.293 83.034 138.919 81.919 C 141.769 86.002 143.499 90.731 143.951 95.759 C 143.981 96.089 144.009 96.419 144.036 96.749 L 144.076 97.231 C 144.145 98.037 144.698 98.719 145.473 98.952 C 149.27 100.096 153.419 100.764 157.804 100.937 C 160.918 101.06 163.358 103.614 163.358 106.751 L 163.358 120.697 C 163.358 125.052 160.042 131.021 154.489 136.667 C 148.131 143.13 139.501 148.562 130.188 151.962 C 129.554 152.193 129.083 152.732 128.938 153.391 C 128.373 155.963 127.148 159.659 124.524 162.662 C 124.021 163.237 123.388 163.294 123.054 163.274 C 122.463 163.242 121.93 162.945 121.592 162.46 C 120.182 160.439 119.187 158.47 118.715 156.764 C 118.463 155.852 117.598 155.246 116.655 155.324 C 102.772 156.452 88.71 156.426 74.859 155.246 C 73.906 155.165 73.036 155.776 72.788 156.697 C 72.322 158.423 71.321 160.416 69.89 162.461 C 69.553 162.945 69.02 163.241 68.428 163.274 C 68.095 163.293 67.462 163.236 66.959 162.662 C 63.677 158.905 62.599 153.984 62.287 152.042 C 62.199 151.493 61.883 151.007 61.417 150.703 C 59.741 149.61 58.177 148.335 56.766 146.913 C 56 146.139 54.751 146.134 53.978 146.9 C 53.205 147.667 53.2 148.916 53.966 149.689 C 55.369 151.104 56.906 152.391 58.545 153.524 C 59.118 156.495 60.534 161.301 63.99 165.256 C 65.16 166.596 66.857 167.308 68.644 167.211 C 70.455 167.112 72.089 166.202 73.124 164.718 C 74.432 162.848 75.422 161.033 76.081 159.302 C 89.132 160.333 102.354 160.357 115.433 159.375 C 116.09 161.08 117.071 162.87 118.358 164.715 C 119.395 166.202 121.028 167.112 122.839 167.211 C 122.948 167.217 123.056 167.22 123.163 167.22 C 124.83 167.22 126.394 166.515 127.493 165.256 C 130.314 162.029 131.78 158.223 132.537 155.293 C 142.008 151.678 150.77 146.071 157.301 139.431 C 163.656 132.971 167.301 126.143 167.301 120.697 L 167.301 106.751 C 167.301 101.489 163.198 97.205 157.96 96.996 L 157.96 96.996 Z  M 70.506 62.039 C 70.506 52.966 77.888 45.584 86.961 45.584 C 96.035 45.584 103.417 52.966 103.417 62.039 C 103.417 71.113 96.035 78.494 86.961 78.494 C 77.888 78.495 70.506 71.113 70.506 62.039 L 70.506 62.039 Z " fill="rgb(0,0,0)"/><path d=" M 125.75 105.442 C 124.692 105.701 124.045 106.769 124.304 107.826 C 124.564 108.884 125.63 109.53 126.689 109.272 C 131.443 108.106 136.261 111.026 137.426 115.78 C 138.592 120.535 135.672 125.352 130.918 126.518 C 129.86 126.777 129.213 127.845 129.472 128.902 C 129.693 129.802 130.499 130.405 131.386 130.405 C 131.541 130.405 131.699 130.387 131.857 130.348 C 138.723 128.664 142.94 121.708 141.256 114.841 C 140.806 113.007 139.978 111.364 138.878 109.97 C 140.56 108.721 141.735 105.916 141.735 102.661 C 141.735 98.248 139.575 94.658 136.92 94.658 C 134.265 94.658 132.105 98.248 132.105 102.661 C 132.105 103.701 132.226 104.695 132.445 105.607 C 130.335 104.978 128.038 104.881 125.75 105.442 L 125.75 105.442 Z " fill="rgb(0,0,0)"/><path d=" M 161.164 113.529 L 161.164 109.602 C 161.164 108.513 160.281 107.63 159.192 107.63 C 158.103 107.63 157.221 108.513 157.221 109.602 L 157.221 113.529 C 157.221 114.618 158.103 115.501 159.192 115.501 C 160.281 115.501 161.164 114.618 161.164 113.529 Z " fill="rgb(0,0,0)"/><path d=" M 88.782 73.575 C 92.608 72.828 94.938 70.01 95.327 67.229 C 95.787 63.937 93.688 61.113 89.98 60.033 C 89.586 59.918 89.184 59.799 88.782 59.676 L 88.782 54.233 C 89.854 54.493 90.486 54.928 90.533 54.962 C 91.42 55.592 92.651 55.384 93.282 54.496 C 93.913 53.608 93.704 52.377 92.816 51.747 C 92.438 51.478 90.994 50.547 88.782 50.214 L 88.782 49.414 C 88.782 48.325 87.899 47.442 86.81 47.442 C 85.721 47.442 84.839 48.325 84.839 49.414 L 84.839 50.338 C 84.684 50.37 84.527 50.405 84.369 50.445 C 81.714 51.103 79.73 53.139 79.315 55.632 C 78.958 57.77 79.834 59.806 81.6 60.947 C 82.439 61.489 83.465 61.987 84.839 62.506 L 84.839 69.773 C 83.679 69.674 82.805 69.396 81.443 68.662 C 80.484 68.146 79.288 68.504 78.772 69.463 C 78.349 70.248 78.512 71.192 79.112 71.792 C 79.245 71.925 79.399 72.041 79.572 72.134 C 81.633 73.245 83.07 73.615 84.839 73.725 L 84.839 74.665 C 84.839 75.209 85.059 75.702 85.416 76.059 C 85.773 76.416 86.266 76.636 86.81 76.636 C 87.899 76.636 88.782 75.754 88.782 74.665 L 88.782 73.575 Z  M 83.74 57.634 C 83.143 57.249 83.148 56.62 83.205 56.281 C 83.314 55.626 83.803 54.84 84.839 54.426 L 84.839 58.231 C 84.43 58.039 84.058 57.84 83.74 57.634 Z  M 88.878 63.819 C 90.676 64.343 91.603 65.387 91.421 66.683 C 91.268 67.782 90.328 68.933 88.782 69.486 L 88.782 63.791 C 88.815 63.801 88.845 63.81 88.878 63.819 L 88.878 63.819 Z " fill="rgb(0,0,0)"/></g><g><path d=" M 181.575 184.865 L 153.065 184.865 C 149.129 184.865 145.937 181.801 145.937 178.027 L 145.937 150.673 C 145.937 146.897 149.13 143.835 153.065 143.835 L 181.575 143.835 C 185.511 143.835 188.703 146.899 188.703 150.673 L 188.703 178.027 C 188.703 181.803 185.51 184.865 181.575 184.865 Z " fill="rgb(200,230,201)"/><path d=" M 179.895 153.621 L 163.775 169.105 L 157.12 162.738 L 153.761 165.962 L 163.78 175.551 L 183.255 156.844 L 179.895 153.621 Z " fill="rgb(76,175,80)"/></g></g></svg>