<?xml version="1.0" encoding="UTF-8" standalone="no"?><!-- Generator: Gravit.io --><svg xmlns="http://www.w3.org/2000/svg" xmlns:xlink="http://www.w3.org/1999/xlink" style="isolation:isolate" viewBox="0 0 200 200" width="200pt" height="200pt"><defs><clipPath id="_clipPath_8qx35R8xjclPQm3NgFxXIYUtXLhoxi4y"><rect width="200" height="200"/></clipPath></defs><g clip-path="url(#_clipPath_8qx35R8xjclPQm3NgFxXIYUtXLhoxi4y)"><g style="isolation:isolate"><circle vector-effect="non-scaling-stroke" cx="100.00000000000001" cy="99.99999999999999" r="99" fill="rgb(6,129,248)" stroke-width="1.3" stroke="rgb(5,39,151)" stroke-linejoin="round" stroke-linecap="butt" stroke-miterlimit="1.414"/><path d=" M 100 7.472 C 151.067 7.472 192.528 48.933 192.528 100 C 192.528 151.067 151.067 192.528 100 192.528 C 48.933 192.528 7.472 151.067 7.472 100 C 7.472 48.933 48.933 7.472 100 7.472 Z  M 100 14.982 C 146.312 14.982 183.914 53.078 183.914 100 C 183.914 146.926 146.312 185.018 100 185.022 C 53.688 185.022 16.086 146.926 16.086 100 C 16.086 53.078 53.688 14.982 100 14.982 Z  M 100 20.606 C 143.818 20.606 179.394 56.182 179.394 100 C 179.394 143.818 143.818 179.394 100 179.394 C 56.182 179.394 20.606 143.818 20.606 100 C 20.606 56.182 56.182 20.606 100 20.606 Z " fill-rule="evenodd" fill="rgb(122,183,234)"/></g><g><g><linearGradient id="_lgradient_0" x1="0.04652554928922558" y1="0.6893308383578174" x2="0.8975219733501228" y2="0.19800838202794852" gradientTransform="matrix(131,0,0,117.933,34.5,42.517)" gradientUnits="userSpaceOnUse"><stop offset="0%" stop-opacity="0" style="stop-color:rgb(220,253,238)"/><stop offset="62.88%" stop-opacity="1" style="stop-color:rgb(210,243,228)"/></linearGradient><path d=" M 38.613 113.478 C 43.404 129.854 57.215 163.259 80.554 160.261 C 103.961 157.253 94.82 127.069 116.248 122.933 C 125.681 121.111 132.075 137.437 141.529 136.929 C 153.704 136.275 159.902 124.222 163.304 114.09 C 170.519 92.606 159.715 56.176 134.428 49.866 C 112.362 44.36 109.781 71.321 90.594 63.49 C 79.81 59.089 80.887 45.944 67.753 43.292 C 28.018 35.269 32.237 91.688 38.613 113.478 L 38.613 113.478 Z " fill="url(#_lgradient_0)"/></g><g><g><g><g><g opacity="0.1"><path d=" M 124.11 164 L 75.89 164 C 71.651 164 68.214 160.564 68.214 156.324 L 68.214 58.924 C 68.214 54.685 71.651 51.248 75.89 51.248 L 124.11 51.248 C 128.35 51.248 131.786 54.685 131.786 58.924 L 131.786 156.324 C 131.786 160.563 128.35 164 124.11 164 Z " fill="rgb(38,38,188)"/></g><path d=" M 124.11 157.859 L 75.89 157.859 C 71.651 157.859 68.214 154.423 68.214 150.184 L 68.214 52.783 C 68.214 48.544 71.651 45.107 75.89 45.107 L 124.11 45.107 C 128.35 45.107 131.786 48.544 131.786 52.783 L 131.786 150.183 C 131.786 154.423 128.35 157.859 124.11 157.859 Z " fill="rgb(101,131,254)"/><path d=" M 68.215 56.086 L 131.785 56.086 L 131.785 146.88 L 68.215 146.88 L 68.215 56.086 Z " fill="rgb(45,88,224)"/><path d=" M 95.708 89.42 L 82.674 89.42 C 81.261 89.42 80.115 88.275 80.115 86.862 L 80.115 74.833 C 80.115 73.42 81.261 72.275 82.674 72.275 L 95.708 72.275 C 97.121 72.275 98.267 73.42 98.267 74.833 L 98.267 86.862 C 98.267 88.275 97.121 89.42 95.708 89.42 L 95.708 89.42 Z " fill="rgb(31,80,201)"/><path d=" M 117.435 89.348 L 104.401 89.348 C 102.988 89.348 101.842 88.203 101.842 86.79 L 101.842 74.761 C 101.842 73.348 102.988 72.203 104.401 72.203 L 117.435 72.203 C 118.848 72.203 119.994 73.348 119.994 74.761 L 119.994 86.79 C 119.994 88.203 118.848 89.348 117.435 89.348 Z " fill="rgb(31,80,201)"/><g><path d=" M 131.713 72.203 L 131.713 89.348 L 126.2 89.348 C 124.787 89.348 123.641 88.202 123.641 86.789 L 123.641 74.761 C 123.641 73.349 124.787 72.203 126.2 72.203 L 131.713 72.203 Z " fill="rgb(31,80,201)"/></g><g><path d=" M 113.776 61.569 L 86.225 61.569 C 85.518 61.569 84.945 62.142 84.945 62.848 C 84.945 63.555 85.518 64.128 86.225 64.128 L 113.776 64.128 C 114.482 64.128 115.055 63.555 115.055 62.848 C 115.055 62.142 114.482 61.569 113.776 61.569 Z " fill="rgb(255,255,255)"/></g><g><g><path d=" M 95.708 86.731 L 82.674 86.731 C 81.261 86.731 80.115 85.585 80.115 84.172 L 80.115 72.144 C 80.115 70.731 81.261 69.585 82.674 69.585 L 95.708 69.585 C 97.121 69.585 98.267 70.731 98.267 72.144 L 98.267 84.172 C 98.267 85.585 97.121 86.731 95.708 86.731 L 95.708 86.731 Z " fill="rgb(255,126,184)"/><g><path d=" M 92.988 81.384 L 87.697 81.384 C 86.99 81.384 86.417 81.957 86.417 82.664 C 86.417 83.37 86.99 83.943 87.697 83.943 L 92.988 83.943 C 93.694 83.943 94.267 83.37 94.267 82.664 C 94.267 81.957 93.694 81.384 92.988 81.384 Z " fill="rgb(255,255,255)"/><path d=" M 92.988 77.206 L 91.534 77.206 C 90.828 77.206 90.255 77.779 90.255 78.485 C 90.255 79.192 90.828 79.765 91.534 79.765 L 92.988 79.765 C 93.694 79.765 94.267 79.192 94.267 78.485 C 94.267 77.779 93.694 77.206 92.988 77.206 Z " fill="rgb(255,255,255)"/></g></g><g><path d=" M 117.435 86.659 L 104.401 86.659 C 102.988 86.659 101.842 85.513 101.842 84.1 L 101.842 72.072 C 101.842 70.659 102.988 69.513 104.401 69.513 L 117.435 69.513 C 118.848 69.513 119.994 70.659 119.994 72.072 L 119.994 84.1 C 119.994 85.513 118.848 86.659 117.435 86.659 Z " fill="rgb(2,255,179)"/><g><path d=" M 114.715 81.312 L 109.424 81.312 C 108.717 81.312 108.145 81.885 108.145 82.592 C 108.145 83.298 108.717 83.871 109.424 83.871 L 114.715 83.871 C 115.422 83.871 115.995 83.298 115.995 82.592 C 115.995 81.885 115.422 81.312 114.715 81.312 Z " fill="rgb(255,255,255)"/><path d=" M 114.715 77.134 L 113.262 77.134 C 112.555 77.134 111.982 77.707 111.982 78.413 C 111.982 79.12 112.555 79.693 113.262 79.693 L 114.715 79.693 C 115.422 79.693 115.995 79.12 115.995 78.413 C 115.995 77.707 115.422 77.134 114.715 77.134 Z " fill="rgb(255,255,255)"/></g></g><g><path d=" M 131.713 69.513 L 131.713 86.659 L 126.2 86.659 C 124.787 86.659 123.641 85.512 123.641 84.1 L 123.641 72.072 C 123.641 70.66 124.787 69.513 126.2 69.513 L 131.713 69.513 Z " fill="rgb(159,176,254)"/></g></g><path d=" M 68.215 146.88 L 68.215 99.613 C 68.215 96.082 71.078 93.216 74.611 93.216 L 125.389 93.216 C 128.922 93.216 131.785 96.082 131.785 99.613 L 131.785 146.88 L 68.215 146.88 Z " fill="rgb(255,255,255)"/><path d=" M 124.11 159.138 L 75.89 159.138 C 70.952 159.138 66.935 155.121 66.935 150.183 L 66.935 52.784 C 66.935 47.846 70.952 43.828 75.89 43.828 L 124.11 43.828 C 129.048 43.828 133.065 47.846 133.065 52.784 L 133.065 150.184 C 133.065 155.121 129.048 159.138 124.11 159.138 Z  M 75.89 46.387 C 72.363 46.387 69.493 49.256 69.493 52.784 L 69.493 150.184 C 69.493 153.711 72.363 156.58 75.89 156.58 L 124.11 156.58 C 127.637 156.58 130.507 153.711 130.507 150.184 L 130.507 52.784 C 130.507 49.256 127.637 46.387 124.11 46.387 L 75.89 46.387 Z " fill="rgb(38,38,188)"/><g><path d=" M 104.473 52.111 L 95.527 52.111 C 94.82 52.111 94.248 51.538 94.248 50.831 C 94.248 50.125 94.82 49.552 95.527 49.552 L 104.473 49.552 C 105.18 49.552 105.753 50.125 105.753 50.831 C 105.753 51.538 105.18 52.111 104.473 52.111 Z " fill="rgb(183,197,255)"/></g><circle vector-effect="non-scaling-stroke" cx="110.44243656795435" cy="50.830795917570974" r="1.2798090905028374" fill="rgb(183,197,255)"/></g></g><g><g><path d=" M 94.523 101.483 L 89.232 101.483 C 88.525 101.483 87.952 102.056 87.952 102.763 C 87.952 103.469 88.525 104.042 89.232 104.042 L 94.523 104.042 C 95.23 104.042 95.802 103.469 95.802 102.763 C 95.802 102.056 95.23 101.483 94.523 101.483 Z " fill="rgb(0,216,144)"/><path d=" M 120.621 106.67 L 89.232 106.67 C 88.525 106.67 87.952 107.243 87.952 107.95 C 87.952 108.656 88.525 109.229 89.232 109.229 L 120.621 109.229 C 121.327 109.229 121.9 108.656 121.9 107.95 C 121.9 107.243 121.327 106.67 120.621 106.67 Z " fill="rgb(159,176,254)"/></g><path d=" M 81.815 109.229 L 76.628 109.229 C 75.922 109.229 75.349 108.656 75.349 107.95 L 75.349 102.763 C 75.349 102.056 75.922 101.484 76.628 101.484 L 81.815 101.484 C 82.522 101.484 83.094 102.056 83.094 102.763 L 83.094 107.95 C 83.094 108.656 82.522 109.229 81.815 109.229 Z " fill="rgb(2,255,179)"/></g><g><g><path d=" M 94.523 117.332 L 89.232 117.332 C 88.525 117.332 87.952 117.905 87.952 118.612 C 87.952 119.318 88.525 119.891 89.232 119.891 L 94.523 119.891 C 95.23 119.891 95.802 119.318 95.802 118.612 C 95.802 117.905 95.23 117.332 94.523 117.332 Z " fill="rgb(255,91,168)"/><path d=" M 120.621 122.519 L 89.232 122.519 C 88.525 122.519 87.952 123.092 87.952 123.798 C 87.952 124.505 88.525 125.078 89.232 125.078 L 120.621 125.078 C 121.327 125.078 121.9 124.505 121.9 123.798 C 121.9 123.092 121.327 122.519 120.621 122.519 Z " fill="rgb(159,176,254)"/></g><path d=" M 81.815 125.078 L 76.628 125.078 C 75.922 125.078 75.349 124.505 75.349 123.798 L 75.349 118.612 C 75.349 117.905 75.922 117.332 76.628 117.332 L 81.815 117.332 C 82.522 117.332 83.094 117.905 83.094 118.612 L 83.094 123.798 C 83.094 124.505 82.522 125.078 81.815 125.078 Z " fill="rgb(255,126,184)"/></g><g><g><path d=" M 94.523 133.181 L 89.232 133.181 C 88.525 133.181 87.952 133.754 87.952 134.46 C 87.952 135.167 88.525 135.74 89.232 135.74 L 94.523 135.74 C 95.23 135.74 95.802 135.167 95.802 134.46 C 95.802 133.754 95.23 133.181 94.523 133.181 Z " fill="rgb(101,131,254)"/><path d=" M 120.621 138.368 L 89.232 138.368 C 88.525 138.368 87.952 138.941 87.952 139.647 C 87.952 140.353 88.525 140.926 89.232 140.926 L 120.621 140.926 C 121.327 140.926 121.9 140.353 121.9 139.647 C 121.9 138.941 121.327 138.368 120.621 138.368 Z " fill="rgb(159,176,254)"/></g><path d=" M 81.815 140.926 L 76.628 140.926 C 75.922 140.926 75.349 140.353 75.349 139.647 L 75.349 134.46 C 75.349 133.754 75.922 133.181 76.628 133.181 L 81.815 133.181 C 82.522 133.181 83.094 133.754 83.094 134.46 L 83.094 139.647 C 83.094 140.353 82.522 140.926 81.815 140.926 Z " fill="rgb(159,176,254)"/></g></g><path d=" M 141.535 139.396 C 139.519 139.396 137.879 137.756 137.879 135.739 C 137.879 133.723 139.519 132.083 141.535 132.083 C 143.551 132.083 145.192 133.723 145.192 135.739 C 145.192 137.756 143.551 139.396 141.535 139.396 Z  M 141.535 134.641 C 140.93 134.641 140.437 135.134 140.437 135.74 C 140.437 136.345 140.93 136.838 141.535 136.838 C 142.141 136.838 142.633 136.345 142.633 135.74 C 142.633 135.134 142.141 134.641 141.535 134.641 Z " fill="rgb(101,131,254)"/><path d=" M 55.716 84.941 C 55.009 84.941 54.436 84.368 54.436 83.662 C 54.436 82.815 53.748 82.127 52.901 82.127 C 52.195 82.127 51.622 81.554 51.622 80.847 C 51.622 80.141 52.195 79.568 52.901 79.568 C 53.748 79.568 54.436 78.88 54.436 78.033 C 54.436 77.327 55.009 76.754 55.716 76.754 C 56.422 76.754 56.995 77.327 56.995 78.033 C 56.995 78.88 57.683 79.568 58.53 79.568 C 59.237 79.568 59.809 80.141 59.809 80.847 C 59.809 81.554 59.237 82.127 58.53 82.127 C 57.683 82.127 56.995 82.815 56.995 83.662 C 56.995 84.368 56.422 84.941 55.716 84.941 Z " fill="rgb(1,236,165)"/><path d=" M 145.198 150.974 C 144.491 150.974 143.919 150.402 143.919 149.695 C 143.919 148.849 143.23 148.16 142.384 148.16 C 141.677 148.16 141.104 147.587 141.104 146.881 C 141.104 146.174 141.677 145.601 142.384 145.601 C 143.23 145.601 143.919 144.913 143.919 144.066 C 143.919 143.36 144.491 142.787 145.198 142.787 C 145.905 142.787 146.477 143.36 146.477 144.066 C 146.477 144.913 147.166 145.601 148.013 145.601 C 148.719 145.601 149.292 146.174 149.292 146.881 C 149.292 147.587 148.719 148.16 148.013 148.16 C 147.166 148.16 146.477 148.849 146.477 149.695 C 146.477 150.402 145.905 150.974 145.198 150.974 Z " fill="rgb(1,236,165)"/><g><path d=" M 148.013 76.296 C 147.306 76.296 146.733 75.724 146.733 75.017 C 146.733 74.171 146.045 73.482 145.198 73.482 C 144.491 73.482 143.919 72.909 143.919 72.203 C 143.919 71.496 144.491 70.923 145.198 70.923 C 146.045 70.923 146.733 70.235 146.733 69.388 C 146.733 68.682 147.306 68.109 148.013 68.109 C 148.719 68.109 149.292 68.682 149.292 69.388 C 149.292 70.235 149.98 70.923 150.827 70.923 C 151.534 70.923 152.106 71.496 152.106 72.203 C 152.106 72.909 151.534 73.482 150.827 73.482 C 149.98 73.482 149.292 74.171 149.292 75.017 C 149.292 75.724 148.719 76.296 148.013 76.296 Z " fill="rgb(255,91,168)"/><path d=" M 53.082 97.554 C 52.376 97.554 51.803 96.981 51.803 96.275 C 51.803 95.428 51.115 94.74 50.268 94.74 C 49.561 94.74 48.989 94.167 48.989 93.461 C 48.989 92.754 49.561 92.181 50.268 92.181 C 51.115 92.181 51.803 91.493 51.803 90.646 C 51.803 89.94 52.376 89.367 53.082 89.367 C 53.789 89.367 54.362 89.94 54.362 90.646 C 54.362 91.493 55.05 92.181 55.897 92.181 C 56.603 92.181 57.176 92.754 57.176 93.461 C 57.176 94.167 56.603 94.74 55.897 94.74 C 55.05 94.74 54.362 95.428 54.362 96.275 C 54.362 96.981 53.789 97.554 53.082 97.554 Z " fill="rgb(255,91,168)"/></g></g></g></g></svg>