<?xml version="1.0" encoding="UTF-8" standalone="no"?><!-- Generator: Gravit.io --><svg xmlns="http://www.w3.org/2000/svg" xmlns:xlink="http://www.w3.org/1999/xlink" style="isolation:isolate" viewBox="0 0 200 200" width="200pt" height="200pt"><defs><clipPath id="_clipPath_faVhEIWNfWQXHu6O784xW3ToPmatjA3p"><rect width="200" height="200"/></clipPath></defs><g clip-path="url(#_clipPath_faVhEIWNfWQXHu6O784xW3ToPmatjA3p)"><g style="isolation:isolate"><circle vector-effect="non-scaling-stroke" cx="100.00000000000001" cy="99.99999999999999" r="99" fill="rgb(6,129,248)" stroke-width="1.3" stroke="rgb(5,39,151)" stroke-linejoin="round" stroke-linecap="butt" stroke-miterlimit="1.414"/><path d=" M 100 7.472 C 151.067 7.472 192.528 48.933 192.528 100 C 192.528 151.067 151.067 192.528 100 192.528 C 48.933 192.528 7.472 151.067 7.472 100 C 7.472 48.933 48.933 7.472 100 7.472 Z  M 100 14.982 C 146.312 14.982 183.914 53.078 183.914 100 C 183.914 146.926 146.312 185.018 100 185.022 C 53.688 185.022 16.086 146.926 16.086 100 C 16.086 53.078 53.688 14.982 100 14.982 Z  M 100 20.606 C 143.818 20.606 179.394 56.182 179.394 100 C 179.394 143.818 143.818 179.394 100 179.394 C 56.182 179.394 20.606 143.818 20.606 100 C 20.606 56.182 56.182 20.606 100 20.606 Z " fill-rule="evenodd" fill="rgb(122,183,234)"/></g><g><path d=" M 84.064 54.899 L 133.729 54.899 C 137.384 54.899 140.347 57.862 140.347 61.516 L 140.347 112.644 C 140.347 116.299 137.384 119.261 133.729 119.261 L 84.064 119.261 C 80.41 119.261 77.447 116.299 77.447 112.644 L 77.447 61.516 C 77.447 57.862 80.41 54.899 84.064 54.899 Z " fill="rgb(255,145,85)"/><path d=" M 111.149 70.542 L 118.256 63.435 L 91.848 37.027 L 58.333 70.542 L 111.149 70.542 Z " fill="rgb(70,195,115)"/><path d=" M 71.889 121.992 L 71.889 70.502 L 59.991 70.502 C 55.683 70.502 52.19 67.009 52.19 62.7 L 52.19 63.328 L 52.19 121.992 C 52.19 126.301 55.683 129.793 59.991 129.793 L 122.598 129.793 C 122.598 129.793 122.598 129.793 122.599 129.793 L 79.69 129.793 C 75.381 129.793 71.889 126.301 71.889 121.992 Z " fill="rgb(255,255,255)"/><path d=" M 130.4 121.992 L 130.4 107.949 L 130.4 91.566 L 130.4 78.303 C 130.4 73.995 126.907 70.502 122.598 70.502 L 79.69 70.502 L 71.889 70.502 L 71.889 121.992 C 71.889 126.301 75.381 129.793 79.69 129.793 L 122.599 129.793 C 126.907 129.793 130.4 126.301 130.4 121.992 Z " fill="rgb(255,160,105)"/><path d=" M 112.716 104.894 C 112.716 100.585 116.209 97.092 120.518 97.092 L 148.148 97.092 L 148.148 85.13 L 148.148 84.74 C 148.148 88.941 144.743 92.346 140.542 92.346 L 104.85 92.346 C 100.541 92.346 97.048 95.839 97.048 100.148 L 97.048 100.148 C 97.048 104.457 100.541 107.949 104.85 107.949 L 113.338 107.949 C 112.938 107.011 112.716 105.978 112.716 104.894 L 112.716 104.894 Z " fill="rgb(255,255,255)"/><path d=" M 148.148 100.148 L 148.148 97.092 L 120.518 97.092 C 116.209 97.092 112.716 100.585 112.716 104.894 L 112.716 104.894 C 112.716 105.978 112.938 107.011 113.338 107.949 L 140.347 107.949 C 144.655 107.949 148.148 104.456 148.148 100.148 Z " fill="rgb(255,130,75)"/><path d=" M 100.602 33.955 L 64.015 70.542 L 80.204 70.542 L 108.696 42.049 L 100.602 33.955 Z " fill="rgb(255,255,255)"/><path d=" M 108.696 42.049 L 80.204 70.542 L 122.975 70.542 L 130.081 63.435 L 108.696 42.049 Z " fill="rgb(215,250,145)"/><g><path d=" M 93.495 41.062 C 95.314 42.881 97.826 44.006 100.602 44.006 C 103.377 44.006 105.89 42.881 107.709 41.062 L 100.602 33.955 L 93.495 41.062 Z " fill="rgb(70,195,115)"/><path d=" M 122.975 70.542 L 122.975 70.542 L 130.082 63.435 L 122.975 56.328 C 121.156 58.147 120.031 60.659 120.031 63.435 C 120.031 66.21 121.156 68.723 122.975 70.542 Z " fill="rgb(70,195,115)"/></g><path d=" M 92.769 62.965 C 87.751 61.116 81.896 62.202 77.867 66.232 C 76.586 67.512 75.607 68.978 74.92 70.542 L 84.72 70.542 C 85.407 68.978 86.387 67.512 87.667 66.232 C 89.162 64.737 90.908 63.65 92.769 62.965 Z " fill="rgb(255,255,255)"/><path d=" M 92.769 62.965 C 90.908 63.651 89.162 64.737 87.667 66.232 C 86.387 67.512 85.407 68.978 84.72 70.542 L 100.817 70.542 C 100.131 68.978 99.151 67.512 97.87 66.232 C 96.376 64.737 94.63 63.65 92.769 62.965 Z " fill="rgb(70,195,115)"/><path d=" M 90.111 127.843 C 89.596 127.843 89.095 128.052 88.732 128.415 C 88.369 128.778 88.161 129.281 88.161 129.793 C 88.161 130.306 88.369 130.81 88.732 131.172 C 89.095 131.535 89.598 131.744 90.111 131.744 C 90.624 131.744 91.127 131.535 91.49 131.172 C 91.853 130.81 92.061 130.306 92.061 129.793 C 92.061 129.281 91.853 128.777 91.49 128.415 C 91.127 128.052 90.624 127.843 90.111 127.843 Z " fill="rgb(0,0,0)"/><path d=" M 59.601 94.974 L 59.601 113.08 C 59.601 114.157 60.474 115.031 61.551 115.031 C 62.629 115.031 63.502 114.157 63.502 113.08 L 63.502 94.974 C 63.502 93.897 62.629 93.024 61.551 93.024 C 60.474 93.024 59.601 93.897 59.601 94.974 Z " fill="rgb(0,0,0)"/><path d=" M 62.93 85.469 C 62.568 85.106 62.064 84.898 61.551 84.898 C 61.039 84.898 60.535 85.106 60.173 85.469 C 59.81 85.832 59.601 86.333 59.601 86.848 C 59.601 87.361 59.81 87.864 60.173 88.227 C 60.535 88.59 61.039 88.798 61.551 88.798 C 62.064 88.798 62.568 88.59 62.93 88.227 C 63.293 87.864 63.502 87.361 63.502 86.848 C 63.502 86.335 63.293 85.832 62.93 85.469 Z " fill="rgb(0,0,0)"/><path d=" M 150.099 84.74 C 150.099 80.07 146.731 76.174 142.297 75.347 L 142.297 62.7 C 142.297 57.323 137.922 52.949 132.545 52.949 L 122.353 52.949 L 101.981 32.576 C 101.219 31.815 99.984 31.815 99.222 32.576 L 94.689 37.11 L 90.155 32.576 C 89.394 31.815 88.159 31.815 87.397 32.576 L 66.903 53.07 C 66.694 52.993 66.469 52.949 66.232 52.949 L 59.991 52.949 C 54.614 52.949 50.239 57.323 50.239 62.701 C 50.239 62.843 50.244 62.984 50.25 63.125 C 50.243 63.192 50.239 63.26 50.239 63.328 L 50.239 121.992 C 50.239 127.369 54.614 131.744 59.991 131.744 L 81.9 131.744 C 82.978 131.744 83.851 130.87 83.851 129.793 C 83.851 128.716 82.978 127.843 81.9 127.843 L 59.991 127.843 C 56.765 127.843 54.14 125.218 54.14 121.992 L 54.14 70.497 C 55.771 71.724 57.798 72.452 59.991 72.452 L 100.818 72.492 L 122.975 72.492 C 123.038 72.492 123.102 72.489 123.165 72.483 C 123.169 72.482 123.173 72.482 123.176 72.481 C 126.132 72.772 128.449 75.272 128.449 78.304 L 128.449 90.396 L 104.85 90.396 C 99.473 90.396 95.098 94.771 95.098 100.148 C 95.098 105.525 99.473 109.9 104.85 109.9 L 128.449 109.9 L 128.449 121.992 C 128.449 125.218 125.825 127.843 122.598 127.843 L 98.284 127.843 C 97.206 127.843 96.333 128.717 96.333 129.794 C 96.333 130.871 97.206 131.744 98.284 131.744 L 122.598 131.744 C 127.976 131.744 132.35 127.369 132.35 121.992 L 132.35 121.212 L 132.545 121.212 C 137.922 121.212 142.297 116.837 142.297 111.46 L 142.297 109.704 C 146.743 108.797 150.099 104.858 150.099 100.148 L 150.099 85.13 C 150.099 85.089 150.098 85.049 150.095 85.008 C 150.098 84.919 150.099 84.829 150.099 84.74 Z  M 93.609 43.707 C 95.691 45.201 98.145 45.951 100.602 45.951 C 103.058 45.951 105.513 45.201 107.595 43.707 L 120.33 56.442 C 117.77 60.008 117.402 64.671 119.227 68.552 L 102.01 68.552 C 101.273 67.194 100.35 65.953 99.25 64.852 C 96.21 61.812 92.168 60.138 87.869 60.138 C 83.569 60.138 79.527 61.812 76.487 64.852 C 75.387 65.953 74.463 67.194 73.727 68.552 L 68.763 68.552 L 93.609 43.707 Z  M 97.339 68.552 L 78.399 68.552 C 78.664 68.225 78.946 67.911 79.246 67.611 C 81.549 65.307 84.612 64.039 87.869 64.039 C 91.126 64.039 94.188 65.307 96.492 67.611 C 96.792 67.911 97.074 68.225 97.339 68.552 Z  M 123.144 59.256 L 127.323 63.435 L 123.144 67.614 C 121.601 65.053 121.601 61.817 123.144 59.256 Z  M 100.602 36.714 L 104.781 40.893 C 102.288 42.395 99.156 42.434 96.629 41.012 C 96.716 40.849 96.778 40.676 96.816 40.499 L 100.602 36.714 Z  M 59.991 56.849 L 63.124 56.849 L 54.725 65.248 C 54.351 64.478 54.14 63.613 54.14 62.7 C 54.14 59.474 56.765 56.849 59.991 56.849 Z  M 57.497 67.992 L 88.776 36.714 L 91.931 39.868 L 63.247 68.552 L 59.991 68.552 C 59.1 68.552 58.254 68.35 57.497 67.992 Z  M 126.779 69.495 L 131.46 64.814 C 132.222 64.053 132.222 62.818 131.46 62.056 L 126.254 56.85 L 132.545 56.85 C 135.772 56.85 138.396 59.474 138.396 62.701 L 138.396 90.396 L 132.35 90.396 L 132.35 78.304 C 132.35 74.422 130.07 71.064 126.779 69.495 Z  M 132.545 117.311 L 132.35 117.311 L 132.35 109.9 L 138.396 109.9 L 138.396 111.46 C 138.396 114.686 135.772 117.311 132.545 117.311 Z  M 146.198 100.148 C 146.198 103.374 143.573 105.999 140.347 105.999 L 104.85 105.999 C 101.624 105.999 98.999 103.374 98.999 100.148 C 98.999 96.921 101.624 94.297 104.85 94.297 L 140.542 94.297 C 142.657 94.297 144.613 93.606 146.198 92.439 L 146.198 100.148 Z  M 142.297 90.116 L 142.297 79.364 C 144.559 80.104 146.198 82.234 146.198 84.74 C 146.198 87.246 144.559 89.375 142.297 90.116 Z " fill="rgb(0,0,0)"/><path d=" M 105.24 98.197 C 104.727 98.197 104.224 98.406 103.861 98.769 C 103.498 99.132 103.29 99.635 103.29 100.148 C 103.29 100.661 103.498 101.164 103.861 101.526 C 104.224 101.889 104.727 102.098 105.24 102.098 C 105.753 102.098 106.256 101.889 106.619 101.526 C 106.982 101.164 107.19 100.661 107.19 100.148 C 107.19 99.635 106.982 99.132 106.619 98.769 C 106.256 98.406 105.753 98.197 105.24 98.197 Z " fill="rgb(0,0,0)"/><path d=" M 102.729 63.258 C 103.228 63.258 103.727 63.068 104.108 62.687 L 107.498 59.297 C 108.259 58.536 108.26 57.301 107.498 56.539 C 106.736 55.778 105.501 55.777 104.74 56.539 L 101.35 59.929 C 100.588 60.69 100.588 61.925 101.35 62.687 C 101.73 63.068 102.23 63.258 102.729 63.258 Z " fill="rgb(0,0,0)"/></g><g style="isolation:isolate"><path d=" M 156.551 118.029 C 155.543 115.852 154.311 114.024 152.856 112.546 C 151.4 111.067 149.71 109.945 147.785 109.177 C 145.86 108.409 143.717 108.025 141.357 108.025 C 137.782 108.025 134.705 108.891 132.127 110.621 C 129.549 112.351 127.583 114.866 126.231 118.166 C 125.452 120.16 124.879 122.544 124.512 125.316 C 124.145 128.09 123.962 131.207 123.962 134.667 C 123.962 137.348 124.128 139.841 124.461 142.144 C 124.793 144.447 125.314 146.55 126.025 148.452 C 127.423 151.936 129.503 154.663 132.264 156.633 C 135.026 158.605 138.148 159.59 141.632 159.59 C 144.657 159.59 147.407 158.856 149.883 157.39 C 152.358 155.923 154.374 153.838 155.933 151.133 C 157.17 148.933 158.018 146.481 158.477 143.776 C 158.935 141.072 159.164 137.841 159.164 134.082 C 159.164 127.161 158.293 121.81 156.551 118.029 Z  M 149.023 144.12 C 148.542 146.848 147.705 148.945 146.514 150.411 C 145.322 151.878 143.672 152.611 141.563 152.611 C 139.523 152.611 137.908 151.907 136.716 150.497 C 135.524 149.088 134.676 147.008 134.172 144.258 C 133.668 141.508 133.416 137.979 133.416 133.67 C 133.416 127.322 134.006 122.624 135.186 119.576 C 136.366 116.528 138.469 115.004 141.494 115.004 C 143.603 115.004 145.253 115.686 146.445 117.049 C 147.636 118.413 148.484 120.43 148.988 123.099 C 149.492 125.769 149.745 129.201 149.745 133.395 C 149.745 137.818 149.504 141.393 149.023 144.12 Z " fill="rgb(128,7,155)" vector-effect="non-scaling-stroke" stroke-width="2" stroke="rgb(0,0,0)" stroke-linejoin="miter" stroke-linecap="butt" stroke-miterlimit="4"/><path d=" M 115.551 118.029 C 114.543 115.852 113.311 114.024 111.856 112.546 C 110.4 111.067 108.71 109.945 106.785 109.177 C 104.86 108.409 102.717 108.025 100.357 108.025 C 96.782 108.025 93.705 108.891 91.127 110.621 C 88.549 112.351 86.583 114.866 85.231 118.166 C 84.452 120.16 83.879 122.544 83.512 125.316 C 83.145 128.09 82.962 131.207 82.962 134.667 C 82.962 137.348 83.128 139.841 83.461 142.144 C 83.793 144.447 84.314 146.55 85.025 148.452 C 86.423 151.936 88.503 154.663 91.264 156.633 C 94.026 158.605 97.148 159.59 100.632 159.59 C 103.657 159.59 106.407 158.856 108.883 157.39 C 111.358 155.923 113.374 153.838 114.933 151.133 C 116.17 148.933 117.018 146.481 117.477 143.776 C 117.935 141.072 118.164 137.841 118.164 134.082 C 118.164 127.161 117.293 121.81 115.551 118.029 Z  M 108.023 144.12 C 107.542 146.848 106.705 148.945 105.514 150.411 C 104.322 151.878 102.672 152.611 100.563 152.611 C 98.523 152.611 96.908 151.907 95.716 150.497 C 94.524 149.088 93.676 147.008 93.172 144.258 C 92.668 141.508 92.416 137.979 92.416 133.67 C 92.416 127.322 93.006 122.624 94.186 119.576 C 95.366 116.528 97.469 115.004 100.494 115.004 C 102.603 115.004 104.253 115.686 105.445 117.049 C 106.636 118.413 107.484 120.43 107.988 123.099 C 108.492 125.769 108.745 129.201 108.745 133.395 C 108.745 137.818 108.504 141.393 108.023 144.12 Z " fill="rgb(128,7,155)" vector-effect="non-scaling-stroke" stroke-width="2" stroke="rgb(0,0,0)" stroke-linejoin="miter" stroke-linecap="butt" stroke-miterlimit="4"/><mask id="_mask_bKrdKkn54M8NXSak3MdD5688eS1ZAgd1" x="-200%" y="-200%" width="400%" height="400%"><rect x="-200%" y="-200%" width="400%" height="400%" style="fill:white;"/><path d=" M 75.727 136.071 C 74.934 134.156 73.845 132.501 72.459 131.103 C 71.072 129.706 69.46 128.611 67.623 127.819 C 65.785 127.026 63.81 126.63 61.697 126.63 C 59.057 126.63 56.174 127.467 53.049 129.139 L 54.931 118.444 L 70.61 118.444 C 72.238 118.444 73.471 118.092 74.307 117.388 C 75.143 116.684 75.561 115.759 75.561 114.615 C 75.561 111.996 73.845 110.686 70.412 110.686 L 52.983 110.686 C 51.09 110.686 49.726 111.116 48.89 111.974 C 48.053 112.832 47.481 114.208 47.173 116.1 L 44.4 131.912 C 44.158 133.298 44.037 134.047 44.037 134.156 C 44.037 135.147 44.455 136.033 45.292 136.814 C 46.128 137.595 47.085 137.985 48.164 137.985 C 49.154 137.985 50.413 137.408 51.943 136.253 C 53.472 135.097 54.644 134.288 55.459 133.826 C 56.273 133.364 57.626 133.133 59.519 133.133 C 61.059 133.133 62.457 133.502 63.711 134.239 C 64.965 134.976 65.967 136.093 66.715 137.589 C 67.463 139.086 67.837 140.89 67.837 143.003 C 67.837 144.962 67.491 146.711 66.797 148.251 C 66.104 149.792 65.119 151.002 63.843 151.882 C 62.567 152.763 61.081 153.203 59.387 153.203 C 57.539 153.203 55.866 152.658 54.369 151.569 C 52.873 150.479 51.684 148.956 50.805 146.997 C 49.902 144.862 48.527 143.795 46.678 143.795 C 45.6 143.795 44.703 144.18 43.988 144.95 C 43.273 145.721 42.915 146.535 42.915 147.393 C 42.915 148.802 43.427 150.446 44.45 152.328 C 45.474 154.209 47.212 155.876 49.666 157.329 C 52.119 158.781 55.316 159.507 59.255 159.507 C 62.776 159.507 65.884 158.737 68.58 157.197 C 71.276 155.657 73.339 153.577 74.77 150.958 C 76.2 148.339 76.915 145.434 76.915 142.243 C 76.915 140.044 76.519 137.985 75.727 136.071 Z " fill="black" stroke="none"/></mask><path d=" M 75.727 136.071 C 74.934 134.156 73.845 132.501 72.459 131.103 C 71.072 129.706 69.46 128.611 67.623 127.819 C 65.785 127.026 63.81 126.63 61.697 126.63 C 59.057 126.63 56.174 127.467 53.049 129.139 L 54.931 118.444 L 70.61 118.444 C 72.238 118.444 73.471 118.092 74.307 117.388 C 75.143 116.684 75.561 115.759 75.561 114.615 C 75.561 111.996 73.845 110.686 70.412 110.686 L 52.983 110.686 C 51.09 110.686 49.726 111.116 48.89 111.974 C 48.053 112.832 47.481 114.208 47.173 116.1 L 44.4 131.912 C 44.158 133.298 44.037 134.047 44.037 134.156 C 44.037 135.147 44.455 136.033 45.292 136.814 C 46.128 137.595 47.085 137.985 48.164 137.985 C 49.154 137.985 50.413 137.408 51.943 136.253 C 53.472 135.097 54.644 134.288 55.459 133.826 C 56.273 133.364 57.626 133.133 59.519 133.133 C 61.059 133.133 62.457 133.502 63.711 134.239 C 64.965 134.976 65.967 136.093 66.715 137.589 C 67.463 139.086 67.837 140.89 67.837 143.003 C 67.837 144.962 67.491 146.711 66.797 148.251 C 66.104 149.792 65.119 151.002 63.843 151.882 C 62.567 152.763 61.081 153.203 59.387 153.203 C 57.539 153.203 55.866 152.658 54.369 151.569 C 52.873 150.479 51.684 148.956 50.805 146.997 C 49.902 144.862 48.527 143.795 46.678 143.795 C 45.6 143.795 44.703 144.18 43.988 144.95 C 43.273 145.721 42.915 146.535 42.915 147.393 C 42.915 148.802 43.427 150.446 44.45 152.328 C 45.474 154.209 47.212 155.876 49.666 157.329 C 52.119 158.781 55.316 159.507 59.255 159.507 C 62.776 159.507 65.884 158.737 68.58 157.197 C 71.276 155.657 73.339 153.577 74.77 150.958 C 76.2 148.339 76.915 145.434 76.915 142.243 C 76.915 140.044 76.519 137.985 75.727 136.071 Z " fill="rgb(128,7,155)" mask="url(#_mask_bKrdKkn54M8NXSak3MdD5688eS1ZAgd1)" vector-effect="non-scaling-stroke" stroke-width="4" stroke="rgb(0,0,0)" stroke-linejoin="miter" stroke-linecap="butt" stroke-miterlimit="4"/><path d=" M 75.727 136.071 C 74.934 134.156 73.845 132.501 72.459 131.103 C 71.072 129.706 69.46 128.611 67.623 127.819 C 65.785 127.026 63.81 126.63 61.697 126.63 C 59.057 126.63 56.174 127.467 53.049 129.139 L 54.931 118.444 L 70.61 118.444 C 72.238 118.444 73.471 118.092 74.307 117.388 C 75.143 116.684 75.561 115.759 75.561 114.615 C 75.561 111.996 73.845 110.686 70.412 110.686 L 52.983 110.686 C 51.09 110.686 49.726 111.116 48.89 111.974 C 48.053 112.832 47.481 114.208 47.173 116.1 L 44.4 131.912 C 44.158 133.298 44.037 134.047 44.037 134.156 C 44.037 135.147 44.455 136.033 45.292 136.814 C 46.128 137.595 47.085 137.985 48.164 137.985 C 49.154 137.985 50.413 137.408 51.943 136.253 C 53.472 135.097 54.644 134.288 55.459 133.826 C 56.273 133.364 57.626 133.133 59.519 133.133 C 61.059 133.133 62.457 133.502 63.711 134.239 C 64.965 134.976 65.967 136.093 66.715 137.589 C 67.463 139.086 67.837 140.89 67.837 143.003 C 67.837 144.962 67.491 146.711 66.797 148.251 C 66.104 149.792 65.119 151.002 63.843 151.882 C 62.567 152.763 61.081 153.203 59.387 153.203 C 57.539 153.203 55.866 152.658 54.369 151.569 C 52.873 150.479 51.684 148.956 50.805 146.997 C 49.902 144.862 48.527 143.795 46.678 143.795 C 45.6 143.795 44.703 144.18 43.988 144.95 C 43.273 145.721 42.915 146.535 42.915 147.393 C 42.915 148.802 43.427 150.446 44.45 152.328 C 45.474 154.209 47.212 155.876 49.666 157.329 C 52.119 158.781 55.316 159.507 59.255 159.507 C 62.776 159.507 65.884 158.737 68.58 157.197 C 71.276 155.657 73.339 153.577 74.77 150.958 C 76.2 148.339 76.915 145.434 76.915 142.243 C 76.915 140.044 76.519 137.985 75.727 136.071 Z " fill="rgb(128,7,155)"/></g><g><path d=" M 181.575 184.865 L 153.065 184.865 C 149.129 184.865 145.937 181.801 145.937 178.027 L 145.937 150.673 C 145.937 146.897 149.13 143.835 153.065 143.835 L 181.575 143.835 C 185.511 143.835 188.703 146.899 188.703 150.673 L 188.703 178.027 C 188.703 181.803 185.51 184.865 181.575 184.865 Z " fill="rgb(200,230,201)"/><path d=" M 179.895 153.621 L 163.775 169.105 L 157.12 162.738 L 153.761 165.962 L 163.78 175.551 L 183.255 156.844 L 179.895 153.621 Z " fill="rgb(76,175,80)"/></g></g></svg>