<?xml version="1.0" encoding="UTF-8" standalone="no"?><!-- Generator: Gravit.io --><svg xmlns="http://www.w3.org/2000/svg" xmlns:xlink="http://www.w3.org/1999/xlink" style="isolation:isolate" viewBox="0 0 200 200" width="200pt" height="200pt"><defs><clipPath id="_clipPath_nhDqAzDdljih2XVyo2KcYqxL4PtVEWlp"><rect width="200" height="200"/></clipPath></defs><g clip-path="url(#_clipPath_nhDqAzDdljih2XVyo2KcYqxL4PtVEWlp)"><g style="isolation:isolate"><circle vector-effect="non-scaling-stroke" cx="100.00000000000001" cy="99.99999999999999" r="99" fill="rgb(6,129,248)" stroke-width="1.3" stroke="rgb(5,39,151)" stroke-linejoin="round" stroke-linecap="butt" stroke-miterlimit="1.414"/><path d=" M 100 7.472 C 151.067 7.472 192.528 48.933 192.528 100 C 192.528 151.067 151.067 192.528 100 192.528 C 48.933 192.528 7.472 151.067 7.472 100 C 7.472 48.933 48.933 7.472 100 7.472 Z  M 100 14.982 C 146.312 14.982 183.914 53.078 183.914 100 C 183.914 146.926 146.312 185.018 100 185.022 C 53.688 185.022 16.086 146.926 16.086 100 C 16.086 53.078 53.688 14.982 100 14.982 Z  M 100 20.606 C 143.818 20.606 179.394 56.182 179.394 100 C 179.394 143.818 143.818 179.394 100 179.394 C 56.182 179.394 20.606 143.818 20.606 100 C 20.606 56.182 56.182 20.606 100 20.606 Z " fill-rule="evenodd" fill="rgb(122,183,234)"/></g><g><g><g><path d=" M 47.119 133.995 L 47.119 149.104 C 47.119 153.276 50.501 156.658 54.673 156.658 L 145.327 156.658 C 149.499 156.658 152.881 153.276 152.881 149.104 L 152.881 133.995 L 47.119 133.995 Z " fill="rgb(181,219,255)"/><path d=" M 147.637 133.995 L 147.637 149.104 C 147.637 153.276 144.255 156.658 140.083 156.658 L 145.327 156.658 C 149.499 156.658 152.881 153.276 152.881 149.104 L 152.881 133.995 L 147.637 133.995 Z " fill="rgb(151,208,255)"/><path d=" M 47.119 73.559 L 47.119 141.549 C 47.119 145.721 50.501 149.103 54.673 149.103 L 145.327 149.103 C 149.499 149.103 152.881 145.721 152.881 141.549 L 152.881 73.559 L 47.119 73.559 Z " fill="rgb(237,245,255)"/><path d=" M 147.637 73.559 L 147.637 141.549 C 147.637 145.721 144.255 149.103 140.083 149.103 L 145.327 149.103 C 149.499 149.103 152.881 145.721 152.881 141.549 L 152.881 73.559 L 147.637 73.559 Z " fill="rgb(213,232,254)"/><path d=" M 152.881 77.337 L 152.881 58.451 C 152.881 54.278 149.499 50.896 145.327 50.896 L 54.673 50.896 C 50.501 50.896 47.119 54.279 47.119 58.451 L 47.119 77.337 L 152.881 77.337 Z " fill="rgb(255,67,91)"/><path d=" M 69.782 58.451 C 69.782 60.537 71.473 62.228 73.56 62.228 C 75.646 62.228 77.337 60.537 77.337 58.451 L 77.337 47.119 C 77.337 45.033 75.646 43.342 73.56 43.342 C 71.473 43.342 69.782 45.033 69.782 47.119 L 69.782 58.451 Z " fill="rgb(89,108,118)"/><path d=" M 122.663 58.451 C 122.663 60.537 124.354 62.228 126.441 62.228 C 128.527 62.228 130.218 60.537 130.218 58.451 L 130.218 47.119 C 130.218 45.033 128.527 43.342 126.441 43.342 C 124.354 43.342 122.663 45.033 122.663 47.119 L 122.663 58.451 Z " fill="rgb(89,108,118)"/><path d=" M 145.327 50.896 L 140.083 50.896 C 144.255 50.896 147.637 54.278 147.637 58.45 L 147.637 77.337 L 152.881 77.337 L 152.881 58.451 C 152.881 54.278 149.499 50.896 145.327 50.896 L 145.327 50.896 Z " fill="rgb(227,55,78)"/></g></g><g><path d=" M 145.327 49.186 L 131.928 49.186 L 131.928 47.119 C 131.928 44.093 129.466 41.632 126.441 41.632 C 123.415 41.632 120.954 44.093 120.954 47.119 L 120.954 49.186 L 79.047 49.186 L 79.047 47.119 C 79.047 44.093 76.585 41.632 73.559 41.632 C 70.534 41.632 68.072 44.093 68.072 47.119 L 68.072 49.186 L 54.673 49.186 C 49.565 49.186 45.409 53.342 45.409 58.45 L 45.409 149.104 C 45.409 154.212 49.565 158.368 54.673 158.368 L 66.363 158.368 C 67.307 158.368 68.073 157.603 68.073 156.658 C 68.073 155.714 67.307 154.948 66.363 154.948 L 54.673 154.948 C 51.451 154.948 48.829 152.327 48.829 149.104 L 48.829 148.731 C 50.425 150.032 52.459 150.814 54.673 150.814 L 145.327 150.814 C 147.541 150.814 149.575 150.032 151.171 148.731 L 151.171 149.104 C 151.171 152.327 148.549 154.948 145.327 154.948 L 73.202 154.948 C 72.258 154.948 71.492 155.714 71.492 156.658 C 71.492 157.603 72.258 158.368 73.202 158.368 L 145.327 158.368 C 150.435 158.368 154.591 154.212 154.591 149.104 L 154.591 58.451 C 154.591 53.342 150.435 49.186 145.327 49.186 L 145.327 49.186 Z  M 124.374 47.119 C 124.374 45.979 125.301 45.052 126.441 45.052 C 127.58 45.052 128.508 45.979 128.508 47.119 L 128.508 58.451 C 128.508 59.591 127.58 60.518 126.441 60.518 C 125.301 60.518 124.374 59.591 124.374 58.451 L 124.374 47.119 Z  M 71.492 47.119 C 71.492 45.979 72.42 45.052 73.559 45.052 C 74.699 45.052 75.627 45.979 75.627 47.119 L 75.627 58.451 C 75.627 59.591 74.699 60.518 73.559 60.518 C 72.42 60.518 71.492 59.591 71.492 58.451 L 71.492 47.119 Z  M 151.171 141.549 C 151.171 144.772 148.549 147.394 145.327 147.394 L 54.673 147.394 C 51.451 147.394 48.829 144.772 48.829 141.549 L 48.829 79.047 L 151.171 79.047 L 151.171 141.549 Z  M 151.171 68.072 L 129.861 68.072 C 128.916 68.072 128.151 68.838 128.151 69.782 C 128.151 70.727 128.916 71.492 129.861 71.492 L 151.171 71.492 L 151.171 75.627 L 48.829 75.627 L 48.829 71.492 L 123.021 71.492 C 123.965 71.492 124.731 70.727 124.731 69.782 C 124.731 68.838 123.965 68.072 123.021 68.072 L 48.829 68.072 L 48.829 58.451 C 48.829 55.228 51.451 52.606 54.673 52.606 L 68.072 52.606 L 68.072 56.741 L 66.005 56.741 C 65.061 56.741 64.295 57.506 64.295 58.451 C 64.295 59.395 65.061 60.161 66.005 60.161 L 68.347 60.161 C 69.067 62.351 71.131 63.938 73.56 63.938 C 75.988 63.938 78.052 62.351 78.773 60.161 L 81.114 60.161 C 82.058 60.161 82.824 59.395 82.824 58.451 C 82.824 57.506 82.058 56.741 81.114 56.741 L 79.047 56.741 L 79.047 52.606 L 120.953 52.606 L 120.953 56.74 L 118.886 56.74 C 117.941 56.74 117.176 57.506 117.176 58.451 C 117.176 59.395 117.941 60.161 118.886 60.161 L 121.228 60.161 C 121.948 62.351 124.012 63.938 126.441 63.938 C 128.869 63.938 130.933 62.351 131.653 60.161 L 133.995 60.161 C 134.94 60.161 135.705 59.395 135.705 58.451 C 135.705 57.506 134.94 56.74 133.995 56.74 L 131.928 56.74 L 131.928 52.606 L 145.327 52.606 C 148.55 52.606 151.171 55.228 151.171 58.45 L 151.171 68.072 L 151.171 68.072 Z " fill="rgb(0,0,0)"/></g></g><g><mask id="_mask_3jdpnVQxeY2Q0d9RcWIBLbMk9JJtVN0b" x="-200%" y="-200%" width="400%" height="400%"><rect x="-200%" y="-200%" width="400%" height="400%" style="fill:white;"/><path d=" M 117.737 113.709 C 116.848 111.561 115.626 109.704 114.071 108.136 C 112.516 106.568 110.707 105.34 108.646 104.451 C 106.585 103.563 104.369 103.118 101.999 103.118 C 99.037 103.118 95.803 104.057 92.297 105.933 L 94.408 93.935 L 111.998 93.935 C 113.824 93.935 115.207 93.54 116.145 92.75 C 117.083 91.96 117.552 90.923 117.552 89.639 C 117.552 86.702 115.626 85.232 111.775 85.232 L 92.223 85.232 C 90.1 85.232 88.569 85.714 87.631 86.677 C 86.693 87.64 86.051 89.183 85.706 91.306 L 82.595 109.043 C 82.323 110.598 82.188 111.438 82.188 111.561 C 82.188 112.672 82.657 113.666 83.595 114.542 C 84.533 115.419 85.607 115.857 86.817 115.857 C 87.928 115.857 89.341 115.209 91.057 113.913 C 92.772 112.617 94.087 111.709 95 111.191 C 95.914 110.672 97.432 110.413 99.555 110.413 C 101.283 110.413 102.851 110.827 104.258 111.654 C 105.665 112.481 106.789 113.734 107.628 115.412 C 108.467 117.091 108.887 119.115 108.887 121.485 C 108.887 123.683 108.498 125.645 107.721 127.373 C 106.943 129.101 105.838 130.459 104.406 131.446 C 102.974 132.434 101.308 132.927 99.407 132.927 C 97.334 132.927 95.457 132.316 93.779 131.094 C 92.1 129.872 90.766 128.163 89.78 125.966 C 88.767 123.571 87.225 122.374 85.151 122.374 C 83.941 122.374 82.935 122.806 82.133 123.67 C 81.33 124.534 80.929 125.447 80.929 126.41 C 80.929 127.99 81.503 129.835 82.651 131.946 C 83.799 134.057 85.749 135.927 88.502 137.556 C 91.255 139.185 94.84 140 99.26 140 C 103.209 140 106.696 139.136 109.721 137.408 C 112.744 135.68 115.059 133.347 116.664 130.409 C 118.268 127.472 119.071 124.213 119.071 120.633 C 119.07 118.165 118.626 115.857 117.737 113.709 Z " fill="black" stroke="none"/></mask><path d=" M 117.737 113.709 C 116.848 111.561 115.626 109.704 114.071 108.136 C 112.516 106.568 110.707 105.34 108.646 104.451 C 106.585 103.563 104.369 103.118 101.999 103.118 C 99.037 103.118 95.803 104.057 92.297 105.933 L 94.408 93.935 L 111.998 93.935 C 113.824 93.935 115.207 93.54 116.145 92.75 C 117.083 91.96 117.552 90.923 117.552 89.639 C 117.552 86.702 115.626 85.232 111.775 85.232 L 92.223 85.232 C 90.1 85.232 88.569 85.714 87.631 86.677 C 86.693 87.64 86.051 89.183 85.706 91.306 L 82.595 109.043 C 82.323 110.598 82.188 111.438 82.188 111.561 C 82.188 112.672 82.657 113.666 83.595 114.542 C 84.533 115.419 85.607 115.857 86.817 115.857 C 87.928 115.857 89.341 115.209 91.057 113.913 C 92.772 112.617 94.087 111.709 95 111.191 C 95.914 110.672 97.432 110.413 99.555 110.413 C 101.283 110.413 102.851 110.827 104.258 111.654 C 105.665 112.481 106.789 113.734 107.628 115.412 C 108.467 117.091 108.887 119.115 108.887 121.485 C 108.887 123.683 108.498 125.645 107.721 127.373 C 106.943 129.101 105.838 130.459 104.406 131.446 C 102.974 132.434 101.308 132.927 99.407 132.927 C 97.334 132.927 95.457 132.316 93.779 131.094 C 92.1 129.872 90.766 128.163 89.78 125.966 C 88.767 123.571 87.225 122.374 85.151 122.374 C 83.941 122.374 82.935 122.806 82.133 123.67 C 81.33 124.534 80.929 125.447 80.929 126.41 C 80.929 127.99 81.503 129.835 82.651 131.946 C 83.799 134.057 85.749 135.927 88.502 137.556 C 91.255 139.185 94.84 140 99.26 140 C 103.209 140 106.696 139.136 109.721 137.408 C 112.744 135.68 115.059 133.347 116.664 130.409 C 118.268 127.472 119.071 124.213 119.071 120.633 C 119.07 118.165 118.626 115.857 117.737 113.709 Z " fill="rgb(163,172,181)" mask="url(#_mask_3jdpnVQxeY2Q0d9RcWIBLbMk9JJtVN0b)" vector-effect="non-scaling-stroke" stroke-width="4" stroke="rgb(0,0,0)" stroke-linejoin="miter" stroke-linecap="butt" stroke-miterlimit="4"/><path d=" M 117.737 113.709 C 116.848 111.561 115.626 109.704 114.071 108.136 C 112.516 106.568 110.707 105.34 108.646 104.451 C 106.585 103.563 104.369 103.118 101.999 103.118 C 99.037 103.118 95.803 104.057 92.297 105.933 L 94.408 93.935 L 111.998 93.935 C 113.824 93.935 115.207 93.54 116.145 92.75 C 117.083 91.96 117.552 90.923 117.552 89.639 C 117.552 86.702 115.626 85.232 111.775 85.232 L 92.223 85.232 C 90.1 85.232 88.569 85.714 87.631 86.677 C 86.693 87.64 86.051 89.183 85.706 91.306 L 82.595 109.043 C 82.323 110.598 82.188 111.438 82.188 111.561 C 82.188 112.672 82.657 113.666 83.595 114.542 C 84.533 115.419 85.607 115.857 86.817 115.857 C 87.928 115.857 89.341 115.209 91.057 113.913 C 92.772 112.617 94.087 111.709 95 111.191 C 95.914 110.672 97.432 110.413 99.555 110.413 C 101.283 110.413 102.851 110.827 104.258 111.654 C 105.665 112.481 106.789 113.734 107.628 115.412 C 108.467 117.091 108.887 119.115 108.887 121.485 C 108.887 123.683 108.498 125.645 107.721 127.373 C 106.943 129.101 105.838 130.459 104.406 131.446 C 102.974 132.434 101.308 132.927 99.407 132.927 C 97.334 132.927 95.457 132.316 93.779 131.094 C 92.1 129.872 90.766 128.163 89.78 125.966 C 88.767 123.571 87.225 122.374 85.151 122.374 C 83.941 122.374 82.935 122.806 82.133 123.67 C 81.33 124.534 80.929 125.447 80.929 126.41 C 80.929 127.99 81.503 129.835 82.651 131.946 C 83.799 134.057 85.749 135.927 88.502 137.556 C 91.255 139.185 94.84 140 99.26 140 C 103.209 140 106.696 139.136 109.721 137.408 C 112.744 135.68 115.059 133.347 116.664 130.409 C 118.268 127.472 119.071 124.213 119.071 120.633 C 119.07 118.165 118.626 115.857 117.737 113.709 Z " fill="rgb(163,172,181)"/></g><g><path d=" M 181.575 184.865 L 153.065 184.865 C 149.129 184.865 145.937 181.801 145.937 178.027 L 145.937 150.673 C 145.937 146.897 149.13 143.835 153.065 143.835 L 181.575 143.835 C 185.511 143.835 188.703 146.899 188.703 150.673 L 188.703 178.027 C 188.703 181.803 185.51 184.865 181.575 184.865 Z " fill="rgb(200,230,201)"/><path d=" M 179.895 153.621 L 163.775 169.105 L 157.12 162.738 L 153.761 165.962 L 163.78 175.551 L 183.255 156.844 L 179.895 153.621 Z " fill="rgb(76,175,80)"/></g></g></svg>