<?xml version="1.0" encoding="UTF-8" standalone="no"?><!-- Generator: Gravit.io --><svg xmlns="http://www.w3.org/2000/svg" xmlns:xlink="http://www.w3.org/1999/xlink" style="isolation:isolate" viewBox="0 0 200 200" width="200pt" height="200pt"><defs><clipPath id="_clipPath_2aX9V9nGiFSH2wRMwyO3HGqV7AJHfQAF"><rect width="200" height="200"/></clipPath></defs><g clip-path="url(#_clipPath_2aX9V9nGiFSH2wRMwyO3HGqV7AJHfQAF)"><g style="isolation:isolate"><circle vector-effect="non-scaling-stroke" cx="100.00000000000001" cy="99.99999999999999" r="99" fill="rgb(6,129,248)" stroke-width="1.3" stroke="rgb(5,39,151)" stroke-linejoin="round" stroke-linecap="butt" stroke-miterlimit="1.414"/><path d=" M 100 7.472 C 151.067 7.472 192.528 48.933 192.528 100 C 192.528 151.067 151.067 192.528 100 192.528 C 48.933 192.528 7.472 151.067 7.472 100 C 7.472 48.933 48.933 7.472 100 7.472 Z  M 100 14.982 C 146.312 14.982 183.914 53.078 183.914 100 C 183.914 146.926 146.312 185.018 100 185.022 C 53.688 185.022 16.086 146.926 16.086 100 C 16.086 53.078 53.688 14.982 100 14.982 Z  M 100 20.606 C 143.818 20.606 179.394 56.182 179.394 100 C 179.394 143.818 143.818 179.394 100 179.394 C 56.182 179.394 20.606 143.818 20.606 100 C 20.606 56.182 56.182 20.606 100 20.606 Z " fill-rule="evenodd" fill="rgb(122,183,234)"/></g><g><g><g><path d=" M 47.119 133.995 L 47.119 149.104 C 47.119 153.276 50.501 156.658 54.673 156.658 L 145.327 156.658 C 149.499 156.658 152.881 153.276 152.881 149.104 L 152.881 133.995 L 47.119 133.995 Z " fill="rgb(181,219,255)"/><path d=" M 147.637 133.995 L 147.637 149.104 C 147.637 153.276 144.255 156.658 140.083 156.658 L 145.327 156.658 C 149.499 156.658 152.881 153.276 152.881 149.104 L 152.881 133.995 L 147.637 133.995 Z " fill="rgb(151,208,255)"/><path d=" M 47.119 73.559 L 47.119 141.549 C 47.119 145.721 50.501 149.103 54.673 149.103 L 145.327 149.103 C 149.499 149.103 152.881 145.721 152.881 141.549 L 152.881 73.559 L 47.119 73.559 Z " fill="rgb(237,245,255)"/><path d=" M 147.637 73.559 L 147.637 141.549 C 147.637 145.721 144.255 149.103 140.083 149.103 L 145.327 149.103 C 149.499 149.103 152.881 145.721 152.881 141.549 L 152.881 73.559 L 147.637 73.559 Z " fill="rgb(213,232,254)"/><path d=" M 152.881 77.337 L 152.881 58.451 C 152.881 54.278 149.499 50.896 145.327 50.896 L 54.673 50.896 C 50.501 50.896 47.119 54.279 47.119 58.451 L 47.119 77.337 L 152.881 77.337 Z " fill="rgb(255,67,91)"/><path d=" M 69.782 58.451 C 69.782 60.537 71.473 62.228 73.56 62.228 C 75.646 62.228 77.337 60.537 77.337 58.451 L 77.337 47.119 C 77.337 45.033 75.646 43.342 73.56 43.342 C 71.473 43.342 69.782 45.033 69.782 47.119 L 69.782 58.451 Z " fill="rgb(89,108,118)"/><path d=" M 122.663 58.451 C 122.663 60.537 124.354 62.228 126.441 62.228 C 128.527 62.228 130.218 60.537 130.218 58.451 L 130.218 47.119 C 130.218 45.033 128.527 43.342 126.441 43.342 C 124.354 43.342 122.663 45.033 122.663 47.119 L 122.663 58.451 Z " fill="rgb(89,108,118)"/><path d=" M 145.327 50.896 L 140.083 50.896 C 144.255 50.896 147.637 54.278 147.637 58.45 L 147.637 77.337 L 152.881 77.337 L 152.881 58.451 C 152.881 54.278 149.499 50.896 145.327 50.896 L 145.327 50.896 Z " fill="rgb(227,55,78)"/></g></g><g><path d=" M 145.327 49.186 L 131.928 49.186 L 131.928 47.119 C 131.928 44.093 129.466 41.632 126.441 41.632 C 123.415 41.632 120.954 44.093 120.954 47.119 L 120.954 49.186 L 79.047 49.186 L 79.047 47.119 C 79.047 44.093 76.585 41.632 73.559 41.632 C 70.534 41.632 68.072 44.093 68.072 47.119 L 68.072 49.186 L 54.673 49.186 C 49.565 49.186 45.409 53.342 45.409 58.45 L 45.409 149.104 C 45.409 154.212 49.565 158.368 54.673 158.368 L 66.363 158.368 C 67.307 158.368 68.073 157.603 68.073 156.658 C 68.073 155.714 67.307 154.948 66.363 154.948 L 54.673 154.948 C 51.451 154.948 48.829 152.327 48.829 149.104 L 48.829 148.731 C 50.425 150.032 52.459 150.814 54.673 150.814 L 145.327 150.814 C 147.541 150.814 149.575 150.032 151.171 148.731 L 151.171 149.104 C 151.171 152.327 148.549 154.948 145.327 154.948 L 73.202 154.948 C 72.258 154.948 71.492 155.714 71.492 156.658 C 71.492 157.603 72.258 158.368 73.202 158.368 L 145.327 158.368 C 150.435 158.368 154.591 154.212 154.591 149.104 L 154.591 58.451 C 154.591 53.342 150.435 49.186 145.327 49.186 L 145.327 49.186 Z  M 124.374 47.119 C 124.374 45.979 125.301 45.052 126.441 45.052 C 127.58 45.052 128.508 45.979 128.508 47.119 L 128.508 58.451 C 128.508 59.591 127.58 60.518 126.441 60.518 C 125.301 60.518 124.374 59.591 124.374 58.451 L 124.374 47.119 Z  M 71.492 47.119 C 71.492 45.979 72.42 45.052 73.559 45.052 C 74.699 45.052 75.627 45.979 75.627 47.119 L 75.627 58.451 C 75.627 59.591 74.699 60.518 73.559 60.518 C 72.42 60.518 71.492 59.591 71.492 58.451 L 71.492 47.119 Z  M 151.171 141.549 C 151.171 144.772 148.549 147.394 145.327 147.394 L 54.673 147.394 C 51.451 147.394 48.829 144.772 48.829 141.549 L 48.829 79.047 L 151.171 79.047 L 151.171 141.549 Z  M 151.171 68.072 L 129.861 68.072 C 128.916 68.072 128.151 68.838 128.151 69.782 C 128.151 70.727 128.916 71.492 129.861 71.492 L 151.171 71.492 L 151.171 75.627 L 48.829 75.627 L 48.829 71.492 L 123.021 71.492 C 123.965 71.492 124.731 70.727 124.731 69.782 C 124.731 68.838 123.965 68.072 123.021 68.072 L 48.829 68.072 L 48.829 58.451 C 48.829 55.228 51.451 52.606 54.673 52.606 L 68.072 52.606 L 68.072 56.741 L 66.005 56.741 C 65.061 56.741 64.295 57.506 64.295 58.451 C 64.295 59.395 65.061 60.161 66.005 60.161 L 68.347 60.161 C 69.067 62.351 71.131 63.938 73.56 63.938 C 75.988 63.938 78.052 62.351 78.773 60.161 L 81.114 60.161 C 82.058 60.161 82.824 59.395 82.824 58.451 C 82.824 57.506 82.058 56.741 81.114 56.741 L 79.047 56.741 L 79.047 52.606 L 120.953 52.606 L 120.953 56.74 L 118.886 56.74 C 117.941 56.74 117.176 57.506 117.176 58.451 C 117.176 59.395 117.941 60.161 118.886 60.161 L 121.228 60.161 C 121.948 62.351 124.012 63.938 126.441 63.938 C 128.869 63.938 130.933 62.351 131.653 60.161 L 133.995 60.161 C 134.94 60.161 135.705 59.395 135.705 58.451 C 135.705 57.506 134.94 56.74 133.995 56.74 L 131.928 56.74 L 131.928 52.606 L 145.327 52.606 C 148.55 52.606 151.171 55.228 151.171 58.45 L 151.171 68.072 L 151.171 68.072 Z " fill="rgb(0,0,0)"/></g></g><g><g><mask id="_mask_5VVlMsUEenqg0VGUw3ocMMAeLkEGwXUu" x="-200%" y="-200%" width="400%" height="400%"><rect x="-200%" y="-200%" width="400%" height="400%" style="fill:white;"/><path d=" M 95.663 117.821 C 95.021 116.262 94.063 114.84 92.79 113.555 C 91.516 112.27 89.952 111.128 88.096 110.129 C 90.023 108.511 91.505 106.851 92.54 105.149 C 93.575 103.448 94.092 101.408 94.092 99.028 C 94.092 97.22 93.736 95.53 93.022 93.959 C 92.308 92.389 91.249 91.009 89.845 89.819 C 88.44 88.629 86.787 87.719 84.883 87.088 C 82.979 86.458 80.873 86.142 78.566 86.142 C 75.924 86.142 73.533 86.517 71.391 87.267 C 69.25 88.016 67.459 89.01 66.019 90.247 C 64.58 91.485 63.485 92.787 62.735 94.155 C 61.986 95.524 61.611 96.827 61.611 98.064 C 61.611 99.349 62.01 100.378 62.807 101.151 C 63.604 101.925 64.478 102.311 65.43 102.311 C 66.239 102.311 66.953 102.169 67.572 101.883 C 68.19 101.598 68.619 101.205 68.857 100.705 C 69.261 99.777 69.707 98.79 70.195 97.743 C 70.683 96.696 71.2 95.839 71.748 95.173 C 72.295 94.507 73.039 93.971 73.979 93.566 C 74.918 93.162 76.114 92.96 77.566 92.96 C 79.708 92.96 81.409 93.62 82.67 94.941 C 83.931 96.261 84.562 97.838 84.562 99.67 C 84.562 102.074 83.771 103.918 82.189 105.203 C 80.606 106.487 78.72 107.13 76.531 107.13 L 75.068 107.13 C 73.377 107.13 72.105 107.481 71.248 108.183 C 70.392 108.885 69.963 109.807 69.963 110.949 C 69.963 112.115 70.32 113.026 71.034 113.68 C 71.748 114.335 72.759 114.661 74.068 114.661 C 74.354 114.661 74.996 114.614 75.996 114.519 C 76.995 114.424 77.732 114.376 78.209 114.376 C 80.921 114.376 83.039 115.167 84.562 116.749 C 86.085 118.332 86.846 120.515 86.846 123.299 C 86.846 125.179 86.4 126.833 85.508 128.261 C 84.616 129.688 83.485 130.765 82.117 131.491 C 80.749 132.217 79.327 132.58 77.852 132.58 C 75.282 132.58 73.288 131.776 71.873 130.17 C 70.457 128.564 69.13 126.107 67.893 122.799 C 67.702 122.252 67.298 121.782 66.68 121.39 C 66.061 120.997 65.418 120.801 64.752 120.801 C 63.419 120.801 62.307 121.223 61.415 122.068 C 60.523 122.913 60.077 124.025 60.077 125.405 C 60.077 126.476 60.451 127.832 61.201 129.474 C 61.95 131.116 63.057 132.704 64.52 134.239 C 65.984 135.774 67.845 137.053 70.106 138.076 C 72.367 139.099 74.925 139.611 77.781 139.611 C 80.588 139.611 83.152 139.165 85.472 138.273 C 87.792 137.38 89.797 136.143 91.487 134.561 C 93.176 132.978 94.455 131.176 95.324 129.153 C 96.192 127.131 96.627 125.037 96.627 122.871 C 96.627 121.063 96.306 119.38 95.663 117.821 Z " fill="black" stroke="none"/></mask><path d=" M 95.663 117.821 C 95.021 116.262 94.063 114.84 92.79 113.555 C 91.516 112.27 89.952 111.128 88.096 110.129 C 90.023 108.511 91.505 106.851 92.54 105.149 C 93.575 103.448 94.092 101.408 94.092 99.028 C 94.092 97.22 93.736 95.53 93.022 93.959 C 92.308 92.389 91.249 91.009 89.845 89.819 C 88.44 88.629 86.787 87.719 84.883 87.088 C 82.979 86.458 80.873 86.142 78.566 86.142 C 75.924 86.142 73.533 86.517 71.391 87.267 C 69.25 88.016 67.459 89.01 66.019 90.247 C 64.58 91.485 63.485 92.787 62.735 94.155 C 61.986 95.524 61.611 96.827 61.611 98.064 C 61.611 99.349 62.01 100.378 62.807 101.151 C 63.604 101.925 64.478 102.311 65.43 102.311 C 66.239 102.311 66.953 102.169 67.572 101.883 C 68.19 101.598 68.619 101.205 68.857 100.705 C 69.261 99.777 69.707 98.79 70.195 97.743 C 70.683 96.696 71.2 95.839 71.748 95.173 C 72.295 94.507 73.039 93.971 73.979 93.566 C 74.918 93.162 76.114 92.96 77.566 92.96 C 79.708 92.96 81.409 93.62 82.67 94.941 C 83.931 96.261 84.562 97.838 84.562 99.67 C 84.562 102.074 83.771 103.918 82.189 105.203 C 80.606 106.487 78.72 107.13 76.531 107.13 L 75.068 107.13 C 73.377 107.13 72.105 107.481 71.248 108.183 C 70.392 108.885 69.963 109.807 69.963 110.949 C 69.963 112.115 70.32 113.026 71.034 113.68 C 71.748 114.335 72.759 114.661 74.068 114.661 C 74.354 114.661 74.996 114.614 75.996 114.519 C 76.995 114.424 77.732 114.376 78.209 114.376 C 80.921 114.376 83.039 115.167 84.562 116.749 C 86.085 118.332 86.846 120.515 86.846 123.299 C 86.846 125.179 86.4 126.833 85.508 128.261 C 84.616 129.688 83.485 130.765 82.117 131.491 C 80.749 132.217 79.327 132.58 77.852 132.58 C 75.282 132.58 73.288 131.776 71.873 130.17 C 70.457 128.564 69.13 126.107 67.893 122.799 C 67.702 122.252 67.298 121.782 66.68 121.39 C 66.061 120.997 65.418 120.801 64.752 120.801 C 63.419 120.801 62.307 121.223 61.415 122.068 C 60.523 122.913 60.077 124.025 60.077 125.405 C 60.077 126.476 60.451 127.832 61.201 129.474 C 61.95 131.116 63.057 132.704 64.52 134.239 C 65.984 135.774 67.845 137.053 70.106 138.076 C 72.367 139.099 74.925 139.611 77.781 139.611 C 80.588 139.611 83.152 139.165 85.472 138.273 C 87.792 137.38 89.797 136.143 91.487 134.561 C 93.176 132.978 94.455 131.176 95.324 129.153 C 96.192 127.131 96.627 125.037 96.627 122.871 C 96.627 121.063 96.306 119.38 95.663 117.821 Z " fill="rgb(31,149,247)" mask="url(#_mask_5VVlMsUEenqg0VGUw3ocMMAeLkEGwXUu)" vector-effect="non-scaling-stroke" stroke-width="4" stroke="rgb(0,0,0)" stroke-linejoin="miter" stroke-linecap="butt" stroke-miterlimit="4"/><path d=" M 95.663 117.821 C 95.021 116.262 94.063 114.84 92.79 113.555 C 91.516 112.27 89.952 111.128 88.096 110.129 C 90.023 108.511 91.505 106.851 92.54 105.149 C 93.575 103.448 94.092 101.408 94.092 99.028 C 94.092 97.22 93.736 95.53 93.022 93.959 C 92.308 92.389 91.249 91.009 89.845 89.819 C 88.44 88.629 86.787 87.719 84.883 87.088 C 82.979 86.458 80.873 86.142 78.566 86.142 C 75.924 86.142 73.533 86.517 71.391 87.267 C 69.25 88.016 67.459 89.01 66.019 90.247 C 64.58 91.485 63.485 92.787 62.735 94.155 C 61.986 95.524 61.611 96.827 61.611 98.064 C 61.611 99.349 62.01 100.378 62.807 101.151 C 63.604 101.925 64.478 102.311 65.43 102.311 C 66.239 102.311 66.953 102.169 67.572 101.883 C 68.19 101.598 68.619 101.205 68.857 100.705 C 69.261 99.777 69.707 98.79 70.195 97.743 C 70.683 96.696 71.2 95.839 71.748 95.173 C 72.295 94.507 73.039 93.971 73.979 93.566 C 74.918 93.162 76.114 92.96 77.566 92.96 C 79.708 92.96 81.409 93.62 82.67 94.941 C 83.931 96.261 84.562 97.838 84.562 99.67 C 84.562 102.074 83.771 103.918 82.189 105.203 C 80.606 106.487 78.72 107.13 76.531 107.13 L 75.068 107.13 C 73.377 107.13 72.105 107.481 71.248 108.183 C 70.392 108.885 69.963 109.807 69.963 110.949 C 69.963 112.115 70.32 113.026 71.034 113.68 C 71.748 114.335 72.759 114.661 74.068 114.661 C 74.354 114.661 74.996 114.614 75.996 114.519 C 76.995 114.424 77.732 114.376 78.209 114.376 C 80.921 114.376 83.039 115.167 84.562 116.749 C 86.085 118.332 86.846 120.515 86.846 123.299 C 86.846 125.179 86.4 126.833 85.508 128.261 C 84.616 129.688 83.485 130.765 82.117 131.491 C 80.749 132.217 79.327 132.58 77.852 132.58 C 75.282 132.58 73.288 131.776 71.873 130.17 C 70.457 128.564 69.13 126.107 67.893 122.799 C 67.702 122.252 67.298 121.782 66.68 121.39 C 66.061 120.997 65.418 120.801 64.752 120.801 C 63.419 120.801 62.307 121.223 61.415 122.068 C 60.523 122.913 60.077 124.025 60.077 125.405 C 60.077 126.476 60.451 127.832 61.201 129.474 C 61.95 131.116 63.057 132.704 64.52 134.239 C 65.984 135.774 67.845 137.053 70.106 138.076 C 72.367 139.099 74.925 139.611 77.781 139.611 C 80.588 139.611 83.152 139.165 85.472 138.273 C 87.792 137.38 89.797 136.143 91.487 134.561 C 93.176 132.978 94.455 131.176 95.324 129.153 C 96.192 127.131 96.627 125.037 96.627 122.871 C 96.627 121.063 96.306 119.38 95.663 117.821 Z " fill="rgb(31,149,247)"/><path d=" M 137.211 96.387 C 136.163 94.126 134.884 92.228 133.374 90.694 C 131.862 89.159 130.108 87.993 128.109 87.196 C 126.11 86.399 123.885 86 121.434 86 C 117.722 86 114.527 86.899 111.85 88.695 C 109.173 90.492 107.133 93.103 105.729 96.53 C 104.92 98.6 104.324 101.075 103.944 103.954 C 103.563 106.833 103.373 110.07 103.373 113.663 C 103.373 116.447 103.545 119.035 103.891 121.426 C 104.235 123.817 104.777 126.001 105.515 127.976 C 106.966 131.593 109.125 134.425 111.993 136.471 C 114.86 138.518 118.102 139.541 121.72 139.541 C 124.861 139.541 127.716 138.779 130.286 137.256 C 132.856 135.734 134.95 133.568 136.568 130.76 C 137.853 128.476 138.733 125.93 139.21 123.122 C 139.685 120.314 139.923 116.959 139.923 113.056 C 139.923 105.87 139.019 100.313 137.211 96.387 Z  M 129.394 123.478 C 128.894 126.31 128.025 128.488 126.788 130.01 C 125.551 131.533 123.837 132.295 121.648 132.295 C 119.53 132.295 117.852 131.563 116.616 130.099 C 115.378 128.636 114.497 126.477 113.974 123.621 C 113.451 120.765 113.189 117.101 113.189 112.627 C 113.189 106.036 113.801 101.158 115.027 97.993 C 116.252 94.828 118.436 93.246 121.577 93.246 C 123.766 93.246 125.479 93.954 126.717 95.37 C 127.954 96.786 128.834 98.88 129.358 101.652 C 129.881 104.424 130.144 107.987 130.144 112.342 C 130.143 116.935 129.893 120.647 129.394 123.478 Z " fill="rgb(31,149,247)" vector-effect="non-scaling-stroke" stroke-width="2" stroke="rgb(0,0,0)" stroke-linejoin="miter" stroke-linecap="butt" stroke-miterlimit="4"/></g></g><g><path d=" M 181.575 184.865 L 153.065 184.865 C 149.129 184.865 145.937 181.801 145.937 178.027 L 145.937 150.673 C 145.937 146.897 149.13 143.835 153.065 143.835 L 181.575 143.835 C 185.511 143.835 188.703 146.899 188.703 150.673 L 188.703 178.027 C 188.703 181.803 185.51 184.865 181.575 184.865 Z " fill="rgb(200,230,201)"/><path d=" M 179.895 153.621 L 163.775 169.105 L 157.12 162.738 L 153.761 165.962 L 163.78 175.551 L 183.255 156.844 L 179.895 153.621 Z " fill="rgb(76,175,80)"/></g></g></svg>