<?xml version="1.0" encoding="UTF-8" standalone="no"?><!-- Generator: Gravit.io --><svg xmlns="http://www.w3.org/2000/svg" xmlns:xlink="http://www.w3.org/1999/xlink" style="isolation:isolate" viewBox="0 0 200 200" width="200pt" height="200pt"><defs><clipPath id="_clipPath_99HzshjbQvYr3qX77bNPU2xMFgl5F1rU"><rect width="200" height="200"/></clipPath></defs><g clip-path="url(#_clipPath_99HzshjbQvYr3qX77bNPU2xMFgl5F1rU)"><g style="isolation:isolate"><circle vector-effect="non-scaling-stroke" cx="100.00000000000001" cy="99.99999999999999" r="99" fill="rgb(6,129,248)" stroke-width="1.3" stroke="rgb(5,39,151)" stroke-linejoin="round" stroke-linecap="butt" stroke-miterlimit="1.414"/><path d=" M 100 7.472 C 151.067 7.472 192.528 48.933 192.528 100 C 192.528 151.067 151.067 192.528 100 192.528 C 48.933 192.528 7.472 151.067 7.472 100 C 7.472 48.933 48.933 7.472 100 7.472 Z  M 100 14.982 C 146.312 14.982 183.914 53.078 183.914 100 C 183.914 146.926 146.312 185.018 100 185.022 C 53.688 185.022 16.086 146.926 16.086 100 C 16.086 53.078 53.688 14.982 100 14.982 Z  M 100 20.606 C 143.818 20.606 179.394 56.182 179.394 100 C 179.394 143.818 143.818 179.394 100 179.394 C 56.182 179.394 20.606 143.818 20.606 100 C 20.606 56.182 56.182 20.606 100 20.606 Z " fill-rule="evenodd" fill="rgb(122,183,234)"/></g><g><g><g><path d=" M 47.119 133.995 L 47.119 149.104 C 47.119 153.276 50.501 156.658 54.673 156.658 L 145.327 156.658 C 149.499 156.658 152.881 153.276 152.881 149.104 L 152.881 133.995 L 47.119 133.995 Z " fill="rgb(181,219,255)"/><path d=" M 147.637 133.995 L 147.637 149.104 C 147.637 153.276 144.255 156.658 140.083 156.658 L 145.327 156.658 C 149.499 156.658 152.881 153.276 152.881 149.104 L 152.881 133.995 L 147.637 133.995 Z " fill="rgb(151,208,255)"/><path d=" M 47.119 73.559 L 47.119 141.549 C 47.119 145.721 50.501 149.103 54.673 149.103 L 145.327 149.103 C 149.499 149.103 152.881 145.721 152.881 141.549 L 152.881 73.559 L 47.119 73.559 Z " fill="rgb(237,245,255)"/><path d=" M 147.637 73.559 L 147.637 141.549 C 147.637 145.721 144.255 149.103 140.083 149.103 L 145.327 149.103 C 149.499 149.103 152.881 145.721 152.881 141.549 L 152.881 73.559 L 147.637 73.559 Z " fill="rgb(213,232,254)"/><path d=" M 152.881 77.337 L 152.881 58.451 C 152.881 54.278 149.499 50.896 145.327 50.896 L 54.673 50.896 C 50.501 50.896 47.119 54.279 47.119 58.451 L 47.119 77.337 L 152.881 77.337 Z " fill="rgb(255,67,91)"/><path d=" M 69.782 58.451 C 69.782 60.537 71.473 62.228 73.56 62.228 C 75.646 62.228 77.337 60.537 77.337 58.451 L 77.337 47.119 C 77.337 45.033 75.646 43.342 73.56 43.342 C 71.473 43.342 69.782 45.033 69.782 47.119 L 69.782 58.451 Z " fill="rgb(89,108,118)"/><path d=" M 122.663 58.451 C 122.663 60.537 124.354 62.228 126.441 62.228 C 128.527 62.228 130.218 60.537 130.218 58.451 L 130.218 47.119 C 130.218 45.033 128.527 43.342 126.441 43.342 C 124.354 43.342 122.663 45.033 122.663 47.119 L 122.663 58.451 Z " fill="rgb(89,108,118)"/><path d=" M 145.327 50.896 L 140.083 50.896 C 144.255 50.896 147.637 54.278 147.637 58.45 L 147.637 77.337 L 152.881 77.337 L 152.881 58.451 C 152.881 54.278 149.499 50.896 145.327 50.896 L 145.327 50.896 Z " fill="rgb(227,55,78)"/></g></g><g><path d=" M 145.327 49.186 L 131.928 49.186 L 131.928 47.119 C 131.928 44.093 129.466 41.632 126.441 41.632 C 123.415 41.632 120.954 44.093 120.954 47.119 L 120.954 49.186 L 79.047 49.186 L 79.047 47.119 C 79.047 44.093 76.585 41.632 73.559 41.632 C 70.534 41.632 68.072 44.093 68.072 47.119 L 68.072 49.186 L 54.673 49.186 C 49.565 49.186 45.409 53.342 45.409 58.45 L 45.409 149.104 C 45.409 154.212 49.565 158.368 54.673 158.368 L 66.363 158.368 C 67.307 158.368 68.073 157.603 68.073 156.658 C 68.073 155.714 67.307 154.948 66.363 154.948 L 54.673 154.948 C 51.451 154.948 48.829 152.327 48.829 149.104 L 48.829 148.731 C 50.425 150.032 52.459 150.814 54.673 150.814 L 145.327 150.814 C 147.541 150.814 149.575 150.032 151.171 148.731 L 151.171 149.104 C 151.171 152.327 148.549 154.948 145.327 154.948 L 73.202 154.948 C 72.258 154.948 71.492 155.714 71.492 156.658 C 71.492 157.603 72.258 158.368 73.202 158.368 L 145.327 158.368 C 150.435 158.368 154.591 154.212 154.591 149.104 L 154.591 58.451 C 154.591 53.342 150.435 49.186 145.327 49.186 L 145.327 49.186 Z  M 124.374 47.119 C 124.374 45.979 125.301 45.052 126.441 45.052 C 127.58 45.052 128.508 45.979 128.508 47.119 L 128.508 58.451 C 128.508 59.591 127.58 60.518 126.441 60.518 C 125.301 60.518 124.374 59.591 124.374 58.451 L 124.374 47.119 Z  M 71.492 47.119 C 71.492 45.979 72.42 45.052 73.559 45.052 C 74.699 45.052 75.627 45.979 75.627 47.119 L 75.627 58.451 C 75.627 59.591 74.699 60.518 73.559 60.518 C 72.42 60.518 71.492 59.591 71.492 58.451 L 71.492 47.119 Z  M 151.171 141.549 C 151.171 144.772 148.549 147.394 145.327 147.394 L 54.673 147.394 C 51.451 147.394 48.829 144.772 48.829 141.549 L 48.829 79.047 L 151.171 79.047 L 151.171 141.549 Z  M 151.171 68.072 L 129.861 68.072 C 128.916 68.072 128.151 68.838 128.151 69.782 C 128.151 70.727 128.916 71.492 129.861 71.492 L 151.171 71.492 L 151.171 75.627 L 48.829 75.627 L 48.829 71.492 L 123.021 71.492 C 123.965 71.492 124.731 70.727 124.731 69.782 C 124.731 68.838 123.965 68.072 123.021 68.072 L 48.829 68.072 L 48.829 58.451 C 48.829 55.228 51.451 52.606 54.673 52.606 L 68.072 52.606 L 68.072 56.741 L 66.005 56.741 C 65.061 56.741 64.295 57.506 64.295 58.451 C 64.295 59.395 65.061 60.161 66.005 60.161 L 68.347 60.161 C 69.067 62.351 71.131 63.938 73.56 63.938 C 75.988 63.938 78.052 62.351 78.773 60.161 L 81.114 60.161 C 82.058 60.161 82.824 59.395 82.824 58.451 C 82.824 57.506 82.058 56.741 81.114 56.741 L 79.047 56.741 L 79.047 52.606 L 120.953 52.606 L 120.953 56.74 L 118.886 56.74 C 117.941 56.74 117.176 57.506 117.176 58.451 C 117.176 59.395 117.941 60.161 118.886 60.161 L 121.228 60.161 C 121.948 62.351 124.012 63.938 126.441 63.938 C 128.869 63.938 130.933 62.351 131.653 60.161 L 133.995 60.161 C 134.94 60.161 135.705 59.395 135.705 58.451 C 135.705 57.506 134.94 56.74 133.995 56.74 L 131.928 56.74 L 131.928 52.606 L 145.327 52.606 C 148.55 52.606 151.171 55.228 151.171 58.45 L 151.171 68.072 L 151.171 68.072 Z " fill="rgb(0,0,0)"/></g></g><g><g><path d=" M 95.555 100.686 C 94.688 97.447 93.446 94.761 91.83 92.629 C 90.214 90.497 88.222 88.871 85.856 87.751 C 83.49 86.632 80.796 86.071 77.775 86.071 C 75.151 86.071 72.755 86.524 70.589 87.429 C 68.422 88.335 66.553 89.597 64.984 91.217 C 63.414 92.837 62.208 94.749 61.365 96.952 C 60.521 99.156 60.1 101.485 60.1 103.938 C 60.1 106.225 60.474 108.411 61.225 110.495 C 61.974 112.58 63.046 114.402 64.44 115.962 C 65.833 117.523 67.485 118.738 69.394 119.607 C 71.303 120.477 73.359 120.911 75.561 120.911 C 77.88 120.911 79.994 120.441 81.904 119.5 C 83.812 118.559 85.54 117.159 87.086 115.301 C 86.758 121.757 85.751 126.26 84.064 128.808 C 83.221 130.071 82.202 131.048 81.007 131.739 C 79.813 132.43 78.548 132.775 77.212 132.775 C 75.713 132.775 74.366 132.34 73.171 131.47 C 71.977 130.601 71.121 129.452 70.606 128.022 C 70.185 126.855 69.564 125.98 68.744 125.396 C 67.924 124.812 66.998 124.52 65.968 124.52 C 64.843 124.52 63.918 124.913 63.192 125.699 C 62.466 126.486 62.103 127.379 62.103 128.379 C 62.103 130 62.688 131.685 63.86 133.436 C 65.031 135.187 66.741 136.652 68.99 137.831 C 71.239 139.01 73.886 139.6 76.931 139.6 C 80.024 139.6 82.787 139.022 85.224 137.867 C 87.66 136.712 89.751 134.949 91.496 132.578 C 93.241 130.208 94.571 127.278 95.484 123.788 C 96.398 120.298 96.855 116.266 96.855 111.692 C 96.855 107.595 96.421 103.926 95.555 100.686 Z  M 85.031 109.584 C 84.199 111.061 83.121 112.187 81.798 112.961 C 80.474 113.735 79.086 114.122 77.634 114.122 C 75.267 114.122 73.312 113.181 71.766 111.299 C 70.22 109.418 69.446 106.892 69.446 103.724 C 69.446 100.532 70.22 97.965 71.766 96.023 C 73.312 94.082 75.197 93.111 77.423 93.111 C 78.711 93.111 79.9 93.397 80.99 93.969 C 82.079 94.541 83.016 95.327 83.801 96.327 C 84.585 97.328 85.194 98.513 85.628 99.883 C 86.061 101.253 86.278 102.747 86.278 104.367 C 86.278 106.368 85.862 108.107 85.031 109.584 Z " fill="rgb(128,7,155)" vector-effect="non-scaling-stroke" stroke-width="2" stroke="rgb(0,0,0)" stroke-linejoin="miter" stroke-linecap="butt" stroke-miterlimit="4"/><path d=" M 137.229 96.398 C 136.198 94.135 134.939 92.235 133.452 90.699 C 131.964 89.162 130.237 87.995 128.269 87.197 C 126.301 86.399 124.111 86 121.698 86 C 118.044 86 114.899 86.9 112.263 88.698 C 109.628 90.497 107.619 93.111 106.237 96.541 C 105.44 98.614 104.855 101.092 104.48 103.974 C 104.105 106.857 103.918 110.097 103.918 113.693 C 103.918 116.481 104.087 119.071 104.427 121.465 C 104.767 123.859 105.3 126.045 106.026 128.022 C 107.455 131.644 109.581 134.478 112.404 136.527 C 115.227 138.576 118.418 139.6 121.979 139.6 C 125.072 139.6 127.882 138.837 130.412 137.313 C 132.942 135.789 135.004 133.621 136.597 130.81 C 137.862 128.523 138.728 125.974 139.197 123.163 C 139.665 120.352 139.9 116.993 139.9 113.086 C 139.9 105.892 139.009 100.329 137.229 96.398 Z  M 129.534 123.52 C 129.042 126.355 128.187 128.535 126.969 130.059 C 125.751 131.584 124.064 132.346 121.909 132.346 C 119.824 132.346 118.172 131.613 116.954 130.148 C 115.736 128.683 114.869 126.521 114.354 123.663 C 113.839 120.804 113.581 117.136 113.581 112.657 C 113.581 106.059 114.184 101.175 115.391 98.006 C 116.597 94.838 118.746 93.254 121.839 93.254 C 123.993 93.254 125.68 93.963 126.899 95.38 C 128.117 96.798 128.983 98.894 129.499 101.669 C 130.014 104.444 130.272 108.012 130.272 112.371 C 130.272 116.969 130.026 120.685 129.534 123.52 Z " fill="rgb(128,7,155)" vector-effect="non-scaling-stroke" stroke-width="2" stroke="rgb(0,0,0)" stroke-linejoin="miter" stroke-linecap="butt" stroke-miterlimit="4"/></g></g></g></svg>