<?xml version="1.0" encoding="UTF-8" standalone="no"?><!-- Generator: Gravit.io --><svg xmlns="http://www.w3.org/2000/svg" xmlns:xlink="http://www.w3.org/1999/xlink" style="isolation:isolate" viewBox="0 0 200 200" width="200pt" height="200pt"><defs><clipPath id="_clipPath_cvAt800AbQJAs9L8kIfmFctWTwriFfAd"><rect width="200" height="200"/></clipPath></defs><g clip-path="url(#_clipPath_cvAt800AbQJAs9L8kIfmFctWTwriFfAd)"><g style="isolation:isolate"><circle vector-effect="non-scaling-stroke" cx="100.00000000000001" cy="99.99999999999999" r="99" fill="rgb(6,129,248)" stroke-width="1.3" stroke="rgb(5,39,151)" stroke-linejoin="round" stroke-linecap="butt" stroke-miterlimit="1.414"/><path d=" M 100 7.472 C 151.067 7.472 192.528 48.933 192.528 100 C 192.528 151.067 151.067 192.528 100 192.528 C 48.933 192.528 7.472 151.067 7.472 100 C 7.472 48.933 48.933 7.472 100 7.472 Z  M 100 14.982 C 146.312 14.982 183.914 53.078 183.914 100 C 183.914 146.926 146.312 185.018 100 185.022 C 53.688 185.022 16.086 146.926 16.086 100 C 16.086 53.078 53.688 14.982 100 14.982 Z  M 100 20.606 C 143.818 20.606 179.394 56.182 179.394 100 C 179.394 143.818 143.818 179.394 100 179.394 C 56.182 179.394 20.606 143.818 20.606 100 C 20.606 56.182 56.182 20.606 100 20.606 Z " fill-rule="evenodd" fill="rgb(122,183,234)"/></g><g><path d=" M 148.013 150.005 C 129.181 165.378 70.379 165.378 51.931 150.005 C 33.484 134.632 35.021 68.913 51.931 51.618 C 68.842 34.324 131.102 34.324 148.013 51.618 C 164.923 68.913 166.845 134.633 148.013 150.005 Z " fill="rgb(52,150,225)"/><path d=" M 83.111 58.5 C 81.85 56.887 80.178 56.079 78.092 56.079 C 76.241 56.079 74.981 56.434 74.313 57.142 C 73.643 57.851 72.206 59.74 70.002 62.811 C 67.797 65.881 65.268 68.657 62.415 71.137 C 59.561 73.616 55.752 75.979 50.989 78.222 C 47.801 79.719 45.576 80.938 44.317 81.883 C 43.056 82.828 42.427 84.304 42.427 86.312 C 42.427 88.044 43.066 89.569 44.346 90.888 C 45.625 92.207 47.092 92.866 48.745 92.866 C 52.208 92.866 58.94 89.028 68.939 81.352 L 68.939 135.085 C 68.939 138.235 69.667 140.616 71.124 142.23 C 72.58 143.844 74.509 144.651 76.911 144.651 C 82.303 144.651 85 140.695 85 132.783 L 85 65.173 C 85 62.339 84.37 60.115 83.111 58.5 Z " fill="rgb(255,255,255)"/><path d=" M 150.977 73.262 C 149.244 69.523 147.129 66.383 144.629 63.844 C 142.129 61.305 139.227 59.376 135.92 58.057 C 132.613 56.739 128.932 56.079 124.878 56.079 C 118.737 56.079 113.452 57.566 109.024 60.538 C 104.595 63.51 101.219 67.83 98.897 73.498 C 97.558 76.923 96.574 81.018 95.945 85.78 C 95.315 90.544 95 95.898 95 101.841 C 95 106.447 95.285 110.728 95.856 114.684 C 96.427 118.64 97.322 122.252 98.543 125.519 C 100.943 131.503 104.516 136.188 109.26 139.572 C 114.003 142.958 119.366 144.651 125.35 144.651 C 130.547 144.651 135.27 143.391 139.522 140.872 C 143.773 138.353 147.237 134.77 149.914 130.125 C 152.04 126.346 153.495 122.134 154.284 117.489 C 155.07 112.844 155.465 107.294 155.465 100.837 C 155.465 88.949 153.968 79.757 150.977 73.262 Z  M 138.046 118.079 C 137.219 122.764 135.781 126.366 133.735 128.885 C 131.688 131.405 128.854 132.664 125.232 132.664 C 121.728 132.664 118.953 131.453 116.907 129.032 C 114.859 126.611 113.403 123.039 112.537 118.315 C 111.671 113.591 111.238 107.53 111.238 100.129 C 111.238 89.225 112.251 81.155 114.279 75.919 C 116.306 70.684 119.918 68.066 125.114 68.066 C 128.735 68.066 131.57 69.238 133.617 71.579 C 135.663 73.922 137.12 77.386 137.987 81.971 C 138.852 86.558 139.286 92.452 139.286 99.656 C 139.285 107.254 138.872 113.395 138.046 118.079 Z " fill="rgb(255,255,255)"/></g></g></svg>