<?xml version="1.0" encoding="UTF-8" standalone="no"?><!-- Generator: Gravit.io --><svg xmlns="http://www.w3.org/2000/svg" xmlns:xlink="http://www.w3.org/1999/xlink" style="isolation:isolate" viewBox="0 0 200 200" width="200pt" height="200pt"><defs><clipPath id="_clipPath_OedQVWLFop9lUp77AyLJlsuUqn2eH2Oi"><rect width="200" height="200"/></clipPath></defs><g clip-path="url(#_clipPath_OedQVWLFop9lUp77AyLJlsuUqn2eH2Oi)"><g style="isolation:isolate"><circle vector-effect="non-scaling-stroke" cx="100.00000000000001" cy="99.99999999999999" r="99" fill="rgb(6,129,248)" stroke-width="1.3" stroke="rgb(5,39,151)" stroke-linejoin="round" stroke-linecap="butt" stroke-miterlimit="1.414"/><path d=" M 100 7.472 C 151.067 7.472 192.528 48.933 192.528 100 C 192.528 151.067 151.067 192.528 100 192.528 C 48.933 192.528 7.472 151.067 7.472 100 C 7.472 48.933 48.933 7.472 100 7.472 Z  M 100 14.982 C 146.312 14.982 183.914 53.078 183.914 100 C 183.914 146.926 146.312 185.018 100 185.022 C 53.688 185.022 16.086 146.926 16.086 100 C 16.086 53.078 53.688 14.982 100 14.982 Z  M 100 20.606 C 143.818 20.606 179.394 56.182 179.394 100 C 179.394 143.818 143.818 179.394 100 179.394 C 56.182 179.394 20.606 143.818 20.606 100 C 20.606 56.182 56.182 20.606 100 20.606 Z " fill-rule="evenodd" fill="rgb(122,183,234)"/></g><g><path d=" M 148.013 150.005 C 129.181 165.378 70.379 165.378 51.931 150.005 C 33.484 134.632 35.021 68.913 51.931 51.618 C 68.842 34.324 131.102 34.324 148.013 51.618 C 164.923 68.913 166.845 134.633 148.013 150.005 Z " fill="rgb(52,150,225)"/><path d=" M 105.737 92.741 C 107.658 90.051 108.427 87.36 108.427 85.055 C 108.427 82.749 107.659 80.443 106.121 78.905 C 104.584 77.368 102.278 76.215 99.972 76.215 C 95.36 76.215 90.748 79.674 86.521 86.207 L 73.069 78.521 C 76.528 73.141 80.371 68.913 84.599 66.223 C 88.827 63.533 94.207 61.995 100.356 61.995 C 106.505 61.995 112.27 63.917 117.267 68.145 C 122.263 72.372 124.569 77.753 124.569 84.671 C 124.569 88.514 123.416 92.357 121.494 95.816 C 119.572 99.275 116.113 103.887 110.733 109.267 L 97.282 123.103 L 126.875 123.103 L 126.875 138.092 L 74.222 138.092 L 74.222 125.793 L 96.129 103.503 C 100.74 98.89 103.815 95.431 105.737 92.741 Z " fill="rgb(255,255,255)"/></g><g><path d=" M 181.575 184.865 L 153.065 184.865 C 149.129 184.865 145.937 181.801 145.937 178.027 L 145.937 150.673 C 145.937 146.897 149.13 143.835 153.065 143.835 L 181.575 143.835 C 185.511 143.835 188.703 146.899 188.703 150.673 L 188.703 178.027 C 188.703 181.803 185.51 184.865 181.575 184.865 Z " fill="rgb(200,230,201)"/><path d=" M 179.895 153.621 L 163.775 169.105 L 157.12 162.738 L 153.761 165.962 L 163.78 175.551 L 183.255 156.844 L 179.895 153.621 Z " fill="rgb(76,175,80)"/></g></g></svg>