<?xml version="1.0" encoding="UTF-8" standalone="no"?><!-- Generator: Gravit.io --><svg xmlns="http://www.w3.org/2000/svg" xmlns:xlink="http://www.w3.org/1999/xlink" style="isolation:isolate" viewBox="0 0 200 200" width="200pt" height="200pt"><defs><clipPath id="_clipPath_lAx1ePhLWoEb0pN485xIIja7udBs54oB"><rect width="200" height="200"/></clipPath></defs><g clip-path="url(#_clipPath_lAx1ePhLWoEb0pN485xIIja7udBs54oB)"><g style="isolation:isolate"><circle vector-effect="non-scaling-stroke" cx="100.00000000000001" cy="99.99999999999999" r="99" fill="rgb(6,129,248)" stroke-width="1.3" stroke="rgb(5,39,151)" stroke-linejoin="round" stroke-linecap="butt" stroke-miterlimit="1.414"/><path d=" M 100 7.472 C 151.067 7.472 192.528 48.933 192.528 100 C 192.528 151.067 151.067 192.528 100 192.528 C 48.933 192.528 7.472 151.067 7.472 100 C 7.472 48.933 48.933 7.472 100 7.472 Z  M 100 14.982 C 146.312 14.982 183.914 53.078 183.914 100 C 183.914 146.926 146.312 185.018 100 185.022 C 53.688 185.022 16.086 146.926 16.086 100 C 16.086 53.078 53.688 14.982 100 14.982 Z  M 100 20.606 C 143.818 20.606 179.394 56.182 179.394 100 C 179.394 143.818 143.818 179.394 100 179.394 C 56.182 179.394 20.606 143.818 20.606 100 C 20.606 56.182 56.182 20.606 100 20.606 Z " fill-rule="evenodd" fill="rgb(122,183,234)"/></g><g><path d=" M 144.792 48.042 L 55.208 48.042 C 53.307 48.041 51.484 48.796 50.14 50.14 C 48.796 51.484 48.041 53.307 48.042 55.208 L 48.042 117.917 C 48.041 119.818 48.796 121.641 50.14 122.985 C 51.484 124.329 53.307 125.084 55.208 125.083 L 144.792 125.083 C 146.693 125.084 148.516 124.329 149.86 122.985 C 151.204 121.641 151.959 119.818 151.958 117.917 L 151.958 55.208 C 151.959 53.307 151.204 51.484 149.86 50.14 C 148.516 48.796 146.693 48.041 144.792 48.042 L 144.792 48.042 Z " fill="rgb(52,143,217)"/><path d=" M 144.792 48.042 L 143 48.042 L 65.958 125.083 L 144.792 125.083 C 146.693 125.084 148.516 124.329 149.86 122.985 C 151.204 121.641 151.959 119.818 151.958 117.917 L 151.958 55.208 C 151.959 53.307 151.204 51.484 149.86 50.14 C 148.516 48.796 146.693 48.041 144.792 48.042 L 144.792 48.042 Z " fill="rgb(48,134,205)"/><circle vector-effect="non-scaling-stroke" cx="67.75002684793778" cy="83.8750043158798" r="10.749997072881865" fill="rgb(77,183,229)"/><path d=" M 65.958 89.25 C 65.483 89.251 65.027 89.062 64.692 88.725 L 61.108 85.142 L 63.642 82.608 L 65.958 84.925 L 71.858 79.025 L 74.392 81.558 L 67.225 88.725 C 66.89 89.062 66.434 89.251 65.958 89.25 Z " fill="rgb(52,143,217)"/><g><path d=" M 58.792 100 L 76.708 100 L 76.708 103.583 L 58.792 103.583 L 58.792 100 Z " fill="rgb(77,183,229)"/><path d=" M 58.792 107.167 L 76.708 107.167 L 76.708 110.75 L 58.792 110.75 L 58.792 107.167 Z " fill="rgb(77,183,229)"/><circle vector-effect="non-scaling-stroke" cx="100.00001806658338" cy="83.8750043158798" r="10.749997072881868" fill="rgb(77,183,229)"/><circle vector-effect="non-scaling-stroke" cx="132.25000928522905" cy="83.8750043158798" r="10.749997072881861" fill="rgb(77,183,229)"/></g><path d=" M 83.875 117.577 C 83.871 115.509 84.635 113.513 86.019 111.977 C 88.102 109.678 89.254 106.686 89.25 103.583 L 89.25 96.943 C 89.25 90.075 83.958 84.087 77.094 83.881 C 73.703 83.776 70.413 85.051 67.978 87.413 C 65.542 89.775 64.167 93.023 64.167 96.417 L 64.167 103.583 C 64.163 106.686 65.315 109.678 67.398 111.977 C 69.144 113.924 69.882 116.575 69.394 119.145 C 68.907 121.715 67.248 123.911 64.91 125.083 L 88.507 125.083 C 85.672 123.654 83.881 120.752 83.875 117.577 L 83.875 117.577 Z " fill="rgb(48,134,205)"/><path d=" M 98.208 135.312 L 98.208 149.719 C 98.208 150.956 97.206 151.958 95.969 151.958 L 48.042 151.958 L 48.042 135.312 C 48.042 132.38 49.826 129.744 52.548 128.655 L 60.653 125.415 C 63.857 124.132 65.958 121.028 65.958 117.576 L 65.958 117.57 C 65.942 115.473 65.155 113.457 63.748 111.903 C 61.706 109.613 60.58 106.651 60.583 103.583 L 60.583 96.417 C 60.583 92.992 61.983 89.716 64.459 87.35 C 66.935 84.984 70.271 83.733 73.692 83.888 C 80.424 84.184 85.667 89.866 85.667 96.605 L 85.667 103.583 C 85.67 106.651 84.544 109.613 82.502 111.903 C 81.095 113.457 80.308 115.473 80.292 117.57 L 80.292 117.576 C 80.291 120.841 82.173 123.812 85.125 125.207 C 85.279 125.283 85.436 125.35 85.597 125.415 L 93.702 128.655 C 96.424 129.744 98.208 132.38 98.208 135.312 L 98.208 135.312 Z " fill="rgb(219,110,162)"/><path d=" M 98.208 135.312 L 98.208 149.719 C 98.208 150.956 97.206 151.958 95.969 151.958 L 48.042 151.958 L 48.042 147.945 C 56.689 146.642 73.86 141.965 85.125 125.207 C 85.279 125.283 85.436 125.35 85.597 125.415 L 93.702 128.655 C 96.424 129.744 98.208 132.38 98.208 135.312 L 98.208 135.312 Z " fill="rgb(212,97,152)"/><path d=" M 143 132.25 L 110.75 132.25 C 108.622 127 102.43 123.292 96.417 123.292 C 88.501 123.292 82.083 129.709 82.083 137.625 C 82.083 145.541 88.501 151.958 96.417 151.958 C 102.43 151.958 108.622 148.25 110.75 143 L 121.5 143 L 125.083 139.417 L 128.667 143 L 132.25 143 L 135.833 139.417 L 139.417 143 L 143 143 L 146.583 137.625 L 143 132.25 Z  M 92.833 141.208 C 90.854 141.208 89.25 139.604 89.25 137.625 C 89.25 135.646 90.854 134.042 92.833 134.042 C 94.812 134.042 96.417 135.646 96.417 137.625 C 96.417 139.604 94.812 141.208 92.833 141.208 Z " fill="rgb(255,181,49)"/><path d=" M 146.583 137.625 L 143 143 L 139.417 143 L 135.833 139.417 L 132.25 143 L 128.667 143 L 125.083 139.417 L 121.5 143 L 110.75 143 C 108.622 148.25 102.43 151.958 96.417 151.958 L 113.661 132.25 L 143 132.25 L 146.583 137.625 Z " fill="rgb(255,169,18)"/><circle vector-effect="non-scaling-stroke" cx="92.83335335132878" cy="137.62498968028905" r="3.5833323576272846" fill="none"/><path d=" M 49.282 124.635 L 51.653 121.948 C 50.496 120.927 49.834 119.459 49.833 117.917 L 49.833 55.208 C 49.837 52.241 52.241 49.837 55.208 49.833 L 144.792 49.833 C 147.759 49.837 150.163 52.241 150.167 55.208 L 150.167 117.917 C 150.163 120.884 147.759 123.288 144.792 123.292 L 114.333 123.292 L 114.333 126.875 L 144.792 126.875 C 149.737 126.869 153.744 122.862 153.75 117.917 L 153.75 55.208 C 153.744 50.263 149.737 46.256 144.792 46.25 L 55.208 46.25 C 50.263 46.256 46.256 50.263 46.25 55.208 L 46.25 117.917 C 46.251 120.487 47.355 122.934 49.282 124.635 L 49.282 124.635 Z " fill="rgb(0,0,0)"/><path d=" M 55.208 53.417 L 58.792 53.417 L 58.792 57 L 55.208 57 L 55.208 53.417 Z " fill="rgb(0,0,0)"/><path d=" M 62.375 53.417 L 65.958 53.417 L 65.958 57 L 62.375 57 L 62.375 53.417 Z " fill="rgb(0,0,0)"/><path d=" M 69.542 53.417 L 73.125 53.417 L 73.125 57 L 69.542 57 L 69.542 53.417 Z " fill="rgb(0,0,0)"/><path d=" M 55.208 60.583 L 144.792 60.583 L 144.792 64.167 L 55.208 64.167 L 55.208 60.583 Z " fill="rgb(0,0,0)"/><path d=" M 132.25 71.333 C 125.323 71.333 119.708 76.948 119.708 83.875 C 119.708 90.802 125.323 96.417 132.25 96.417 C 139.177 96.417 144.792 90.802 144.792 83.875 C 144.784 76.952 139.173 71.341 132.25 71.333 L 132.25 71.333 Z  M 132.25 92.833 C 127.302 92.833 123.292 88.823 123.292 83.875 C 123.292 78.927 127.302 74.917 132.25 74.917 C 137.198 74.917 141.208 78.927 141.208 83.875 C 141.203 88.82 137.195 92.828 132.25 92.833 L 132.25 92.833 Z " fill="rgb(0,0,0)"/><path d=" M 136.358 79.025 L 130.458 84.925 L 128.142 82.608 L 125.608 85.142 L 129.191 88.725 C 129.527 89.061 129.983 89.25 130.458 89.25 C 130.934 89.25 131.389 89.061 131.725 88.725 L 138.892 81.559 L 136.358 79.025 Z " fill="rgb(0,0,0)"/><path d=" M 123.292 100 L 141.208 100 L 141.208 103.583 L 123.292 103.583 L 123.292 100 Z " fill="rgb(0,0,0)"/><path d=" M 123.292 107.167 L 141.208 107.167 L 141.208 110.75 L 123.292 110.75 L 123.292 107.167 Z " fill="rgb(0,0,0)"/><path d=" M 100 71.333 C 93.073 71.333 87.458 76.948 87.458 83.875 C 87.458 90.802 93.073 96.417 100 96.417 C 106.927 96.417 112.542 90.802 112.542 83.875 C 112.534 76.952 106.923 71.341 100 71.333 L 100 71.333 Z  M 100 92.833 C 95.052 92.833 91.042 88.823 91.042 83.875 C 91.042 78.927 95.052 74.917 100 74.917 C 104.948 74.917 108.958 78.927 108.958 83.875 C 108.953 88.82 104.945 92.828 100 92.833 L 100 92.833 Z " fill="rgb(0,0,0)"/><path d=" M 104.108 79.025 L 98.208 84.925 L 95.892 82.608 L 93.358 85.142 L 96.941 88.725 C 97.277 89.061 97.733 89.25 98.208 89.25 C 98.684 89.25 99.139 89.061 99.475 88.725 L 106.642 81.559 L 104.108 79.025 Z " fill="rgb(0,0,0)"/><path d=" M 91.042 100 L 108.958 100 L 108.958 103.583 L 91.042 103.583 L 91.042 100 Z " fill="rgb(0,0,0)"/><path d=" M 91.042 107.167 L 108.958 107.167 L 108.958 110.75 L 91.042 110.75 L 91.042 107.167 Z " fill="rgb(0,0,0)"/><path d=" M 67.75 74.917 C 70.755 74.916 73.559 76.423 75.217 78.929 L 78.201 76.945 C 75.144 72.334 69.427 70.27 64.13 71.867 C 58.833 73.463 55.208 78.342 55.208 83.875 C 55.208 84.575 55.266 85.273 55.382 85.963 L 58.916 85.37 C 58.833 84.876 58.792 84.376 58.792 83.875 C 58.797 78.93 62.805 74.922 67.75 74.917 L 67.75 74.917 Z " fill="rgb(0,0,0)"/><path d=" M 48.042 153.75 L 98.208 153.75 C 98.496 153.75 98.779 153.68 99.034 153.547 C 104.518 152.71 109.541 149.33 111.894 144.792 L 121.5 144.792 C 121.975 144.792 122.431 144.603 122.767 144.267 L 125.083 141.95 L 127.4 144.267 C 127.736 144.603 128.191 144.792 128.667 144.792 L 132.25 144.792 C 132.725 144.792 133.181 144.603 133.517 144.267 L 135.833 141.95 L 138.15 144.267 C 138.486 144.603 138.941 144.792 139.417 144.792 L 143 144.792 C 143.599 144.792 144.158 144.492 144.491 143.994 L 148.074 138.619 C 148.475 138.017 148.475 137.233 148.074 136.631 L 144.491 131.256 C 144.158 130.758 143.599 130.458 143 130.458 L 111.894 130.458 C 109.169 125.204 102.869 121.5 96.417 121.5 C 93.228 121.497 90.111 122.444 87.464 124.222 L 86.238 123.734 C 86.069 123.668 85.905 123.592 85.745 123.506 C 85.731 123.498 85.716 123.49 85.701 123.484 C 83.869 122.552 82.574 120.822 82.195 118.802 C 81.817 116.782 82.399 114.701 83.77 113.17 C 86.146 110.543 87.461 107.126 87.458 103.583 L 87.458 96.936 C 87.458 91.216 84.223 85.936 79.222 83.487 C 77.463 82.617 75.538 82.139 73.577 82.083 C 71.72 82.02 69.87 82.326 68.132 82.982 C 66.651 83.521 65.276 84.313 64.066 85.322 C 60.737 88.046 58.802 92.116 58.792 96.417 L 58.792 103.583 C 58.798 107.125 60.112 110.54 62.481 113.172 C 64.505 115.434 64.73 118.782 63.028 121.295 C 63.021 121.306 63.013 121.317 63.006 121.328 C 62.402 122.254 61.556 122.996 60.561 123.476 Q 60.532 123.491 60.504 123.506 C 60.345 123.592 60.18 123.668 60.011 123.734 L 59.989 123.742 L 51.868 126.987 C 48.466 128.349 46.24 131.649 46.25 135.314 L 46.25 151.958 C 46.25 152.948 47.052 153.75 48.042 153.75 L 48.042 153.75 Z  M 96.417 125.083 C 101.831 125.083 107.279 128.453 109.089 132.922 C 109.363 133.599 110.02 134.042 110.75 134.042 L 142.041 134.042 L 144.43 137.625 L 142.041 141.208 L 140.159 141.208 L 137.1 138.15 C 136.764 137.814 136.309 137.625 135.833 137.625 C 135.358 137.625 134.902 137.814 134.566 138.15 L 131.508 141.208 L 129.409 141.208 L 126.35 138.15 C 126.014 137.814 125.559 137.625 125.083 137.625 C 124.608 137.625 124.152 137.814 123.816 138.15 L 120.758 141.208 L 110.75 141.208 C 110.02 141.208 109.363 141.651 109.089 142.328 C 107.279 146.797 101.831 150.167 96.417 150.167 C 89.49 150.167 83.875 144.552 83.875 137.625 C 83.875 130.698 89.49 125.083 96.417 125.083 L 96.417 125.083 Z  M 49.833 135.314 C 49.827 133.114 51.162 131.132 53.204 130.313 L 61.309 127.074 C 61.606 126.959 61.894 126.826 62.174 126.676 C 63.726 125.911 65.045 124.746 65.997 123.302 C 68.622 119.423 68.269 114.255 65.14 110.77 C 64.445 110.002 63.867 109.136 63.425 108.199 C 63.422 108.192 63.418 108.185 63.415 108.178 C 62.723 106.746 62.368 105.174 62.375 103.583 L 62.375 96.417 C 62.386 93.194 63.836 90.145 66.328 88.102 C 66.34 88.093 66.351 88.084 66.362 88.074 C 67.262 87.324 68.285 86.737 69.387 86.339 C 70.688 85.846 72.073 85.617 73.463 85.665 C 74.914 85.705 76.338 86.059 77.639 86.702 C 81.428 88.557 83.875 92.574 83.875 96.936 L 83.875 103.583 C 83.877 106.237 82.893 108.796 81.115 110.765 C 78.995 113.122 78.092 116.331 78.671 119.447 C 79.25 122.564 81.245 125.234 84.069 126.673 C 84.189 126.738 84.31 126.796 84.43 126.853 C 81.468 130.14 79.99 134.501 80.343 138.912 C 80.696 143.322 82.85 147.393 86.297 150.167 L 49.833 150.167 L 49.833 135.314 Z " fill="rgb(0,0,0)"/><path d=" M 92.833 143 C 95.802 143 98.208 140.594 98.208 137.625 C 98.208 134.656 95.802 132.25 92.833 132.25 C 89.865 132.25 87.458 134.656 87.458 137.625 C 87.462 140.592 89.866 142.997 92.833 143 L 92.833 143 Z  M 92.833 135.833 C 93.823 135.833 94.625 136.635 94.625 137.625 C 94.625 138.614 93.823 139.417 92.833 139.417 C 91.844 139.417 91.042 138.614 91.042 137.625 C 91.043 136.636 91.844 135.834 92.833 135.833 L 92.833 135.833 Z " fill="rgb(0,0,0)"/></g><g><path d=" M 181.575 184.865 L 153.065 184.865 C 149.129 184.865 145.937 181.801 145.937 178.027 L 145.937 150.673 C 145.937 146.897 149.13 143.835 153.065 143.835 L 181.575 143.835 C 185.511 143.835 188.703 146.899 188.703 150.673 L 188.703 178.027 C 188.703 181.803 185.51 184.865 181.575 184.865 Z " fill="rgb(200,230,201)"/><path d=" M 179.895 153.621 L 163.775 169.105 L 157.12 162.738 L 153.761 165.962 L 163.78 175.551 L 183.255 156.844 L 179.895 153.621 Z " fill="rgb(76,175,80)"/></g></g></svg>